M48
;DRILL file {KiCad 4.0.6} date 06/04/17 23:34:18
;FORMAT={-:-/ absolute / inch / decimal}
FMAT,2
INCH,TZ
T1C0.031
T2C0.035
T3C0.039
T4C0.079
%
G90
G05
M72
T1
X2.8457Y-3.3634
X3.7555Y-3.1988
X3.9819Y-3.3417
X4.1553Y-3.3419
X4.1553Y-3.6419
X4.2553Y-3.3419
X4.2553Y-3.6419
X4.3553Y-3.3419
X4.3553Y-3.6419
X4.4134Y-4.728
X4.4553Y-3.3419
X4.4553Y-3.6419
X4.4949Y-4.2098
X4.4949Y-4.5098
X4.5429Y-2.9189
X4.5553Y-3.3419
X4.5553Y-3.6419
X4.5949Y-4.2098
X4.5949Y-4.5098
X4.6553Y-3.3419
X4.6553Y-3.6419
X4.6949Y-4.2098
X4.6949Y-4.5098
X4.7189Y-3.9016
X4.7553Y-3.3419
X4.7553Y-3.6419
X4.7563Y-2.9457
X4.7937Y-4.7189
X4.7949Y-4.2098
X4.7949Y-4.5098
X4.8553Y-3.3419
X4.8553Y-3.6419
X4.8949Y-4.2098
X4.8949Y-4.5098
X4.9772Y-4.7984
X4.9949Y-4.2098
X4.9949Y-4.5098
X5.076Y-4.6634
X5.0949Y-4.2098
X5.0949Y-4.5098
T2
X2.2303Y-5.7949
X2.2303Y-5.8949
X2.2303Y-5.9949
X2.2303Y-6.0949
X2.3303Y-5.6949
X2.3303Y-5.7949
X2.3303Y-5.8949
X2.3303Y-5.9949
X2.3303Y-6.0949
X2.3303Y-6.1949
X2.4303Y-5.6949
X2.4303Y-5.7949
X2.4303Y-6.0949
X2.4303Y-6.1949
X2.5303Y-5.6949
X2.5303Y-5.7949
X2.5303Y-6.0949
X2.5303Y-6.1949
X2.6303Y-5.6949
X2.6303Y-5.7949
X2.6303Y-5.8949
X2.6303Y-5.9949
X2.6303Y-6.0949
X2.6303Y-6.1949
X2.7303Y-5.7949
X2.7303Y-5.8949
X2.7303Y-5.9949
X2.7303Y-6.0949
X3.628Y-5.7752
X3.628Y-5.8752
X3.628Y-5.9752
X3.628Y-6.0752
X3.728Y-5.6752
X3.728Y-5.7752
X3.728Y-5.8752
X3.728Y-5.9752
X3.728Y-6.0752
X3.728Y-6.1752
X3.828Y-5.6752
X3.828Y-5.7752
X3.828Y-6.0752
X3.828Y-6.1752
X3.928Y-5.6752
X3.928Y-5.7752
X3.928Y-6.0752
X3.928Y-6.1752
X4.028Y-5.6752
X4.028Y-5.7752
X4.028Y-5.8752
X4.028Y-5.9752
X4.028Y-6.0752
X4.028Y-6.1752
X4.128Y-5.7752
X4.128Y-5.8752
X4.128Y-5.9752
X4.128Y-6.0752
X5.0453Y-5.7752
X5.0453Y-5.8752
X5.0453Y-5.9752
X5.0453Y-6.0752
X5.1453Y-5.6752
X5.1453Y-5.7752
X5.1453Y-5.8752
X5.1453Y-5.9752
X5.1453Y-6.0752
X5.1453Y-6.1752
X5.2453Y-5.6752
X5.2453Y-5.7752
X5.2453Y-6.0752
X5.2453Y-6.1752
X5.3453Y-5.6752
X5.3453Y-5.7752
X5.3453Y-6.0752
X5.3453Y-6.1752
X5.4453Y-5.6752
X5.4453Y-5.7752
X5.4453Y-5.8752
X5.4453Y-5.9752
X5.4453Y-6.0752
X5.4453Y-6.1752
X5.5453Y-5.7752
X5.5453Y-5.8752
X5.5453Y-5.9752
X5.5453Y-6.0752
T3
X1.9685Y-5.6449
X1.9685Y-5.7449
X1.9685Y-5.8449
X1.9685Y-5.9449
X1.9685Y-6.0449
X1.9685Y-6.1449
X1.9685Y-6.2449
X2.1803Y-5.4331
X2.1803Y-6.4567
X2.2533Y-3.5557
X2.2533Y-3.6557
X2.2533Y-3.7557
X2.2533Y-3.8557
X2.2533Y-3.9557
X2.2803Y-5.4331
X2.2803Y-6.4567
X2.3533Y-3.5557
X2.3533Y-3.6557
X2.3533Y-3.7557
X2.3533Y-3.8557
X2.3533Y-3.9557
X2.3803Y-5.4331
X2.3803Y-6.4567
X2.4803Y-5.4331
X2.4803Y-6.4567
X2.5803Y-5.4331
X2.5803Y-6.4567
X2.6803Y-5.4331
X2.6803Y-6.4567
X2.7803Y-5.4331
X2.7803Y-6.4567
X2.9921Y-5.6449
X2.9921Y-5.7449
X2.9921Y-5.8449
X2.9921Y-5.9449
X2.9921Y-6.0449
X2.9921Y-6.1449
X2.9921Y-6.2449
X3.0195Y-3.0636
X3.0195Y-3.1636
X3.0195Y-3.2636
X3.0195Y-3.3636
X3.0195Y-3.4636
X3.0195Y-3.5636
X3.0195Y-3.6636
X3.0195Y-3.7636
X3.0195Y-3.8636
X3.0195Y-3.9636
X3.0195Y-4.0636
X3.0195Y-4.1636
X3.0195Y-4.2636
X3.0195Y-4.3636
X3.0195Y-4.4636
X3.0195Y-4.5636
X3.0195Y-4.6636
X3.0195Y-4.7636
X3.0195Y-4.8636
X3.0195Y-4.9636
X3.1195Y-3.0636
X3.1195Y-3.1636
X3.1195Y-3.2636
X3.1195Y-3.3636
X3.1195Y-3.4636
X3.1195Y-3.5636
X3.1195Y-3.6636
X3.1195Y-3.7636
X3.1195Y-3.8636
X3.1195Y-3.9636
X3.1195Y-4.0636
X3.1195Y-4.1636
X3.1195Y-4.2636
X3.1195Y-4.3636
X3.1195Y-4.4636
X3.1195Y-4.5636
X3.1195Y-4.6636
X3.1195Y-4.7636
X3.1195Y-4.8636
X3.1195Y-4.9636
X3.3661Y-5.6252
X3.3661Y-5.7252
X3.3661Y-5.8252
X3.3661Y-5.9252
X3.3661Y-6.0252
X3.3661Y-6.1252
X3.3661Y-6.2252
X3.5701Y-4.9701
X3.578Y-5.4134
X3.578Y-6.437
X3.6701Y-4.9701
X3.678Y-5.4134
X3.678Y-6.437
X3.7701Y-4.9701
X3.778Y-5.4134
X3.778Y-6.437
X3.878Y-5.4134
X3.878Y-6.437
X3.978Y-5.4134
X3.978Y-6.437
X3.9795Y-4.9874
X4.078Y-5.4134
X4.078Y-6.437
X4.178Y-5.4134
X4.178Y-6.437
X4.3339Y-4.9874
X4.3559Y-3.9335
X4.3898Y-5.6252
X4.3898Y-5.7252
X4.3898Y-5.8252
X4.3898Y-5.9252
X4.3898Y-6.0252
X4.3898Y-6.1252
X4.3898Y-6.2252
X4.5945Y-4.9634
X4.6945Y-4.9634
X4.7835Y-5.6252
X4.7835Y-5.7252
X4.7835Y-5.8252
X4.7835Y-5.9252
X4.7835Y-6.0252
X4.7835Y-6.1252
X4.7835Y-6.2252
X4.7945Y-4.9634
X4.9953Y-5.4134
X4.9953Y-6.437
X5.0953Y-5.4134
X5.0953Y-6.437
X5.1953Y-5.4134
X5.1953Y-6.437
X5.2953Y-5.4134
X5.2953Y-6.437
X5.3953Y-5.4134
X5.3953Y-6.437
X5.4953Y-5.4134
X5.4953Y-6.437
X5.5953Y-5.4134
X5.5953Y-6.437
X5.8071Y-5.6252
X5.8071Y-5.7252
X5.8071Y-5.8252
X5.8071Y-5.9252
X5.8071Y-6.0252
X5.8071Y-6.1252
X5.8071Y-6.2252
T4
X2.7433Y-4.1539
X2.7433Y-4.3539
X3.385Y-3.2701
X3.385Y-3.4701
X3.385Y-3.6701
X3.385Y-3.8701
X3.385Y-4.0701
X4.0756Y-3.0827
X4.2756Y-3.0827
X4.3559Y-3.9335
X4.4756Y-3.0827
T0
M30
