G04 #@! TF.FileFunction,Copper,L1,Top,Plane*
%FSLAX46Y46*%
G04 Gerber Fmt 4.6, Leading zero omitted, Abs format (unit mm)*
G04 Created by KiCad (PCBNEW 4.0.6) date 06/04/17 23:33:04*
%MOMM*%
%LPD*%
G01*
G04 APERTURE LIST*
%ADD10C,0.100000*%
%ADD11R,1.600000X1.600000*%
%ADD12O,1.600000X1.600000*%
%ADD13R,1.700000X1.700000*%
%ADD14O,1.700000X1.700000*%
%ADD15C,1.800000*%
%ADD16C,2.000000*%
%ADD17C,4.000000*%
%ADD18C,1.600000*%
%ADD19C,0.508000*%
%ADD20C,0.254000*%
G04 APERTURE END LIST*
D10*
D11*
X114170000Y-114550000D03*
D12*
X129410000Y-106930000D03*
X116710000Y-114550000D03*
X126870000Y-106930000D03*
X119250000Y-114550000D03*
X124330000Y-106930000D03*
X121790000Y-114550000D03*
X121790000Y-106930000D03*
X124330000Y-114550000D03*
X119250000Y-106930000D03*
X126870000Y-114550000D03*
X116710000Y-106930000D03*
X129410000Y-114550000D03*
X114170000Y-106930000D03*
D13*
X116700000Y-126070000D03*
D14*
X119240000Y-126070000D03*
X121780000Y-126070000D03*
D13*
X57235000Y-90315000D03*
D14*
X59775000Y-90315000D03*
X57235000Y-92855000D03*
X59775000Y-92855000D03*
X57235000Y-95395000D03*
X59775000Y-95395000D03*
X57235000Y-97935000D03*
X59775000Y-97935000D03*
X57235000Y-100475000D03*
X59775000Y-100475000D03*
D11*
X105545000Y-92505000D03*
D12*
X123325000Y-84885000D03*
X108085000Y-92505000D03*
X120785000Y-84885000D03*
X110625000Y-92505000D03*
X118245000Y-84885000D03*
X113165000Y-92505000D03*
X115705000Y-84885000D03*
X115705000Y-92505000D03*
X113165000Y-84885000D03*
X118245000Y-92505000D03*
X110625000Y-84885000D03*
X120785000Y-92505000D03*
X108085000Y-84885000D03*
X123325000Y-92505000D03*
X105545000Y-84885000D03*
D15*
X61730000Y-147190000D03*
X61730000Y-144650000D03*
X59190000Y-147190000D03*
X59190000Y-144650000D03*
X56650000Y-147190000D03*
X59190000Y-149730000D03*
X56650000Y-149730000D03*
X59190000Y-152270000D03*
X56650000Y-152270000D03*
X59190000Y-154810000D03*
X56650000Y-154810000D03*
X59190000Y-157350000D03*
X61730000Y-154810000D03*
X61730000Y-157350000D03*
X64270000Y-154810000D03*
X64270000Y-157350000D03*
X66810000Y-154810000D03*
X66810000Y-157350000D03*
X69350000Y-154810000D03*
X66810000Y-152270000D03*
X69350000Y-152270000D03*
X66810000Y-149730000D03*
X69350000Y-149730000D03*
X66810000Y-147190000D03*
X69350000Y-147190000D03*
X66810000Y-144650000D03*
X64270000Y-147190000D03*
X64270000Y-144650000D03*
X97230000Y-146690000D03*
X97230000Y-144150000D03*
X94690000Y-146690000D03*
X94690000Y-144150000D03*
X92150000Y-146690000D03*
X94690000Y-149230000D03*
X92150000Y-149230000D03*
X94690000Y-151770000D03*
X92150000Y-151770000D03*
X94690000Y-154310000D03*
X92150000Y-154310000D03*
X94690000Y-156850000D03*
X97230000Y-154310000D03*
X97230000Y-156850000D03*
X99770000Y-154310000D03*
X99770000Y-156850000D03*
X102310000Y-154310000D03*
X102310000Y-156850000D03*
X104850000Y-154310000D03*
X102310000Y-151770000D03*
X104850000Y-151770000D03*
X102310000Y-149230000D03*
X104850000Y-149230000D03*
X102310000Y-146690000D03*
X104850000Y-146690000D03*
X102310000Y-144150000D03*
X99770000Y-146690000D03*
X99770000Y-144150000D03*
X133230000Y-146690000D03*
X133230000Y-144150000D03*
X130690000Y-146690000D03*
X130690000Y-144150000D03*
X128150000Y-146690000D03*
X130690000Y-149230000D03*
X128150000Y-149230000D03*
X130690000Y-151770000D03*
X128150000Y-151770000D03*
X130690000Y-154310000D03*
X128150000Y-154310000D03*
X130690000Y-156850000D03*
X133230000Y-154310000D03*
X133230000Y-156850000D03*
X135770000Y-154310000D03*
X135770000Y-156850000D03*
X138310000Y-154310000D03*
X138310000Y-156850000D03*
X140850000Y-154310000D03*
X138310000Y-151770000D03*
X140850000Y-151770000D03*
X138310000Y-149230000D03*
X140850000Y-149230000D03*
X138310000Y-146690000D03*
X140850000Y-146690000D03*
X138310000Y-144150000D03*
X135770000Y-146690000D03*
X135770000Y-144150000D03*
D13*
X76695000Y-77815000D03*
D14*
X79235000Y-77815000D03*
X76695000Y-80355000D03*
X79235000Y-80355000D03*
X76695000Y-82895000D03*
X79235000Y-82895000D03*
X76695000Y-85435000D03*
X79235000Y-85435000D03*
X76695000Y-87975000D03*
X79235000Y-87975000D03*
X76695000Y-90515000D03*
X79235000Y-90515000D03*
X76695000Y-93055000D03*
X79235000Y-93055000D03*
X76695000Y-95595000D03*
X79235000Y-95595000D03*
X76695000Y-98135000D03*
X79235000Y-98135000D03*
X76695000Y-100675000D03*
X79235000Y-100675000D03*
X76695000Y-103215000D03*
X79235000Y-103215000D03*
X76695000Y-105755000D03*
X79235000Y-105755000D03*
X76695000Y-108295000D03*
X79235000Y-108295000D03*
X76695000Y-110835000D03*
X79235000Y-110835000D03*
X76695000Y-113375000D03*
X79235000Y-113375000D03*
X76695000Y-115915000D03*
X79235000Y-115915000D03*
X76695000Y-118455000D03*
X79235000Y-118455000D03*
X76695000Y-120995000D03*
X79235000Y-120995000D03*
X76695000Y-123535000D03*
X79235000Y-123535000D03*
X76695000Y-126075000D03*
X79235000Y-126075000D03*
D13*
X50000000Y-158620000D03*
D14*
X50000000Y-156080000D03*
X50000000Y-153540000D03*
X50000000Y-151000000D03*
X50000000Y-148460000D03*
X50000000Y-145920000D03*
X50000000Y-143380000D03*
D13*
X147500000Y-142880000D03*
D14*
X147500000Y-145420000D03*
X147500000Y-147960000D03*
X147500000Y-150500000D03*
X147500000Y-153040000D03*
X147500000Y-155580000D03*
X147500000Y-158120000D03*
D13*
X90880000Y-137500000D03*
D14*
X93420000Y-137500000D03*
X95960000Y-137500000D03*
X98500000Y-137500000D03*
X101040000Y-137500000D03*
X103580000Y-137500000D03*
X106120000Y-137500000D03*
D13*
X121500000Y-158120000D03*
D14*
X121500000Y-155580000D03*
X121500000Y-153040000D03*
X121500000Y-150500000D03*
X121500000Y-147960000D03*
X121500000Y-145420000D03*
X121500000Y-142880000D03*
D13*
X76000000Y-143380000D03*
D14*
X76000000Y-145920000D03*
X76000000Y-148460000D03*
X76000000Y-151000000D03*
X76000000Y-153540000D03*
X76000000Y-156080000D03*
X76000000Y-158620000D03*
D13*
X111500000Y-142880000D03*
D14*
X111500000Y-145420000D03*
X111500000Y-147960000D03*
X111500000Y-150500000D03*
X111500000Y-153040000D03*
X111500000Y-155580000D03*
X111500000Y-158120000D03*
D13*
X55380000Y-138000000D03*
D14*
X57920000Y-138000000D03*
X60460000Y-138000000D03*
X63000000Y-138000000D03*
X65540000Y-138000000D03*
X68080000Y-138000000D03*
X70620000Y-138000000D03*
D13*
X126880000Y-137500000D03*
D14*
X129420000Y-137500000D03*
X131960000Y-137500000D03*
X134500000Y-137500000D03*
X137040000Y-137500000D03*
X139580000Y-137500000D03*
X142120000Y-137500000D03*
D13*
X85500000Y-158120000D03*
D14*
X85500000Y-155580000D03*
X85500000Y-153040000D03*
X85500000Y-150500000D03*
X85500000Y-147960000D03*
X85500000Y-145420000D03*
X85500000Y-142880000D03*
D13*
X70620000Y-164000000D03*
D14*
X68080000Y-164000000D03*
X65540000Y-164000000D03*
X63000000Y-164000000D03*
X60460000Y-164000000D03*
X57920000Y-164000000D03*
X55380000Y-164000000D03*
D13*
X142120000Y-163500000D03*
D14*
X139580000Y-163500000D03*
X137040000Y-163500000D03*
X134500000Y-163500000D03*
X131960000Y-163500000D03*
X129420000Y-163500000D03*
X126880000Y-163500000D03*
D13*
X106120000Y-163500000D03*
D14*
X103580000Y-163500000D03*
X101040000Y-163500000D03*
X98500000Y-163500000D03*
X95960000Y-163500000D03*
X93420000Y-163500000D03*
X90880000Y-163500000D03*
D16*
X101080000Y-126680000D03*
X110080000Y-126680000D03*
D13*
X90680000Y-126240000D03*
D14*
X93220000Y-126240000D03*
X95760000Y-126240000D03*
D17*
X103520000Y-78300000D03*
X108600000Y-78300000D03*
X113680000Y-78300000D03*
X69680000Y-110590000D03*
X69680000Y-105510000D03*
D13*
X110640000Y-99910000D03*
D17*
X110640000Y-99910000D03*
X85980000Y-83060000D03*
X85980000Y-88140000D03*
X85980000Y-93220000D03*
X85980000Y-98300000D03*
X85980000Y-103380000D03*
D18*
X95390000Y-81250000D03*
X101140000Y-84880000D03*
X115390000Y-74140000D03*
X120810000Y-74820000D03*
X119860000Y-99100000D03*
X126420000Y-121880000D03*
X128930000Y-118450000D03*
X121760000Y-119860000D03*
X112100000Y-120090000D03*
X72280000Y-85430000D03*
D19*
X76695000Y-77815000D02*
X76695000Y-76635000D01*
X90030000Y-75890000D02*
X95390000Y-81250000D01*
X77440000Y-75890000D02*
X90030000Y-75890000D01*
X76695000Y-76635000D02*
X77440000Y-75890000D01*
X79235000Y-77815000D02*
X86925000Y-77815000D01*
X93990000Y-84880000D02*
X101140000Y-84880000D01*
X86925000Y-77815000D02*
X93990000Y-84880000D01*
X76695000Y-80355000D02*
X74845000Y-80355000D01*
X74940000Y-74140000D02*
X115390000Y-74140000D01*
X73430000Y-75650000D02*
X74940000Y-74140000D01*
X73430000Y-78940000D02*
X73430000Y-75650000D01*
X74845000Y-80355000D02*
X73430000Y-78940000D01*
X76695000Y-82895000D02*
X75165000Y-82895000D01*
X117740000Y-71750000D02*
X120810000Y-74820000D01*
X110870000Y-71750000D02*
X117740000Y-71750000D01*
X109488002Y-73131998D02*
X110870000Y-71750000D01*
X74358002Y-73131998D02*
X109488002Y-73131998D01*
X72421998Y-75068002D02*
X74358002Y-73131998D01*
X72421998Y-80151998D02*
X72421998Y-75068002D01*
X75165000Y-82895000D02*
X72421998Y-80151998D01*
X79235000Y-87975000D02*
X85815000Y-87975000D01*
X85815000Y-87975000D02*
X85980000Y-88140000D01*
X79235000Y-85435000D02*
X83605000Y-85435000D01*
X83605000Y-85435000D02*
X85980000Y-83060000D01*
X79235000Y-90515000D02*
X81015000Y-90515000D01*
X83720000Y-93220000D02*
X85980000Y-93220000D01*
X81015000Y-90515000D02*
X83720000Y-93220000D01*
X71413996Y-74566004D02*
X71403996Y-74566004D01*
X68385000Y-90515000D02*
X76695000Y-90515000D01*
X66940000Y-89070000D02*
X68385000Y-90515000D01*
X66940000Y-79030000D02*
X66940000Y-89070000D01*
X71403996Y-74566004D02*
X66940000Y-79030000D01*
X123140000Y-99100000D02*
X119860000Y-99100000D01*
X127180000Y-95060000D02*
X123140000Y-99100000D01*
X127180000Y-92590000D02*
X127180000Y-95060000D01*
X127190000Y-92580000D02*
X127180000Y-92590000D01*
X127190000Y-77980000D02*
X127190000Y-92580000D01*
X119820000Y-70610000D02*
X127190000Y-77980000D01*
X75370000Y-70610000D02*
X119820000Y-70610000D01*
X71413996Y-74566004D02*
X75370000Y-70610000D01*
X79235000Y-95595000D02*
X80845000Y-95595000D01*
X83550000Y-98300000D02*
X85980000Y-98300000D01*
X80845000Y-95595000D02*
X83550000Y-98300000D01*
X69040000Y-73350000D02*
X69030000Y-73350000D01*
X70265000Y-95595000D02*
X74035000Y-95595000D01*
X64630000Y-89960000D02*
X70265000Y-95595000D01*
X64630000Y-77750000D02*
X64630000Y-89960000D01*
X69030000Y-73350000D02*
X64630000Y-77750000D01*
X76695000Y-95595000D02*
X74035000Y-95595000D01*
X69040000Y-73350000D02*
X74380000Y-68010000D01*
X74380000Y-68010000D02*
X120860000Y-68010000D01*
X120860000Y-68010000D02*
X136910000Y-84060000D01*
X136910000Y-84060000D02*
X136910000Y-116460000D01*
X136910000Y-116460000D02*
X131490000Y-121880000D01*
X131490000Y-121880000D02*
X126420000Y-121880000D01*
X70335000Y-73805000D02*
X65740000Y-78400000D01*
X69225000Y-93055000D02*
X76695000Y-93055000D01*
X65740000Y-89570000D02*
X69225000Y-93055000D01*
X65740000Y-78400000D02*
X65740000Y-89570000D01*
X133130000Y-118450000D02*
X128930000Y-118450000D01*
X135450000Y-116130000D02*
X133130000Y-118450000D01*
X135450000Y-84460000D02*
X135450000Y-116130000D01*
X120390000Y-69400000D02*
X135450000Y-84460000D01*
X74740000Y-69400000D02*
X120390000Y-69400000D01*
X70335000Y-73805000D02*
X74740000Y-69400000D01*
X79235000Y-98135000D02*
X80705000Y-98135000D01*
X80705000Y-98135000D02*
X85950000Y-103380000D01*
X85950000Y-103380000D02*
X85980000Y-103380000D01*
X59775000Y-97935000D02*
X62685000Y-97935000D01*
X85550000Y-131370000D02*
X90680000Y-126240000D01*
X71410000Y-131370000D02*
X85550000Y-131370000D01*
X64150000Y-124110000D02*
X71410000Y-131370000D01*
X64150000Y-99400000D02*
X64150000Y-124110000D01*
X62685000Y-97935000D02*
X64150000Y-99400000D01*
X100790000Y-126390000D02*
X101080000Y-126680000D01*
X95650000Y-126390000D02*
X100790000Y-126390000D01*
X90550000Y-126370000D02*
X93090000Y-126370000D01*
X93090000Y-126370000D02*
X95630000Y-126370000D01*
X95630000Y-126370000D02*
X95650000Y-126390000D01*
X59775000Y-90315000D02*
X62045000Y-90315000D01*
X88560000Y-120090000D02*
X112100000Y-120090000D01*
X85340000Y-123310000D02*
X88560000Y-120090000D01*
X85340000Y-126510000D02*
X85340000Y-123310000D01*
X81790000Y-130060000D02*
X85340000Y-126510000D01*
X71830000Y-130060000D02*
X81790000Y-130060000D01*
X65340000Y-123570000D02*
X71830000Y-130060000D01*
X65340000Y-93610000D02*
X65340000Y-123570000D01*
X62045000Y-90315000D02*
X65340000Y-93610000D01*
X112100000Y-120090000D02*
X121530000Y-120090000D01*
X121530000Y-120090000D02*
X121760000Y-119860000D01*
X76695000Y-85435000D02*
X72285000Y-85435000D01*
X72285000Y-85435000D02*
X72280000Y-85430000D01*
X69680000Y-110590000D02*
X76450000Y-110590000D01*
X76450000Y-110590000D02*
X76695000Y-110835000D01*
D20*
G36*
X161300000Y-177290000D02*
X36720000Y-177290000D01*
X36720000Y-163970907D01*
X53895000Y-163970907D01*
X53895000Y-164029093D01*
X54008039Y-164597378D01*
X54329946Y-165079147D01*
X54811715Y-165401054D01*
X55380000Y-165514093D01*
X55948285Y-165401054D01*
X56430054Y-165079147D01*
X56650000Y-164749974D01*
X56869946Y-165079147D01*
X57351715Y-165401054D01*
X57920000Y-165514093D01*
X58488285Y-165401054D01*
X58970054Y-165079147D01*
X59190000Y-164749974D01*
X59409946Y-165079147D01*
X59891715Y-165401054D01*
X60460000Y-165514093D01*
X61028285Y-165401054D01*
X61510054Y-165079147D01*
X61730000Y-164749974D01*
X61949946Y-165079147D01*
X62431715Y-165401054D01*
X63000000Y-165514093D01*
X63568285Y-165401054D01*
X64050054Y-165079147D01*
X64270000Y-164749974D01*
X64489946Y-165079147D01*
X64971715Y-165401054D01*
X65540000Y-165514093D01*
X66108285Y-165401054D01*
X66590054Y-165079147D01*
X66810000Y-164749974D01*
X67029946Y-165079147D01*
X67511715Y-165401054D01*
X68080000Y-165514093D01*
X68648285Y-165401054D01*
X69130054Y-165079147D01*
X69157850Y-165037548D01*
X69166838Y-165085317D01*
X69305910Y-165301441D01*
X69518110Y-165446431D01*
X69770000Y-165497440D01*
X71470000Y-165497440D01*
X71705317Y-165453162D01*
X71921441Y-165314090D01*
X72066431Y-165101890D01*
X72117440Y-164850000D01*
X72117440Y-163470907D01*
X89395000Y-163470907D01*
X89395000Y-163529093D01*
X89508039Y-164097378D01*
X89829946Y-164579147D01*
X90311715Y-164901054D01*
X90880000Y-165014093D01*
X91448285Y-164901054D01*
X91930054Y-164579147D01*
X92150000Y-164249974D01*
X92369946Y-164579147D01*
X92851715Y-164901054D01*
X93420000Y-165014093D01*
X93988285Y-164901054D01*
X94470054Y-164579147D01*
X94690000Y-164249974D01*
X94909946Y-164579147D01*
X95391715Y-164901054D01*
X95960000Y-165014093D01*
X96528285Y-164901054D01*
X97010054Y-164579147D01*
X97230000Y-164249974D01*
X97449946Y-164579147D01*
X97931715Y-164901054D01*
X98500000Y-165014093D01*
X99068285Y-164901054D01*
X99550054Y-164579147D01*
X99770000Y-164249974D01*
X99989946Y-164579147D01*
X100471715Y-164901054D01*
X101040000Y-165014093D01*
X101608285Y-164901054D01*
X102090054Y-164579147D01*
X102310000Y-164249974D01*
X102529946Y-164579147D01*
X103011715Y-164901054D01*
X103580000Y-165014093D01*
X104148285Y-164901054D01*
X104630054Y-164579147D01*
X104657850Y-164537548D01*
X104666838Y-164585317D01*
X104805910Y-164801441D01*
X105018110Y-164946431D01*
X105270000Y-164997440D01*
X106970000Y-164997440D01*
X107205317Y-164953162D01*
X107421441Y-164814090D01*
X107566431Y-164601890D01*
X107617440Y-164350000D01*
X107617440Y-163470907D01*
X125395000Y-163470907D01*
X125395000Y-163529093D01*
X125508039Y-164097378D01*
X125829946Y-164579147D01*
X126311715Y-164901054D01*
X126880000Y-165014093D01*
X127448285Y-164901054D01*
X127930054Y-164579147D01*
X128150000Y-164249974D01*
X128369946Y-164579147D01*
X128851715Y-164901054D01*
X129420000Y-165014093D01*
X129988285Y-164901054D01*
X130470054Y-164579147D01*
X130690000Y-164249974D01*
X130909946Y-164579147D01*
X131391715Y-164901054D01*
X131960000Y-165014093D01*
X132528285Y-164901054D01*
X133010054Y-164579147D01*
X133230000Y-164249974D01*
X133449946Y-164579147D01*
X133931715Y-164901054D01*
X134500000Y-165014093D01*
X135068285Y-164901054D01*
X135550054Y-164579147D01*
X135770000Y-164249974D01*
X135989946Y-164579147D01*
X136471715Y-164901054D01*
X137040000Y-165014093D01*
X137608285Y-164901054D01*
X138090054Y-164579147D01*
X138310000Y-164249974D01*
X138529946Y-164579147D01*
X139011715Y-164901054D01*
X139580000Y-165014093D01*
X140148285Y-164901054D01*
X140630054Y-164579147D01*
X140657850Y-164537548D01*
X140666838Y-164585317D01*
X140805910Y-164801441D01*
X141018110Y-164946431D01*
X141270000Y-164997440D01*
X142970000Y-164997440D01*
X143205317Y-164953162D01*
X143421441Y-164814090D01*
X143566431Y-164601890D01*
X143617440Y-164350000D01*
X143617440Y-162650000D01*
X143573162Y-162414683D01*
X143434090Y-162198559D01*
X143221890Y-162053569D01*
X142970000Y-162002560D01*
X141270000Y-162002560D01*
X141034683Y-162046838D01*
X140818559Y-162185910D01*
X140673569Y-162398110D01*
X140659914Y-162465541D01*
X140630054Y-162420853D01*
X140148285Y-162098946D01*
X139580000Y-161985907D01*
X139011715Y-162098946D01*
X138529946Y-162420853D01*
X138310000Y-162750026D01*
X138090054Y-162420853D01*
X137608285Y-162098946D01*
X137040000Y-161985907D01*
X136471715Y-162098946D01*
X135989946Y-162420853D01*
X135770000Y-162750026D01*
X135550054Y-162420853D01*
X135068285Y-162098946D01*
X134500000Y-161985907D01*
X133931715Y-162098946D01*
X133449946Y-162420853D01*
X133230000Y-162750026D01*
X133010054Y-162420853D01*
X132528285Y-162098946D01*
X131960000Y-161985907D01*
X131391715Y-162098946D01*
X130909946Y-162420853D01*
X130690000Y-162750026D01*
X130470054Y-162420853D01*
X129988285Y-162098946D01*
X129420000Y-161985907D01*
X128851715Y-162098946D01*
X128369946Y-162420853D01*
X128150000Y-162750026D01*
X127930054Y-162420853D01*
X127448285Y-162098946D01*
X126880000Y-161985907D01*
X126311715Y-162098946D01*
X125829946Y-162420853D01*
X125508039Y-162902622D01*
X125395000Y-163470907D01*
X107617440Y-163470907D01*
X107617440Y-162650000D01*
X107573162Y-162414683D01*
X107434090Y-162198559D01*
X107221890Y-162053569D01*
X106970000Y-162002560D01*
X105270000Y-162002560D01*
X105034683Y-162046838D01*
X104818559Y-162185910D01*
X104673569Y-162398110D01*
X104659914Y-162465541D01*
X104630054Y-162420853D01*
X104148285Y-162098946D01*
X103580000Y-161985907D01*
X103011715Y-162098946D01*
X102529946Y-162420853D01*
X102310000Y-162750026D01*
X102090054Y-162420853D01*
X101608285Y-162098946D01*
X101040000Y-161985907D01*
X100471715Y-162098946D01*
X99989946Y-162420853D01*
X99770000Y-162750026D01*
X99550054Y-162420853D01*
X99068285Y-162098946D01*
X98500000Y-161985907D01*
X97931715Y-162098946D01*
X97449946Y-162420853D01*
X97230000Y-162750026D01*
X97010054Y-162420853D01*
X96528285Y-162098946D01*
X95960000Y-161985907D01*
X95391715Y-162098946D01*
X94909946Y-162420853D01*
X94690000Y-162750026D01*
X94470054Y-162420853D01*
X93988285Y-162098946D01*
X93420000Y-161985907D01*
X92851715Y-162098946D01*
X92369946Y-162420853D01*
X92150000Y-162750026D01*
X91930054Y-162420853D01*
X91448285Y-162098946D01*
X90880000Y-161985907D01*
X90311715Y-162098946D01*
X89829946Y-162420853D01*
X89508039Y-162902622D01*
X89395000Y-163470907D01*
X72117440Y-163470907D01*
X72117440Y-163150000D01*
X72073162Y-162914683D01*
X71934090Y-162698559D01*
X71721890Y-162553569D01*
X71470000Y-162502560D01*
X69770000Y-162502560D01*
X69534683Y-162546838D01*
X69318559Y-162685910D01*
X69173569Y-162898110D01*
X69159914Y-162965541D01*
X69130054Y-162920853D01*
X68648285Y-162598946D01*
X68080000Y-162485907D01*
X67511715Y-162598946D01*
X67029946Y-162920853D01*
X66810000Y-163250026D01*
X66590054Y-162920853D01*
X66108285Y-162598946D01*
X65540000Y-162485907D01*
X64971715Y-162598946D01*
X64489946Y-162920853D01*
X64270000Y-163250026D01*
X64050054Y-162920853D01*
X63568285Y-162598946D01*
X63000000Y-162485907D01*
X62431715Y-162598946D01*
X61949946Y-162920853D01*
X61730000Y-163250026D01*
X61510054Y-162920853D01*
X61028285Y-162598946D01*
X60460000Y-162485907D01*
X59891715Y-162598946D01*
X59409946Y-162920853D01*
X59190000Y-163250026D01*
X58970054Y-162920853D01*
X58488285Y-162598946D01*
X57920000Y-162485907D01*
X57351715Y-162598946D01*
X56869946Y-162920853D01*
X56650000Y-163250026D01*
X56430054Y-162920853D01*
X55948285Y-162598946D01*
X55380000Y-162485907D01*
X54811715Y-162598946D01*
X54329946Y-162920853D01*
X54008039Y-163402622D01*
X53895000Y-163970907D01*
X36720000Y-163970907D01*
X36720000Y-143380000D01*
X48485907Y-143380000D01*
X48598946Y-143948285D01*
X48920853Y-144430054D01*
X49250026Y-144650000D01*
X48920853Y-144869946D01*
X48598946Y-145351715D01*
X48485907Y-145920000D01*
X48598946Y-146488285D01*
X48920853Y-146970054D01*
X49250026Y-147190000D01*
X48920853Y-147409946D01*
X48598946Y-147891715D01*
X48485907Y-148460000D01*
X48598946Y-149028285D01*
X48920853Y-149510054D01*
X49250026Y-149730000D01*
X48920853Y-149949946D01*
X48598946Y-150431715D01*
X48485907Y-151000000D01*
X48598946Y-151568285D01*
X48920853Y-152050054D01*
X49250026Y-152270000D01*
X48920853Y-152489946D01*
X48598946Y-152971715D01*
X48485907Y-153540000D01*
X48598946Y-154108285D01*
X48920853Y-154590054D01*
X49250026Y-154810000D01*
X48920853Y-155029946D01*
X48598946Y-155511715D01*
X48485907Y-156080000D01*
X48598946Y-156648285D01*
X48920853Y-157130054D01*
X48962452Y-157157850D01*
X48914683Y-157166838D01*
X48698559Y-157305910D01*
X48553569Y-157518110D01*
X48502560Y-157770000D01*
X48502560Y-159470000D01*
X48546838Y-159705317D01*
X48685910Y-159921441D01*
X48898110Y-160066431D01*
X49150000Y-160117440D01*
X50850000Y-160117440D01*
X51085317Y-160073162D01*
X51301441Y-159934090D01*
X51446431Y-159721890D01*
X51497440Y-159470000D01*
X51497440Y-157770000D01*
X51453162Y-157534683D01*
X51314090Y-157318559D01*
X51101890Y-157173569D01*
X51034459Y-157159914D01*
X51079147Y-157130054D01*
X51401054Y-156648285D01*
X51514093Y-156080000D01*
X51401054Y-155511715D01*
X51079147Y-155029946D01*
X50749974Y-154810000D01*
X51079147Y-154590054D01*
X51401054Y-154108285D01*
X51514093Y-153540000D01*
X51401054Y-152971715D01*
X51079147Y-152489946D01*
X50749974Y-152270000D01*
X51079147Y-152050054D01*
X51401054Y-151568285D01*
X51514093Y-151000000D01*
X51401054Y-150431715D01*
X51079147Y-149949946D01*
X50749974Y-149730000D01*
X51079147Y-149510054D01*
X51401054Y-149028285D01*
X51514093Y-148460000D01*
X51401054Y-147891715D01*
X51135304Y-147493991D01*
X55114735Y-147493991D01*
X55347932Y-148058371D01*
X55749182Y-148460323D01*
X55349449Y-148859357D01*
X55115267Y-149423330D01*
X55114735Y-150033991D01*
X55347932Y-150598371D01*
X55749182Y-151000323D01*
X55349449Y-151399357D01*
X55115267Y-151963330D01*
X55114735Y-152573991D01*
X55347932Y-153138371D01*
X55749182Y-153540323D01*
X55349449Y-153939357D01*
X55115267Y-154503330D01*
X55114735Y-155113991D01*
X55347932Y-155678371D01*
X55779357Y-156110551D01*
X56343330Y-156344733D01*
X56953991Y-156345265D01*
X57518371Y-156112068D01*
X57920323Y-155710818D01*
X58289182Y-156080323D01*
X57889449Y-156479357D01*
X57655267Y-157043330D01*
X57654735Y-157653991D01*
X57887932Y-158218371D01*
X58319357Y-158650551D01*
X58883330Y-158884733D01*
X59493991Y-158885265D01*
X60058371Y-158652068D01*
X60460323Y-158250818D01*
X60859357Y-158650551D01*
X61423330Y-158884733D01*
X62033991Y-158885265D01*
X62598371Y-158652068D01*
X63000323Y-158250818D01*
X63399357Y-158650551D01*
X63963330Y-158884733D01*
X64573991Y-158885265D01*
X65138371Y-158652068D01*
X65540323Y-158250818D01*
X65939357Y-158650551D01*
X66503330Y-158884733D01*
X67113991Y-158885265D01*
X67678371Y-158652068D01*
X68110551Y-158220643D01*
X68344733Y-157656670D01*
X68345265Y-157046009D01*
X68112068Y-156481629D01*
X67710818Y-156079677D01*
X68080323Y-155710818D01*
X68479357Y-156110551D01*
X69043330Y-156344733D01*
X69653991Y-156345265D01*
X70218371Y-156112068D01*
X70650551Y-155680643D01*
X70884733Y-155116670D01*
X70885265Y-154506009D01*
X70652068Y-153941629D01*
X70250818Y-153539677D01*
X70650551Y-153140643D01*
X70884733Y-152576670D01*
X70885265Y-151966009D01*
X70652068Y-151401629D01*
X70250818Y-150999677D01*
X70650551Y-150600643D01*
X70884733Y-150036670D01*
X70885265Y-149426009D01*
X70652068Y-148861629D01*
X70250818Y-148459677D01*
X70650551Y-148060643D01*
X70884733Y-147496670D01*
X70885265Y-146886009D01*
X70652068Y-146321629D01*
X70251141Y-145920000D01*
X74485907Y-145920000D01*
X74598946Y-146488285D01*
X74920853Y-146970054D01*
X75250026Y-147190000D01*
X74920853Y-147409946D01*
X74598946Y-147891715D01*
X74485907Y-148460000D01*
X74598946Y-149028285D01*
X74920853Y-149510054D01*
X75250026Y-149730000D01*
X74920853Y-149949946D01*
X74598946Y-150431715D01*
X74485907Y-151000000D01*
X74598946Y-151568285D01*
X74920853Y-152050054D01*
X75250026Y-152270000D01*
X74920853Y-152489946D01*
X74598946Y-152971715D01*
X74485907Y-153540000D01*
X74598946Y-154108285D01*
X74920853Y-154590054D01*
X75250026Y-154810000D01*
X74920853Y-155029946D01*
X74598946Y-155511715D01*
X74485907Y-156080000D01*
X74598946Y-156648285D01*
X74920853Y-157130054D01*
X75250026Y-157350000D01*
X74920853Y-157569946D01*
X74598946Y-158051715D01*
X74485907Y-158620000D01*
X74598946Y-159188285D01*
X74920853Y-159670054D01*
X75402622Y-159991961D01*
X75970907Y-160105000D01*
X76029093Y-160105000D01*
X76597378Y-159991961D01*
X77079147Y-159670054D01*
X77401054Y-159188285D01*
X77514093Y-158620000D01*
X77401054Y-158051715D01*
X77079147Y-157569946D01*
X76749974Y-157350000D01*
X77079147Y-157130054D01*
X77401054Y-156648285D01*
X77514093Y-156080000D01*
X77401054Y-155511715D01*
X77079147Y-155029946D01*
X76749974Y-154810000D01*
X77079147Y-154590054D01*
X77401054Y-154108285D01*
X77514093Y-153540000D01*
X77401054Y-152971715D01*
X77079147Y-152489946D01*
X76749974Y-152270000D01*
X77079147Y-152050054D01*
X77401054Y-151568285D01*
X77514093Y-151000000D01*
X77401054Y-150431715D01*
X77079147Y-149949946D01*
X76749974Y-149730000D01*
X77079147Y-149510054D01*
X77401054Y-149028285D01*
X77514093Y-148460000D01*
X77401054Y-147891715D01*
X77079147Y-147409946D01*
X76749974Y-147190000D01*
X77079147Y-146970054D01*
X77401054Y-146488285D01*
X77514093Y-145920000D01*
X77401054Y-145351715D01*
X77079147Y-144869946D01*
X77037548Y-144842150D01*
X77085317Y-144833162D01*
X77301441Y-144694090D01*
X77446431Y-144481890D01*
X77497440Y-144230000D01*
X77497440Y-142880000D01*
X83985907Y-142880000D01*
X84098946Y-143448285D01*
X84420853Y-143930054D01*
X84750026Y-144150000D01*
X84420853Y-144369946D01*
X84098946Y-144851715D01*
X83985907Y-145420000D01*
X84098946Y-145988285D01*
X84420853Y-146470054D01*
X84750026Y-146690000D01*
X84420853Y-146909946D01*
X84098946Y-147391715D01*
X83985907Y-147960000D01*
X84098946Y-148528285D01*
X84420853Y-149010054D01*
X84750026Y-149230000D01*
X84420853Y-149449946D01*
X84098946Y-149931715D01*
X83985907Y-150500000D01*
X84098946Y-151068285D01*
X84420853Y-151550054D01*
X84750026Y-151770000D01*
X84420853Y-151989946D01*
X84098946Y-152471715D01*
X83985907Y-153040000D01*
X84098946Y-153608285D01*
X84420853Y-154090054D01*
X84750026Y-154310000D01*
X84420853Y-154529946D01*
X84098946Y-155011715D01*
X83985907Y-155580000D01*
X84098946Y-156148285D01*
X84420853Y-156630054D01*
X84462452Y-156657850D01*
X84414683Y-156666838D01*
X84198559Y-156805910D01*
X84053569Y-157018110D01*
X84002560Y-157270000D01*
X84002560Y-158970000D01*
X84046838Y-159205317D01*
X84185910Y-159421441D01*
X84398110Y-159566431D01*
X84650000Y-159617440D01*
X86350000Y-159617440D01*
X86585317Y-159573162D01*
X86801441Y-159434090D01*
X86946431Y-159221890D01*
X86997440Y-158970000D01*
X86997440Y-157270000D01*
X86953162Y-157034683D01*
X86814090Y-156818559D01*
X86601890Y-156673569D01*
X86534459Y-156659914D01*
X86579147Y-156630054D01*
X86901054Y-156148285D01*
X87014093Y-155580000D01*
X86901054Y-155011715D01*
X86579147Y-154529946D01*
X86249974Y-154310000D01*
X86579147Y-154090054D01*
X86901054Y-153608285D01*
X87014093Y-153040000D01*
X86901054Y-152471715D01*
X86579147Y-151989946D01*
X86249974Y-151770000D01*
X86579147Y-151550054D01*
X86901054Y-151068285D01*
X87014093Y-150500000D01*
X86901054Y-149931715D01*
X86579147Y-149449946D01*
X86249974Y-149230000D01*
X86579147Y-149010054D01*
X86901054Y-148528285D01*
X87014093Y-147960000D01*
X86901054Y-147391715D01*
X86635304Y-146993991D01*
X90614735Y-146993991D01*
X90847932Y-147558371D01*
X91249182Y-147960323D01*
X90849449Y-148359357D01*
X90615267Y-148923330D01*
X90614735Y-149533991D01*
X90847932Y-150098371D01*
X91249182Y-150500323D01*
X90849449Y-150899357D01*
X90615267Y-151463330D01*
X90614735Y-152073991D01*
X90847932Y-152638371D01*
X91249182Y-153040323D01*
X90849449Y-153439357D01*
X90615267Y-154003330D01*
X90614735Y-154613991D01*
X90847932Y-155178371D01*
X91279357Y-155610551D01*
X91843330Y-155844733D01*
X92453991Y-155845265D01*
X93018371Y-155612068D01*
X93420323Y-155210818D01*
X93789182Y-155580323D01*
X93389449Y-155979357D01*
X93155267Y-156543330D01*
X93154735Y-157153991D01*
X93387932Y-157718371D01*
X93819357Y-158150551D01*
X94383330Y-158384733D01*
X94993991Y-158385265D01*
X95558371Y-158152068D01*
X95960323Y-157750818D01*
X96359357Y-158150551D01*
X96923330Y-158384733D01*
X97533991Y-158385265D01*
X98098371Y-158152068D01*
X98500323Y-157750818D01*
X98899357Y-158150551D01*
X99463330Y-158384733D01*
X100073991Y-158385265D01*
X100638371Y-158152068D01*
X101040323Y-157750818D01*
X101439357Y-158150551D01*
X102003330Y-158384733D01*
X102613991Y-158385265D01*
X103178371Y-158152068D01*
X103610551Y-157720643D01*
X103844733Y-157156670D01*
X103845265Y-156546009D01*
X103612068Y-155981629D01*
X103210818Y-155579677D01*
X103580323Y-155210818D01*
X103979357Y-155610551D01*
X104543330Y-155844733D01*
X105153991Y-155845265D01*
X105718371Y-155612068D01*
X106150551Y-155180643D01*
X106384733Y-154616670D01*
X106385265Y-154006009D01*
X106152068Y-153441629D01*
X105750818Y-153039677D01*
X106150551Y-152640643D01*
X106384733Y-152076670D01*
X106385265Y-151466009D01*
X106152068Y-150901629D01*
X105750818Y-150499677D01*
X106150551Y-150100643D01*
X106384733Y-149536670D01*
X106385265Y-148926009D01*
X106152068Y-148361629D01*
X105750818Y-147959677D01*
X106150551Y-147560643D01*
X106384733Y-146996670D01*
X106385265Y-146386009D01*
X106152068Y-145821629D01*
X105751141Y-145420000D01*
X109985907Y-145420000D01*
X110098946Y-145988285D01*
X110420853Y-146470054D01*
X110750026Y-146690000D01*
X110420853Y-146909946D01*
X110098946Y-147391715D01*
X109985907Y-147960000D01*
X110098946Y-148528285D01*
X110420853Y-149010054D01*
X110750026Y-149230000D01*
X110420853Y-149449946D01*
X110098946Y-149931715D01*
X109985907Y-150500000D01*
X110098946Y-151068285D01*
X110420853Y-151550054D01*
X110750026Y-151770000D01*
X110420853Y-151989946D01*
X110098946Y-152471715D01*
X109985907Y-153040000D01*
X110098946Y-153608285D01*
X110420853Y-154090054D01*
X110750026Y-154310000D01*
X110420853Y-154529946D01*
X110098946Y-155011715D01*
X109985907Y-155580000D01*
X110098946Y-156148285D01*
X110420853Y-156630054D01*
X110750026Y-156850000D01*
X110420853Y-157069946D01*
X110098946Y-157551715D01*
X109985907Y-158120000D01*
X110098946Y-158688285D01*
X110420853Y-159170054D01*
X110902622Y-159491961D01*
X111470907Y-159605000D01*
X111529093Y-159605000D01*
X112097378Y-159491961D01*
X112579147Y-159170054D01*
X112901054Y-158688285D01*
X113014093Y-158120000D01*
X112901054Y-157551715D01*
X112579147Y-157069946D01*
X112249974Y-156850000D01*
X112579147Y-156630054D01*
X112901054Y-156148285D01*
X113014093Y-155580000D01*
X112901054Y-155011715D01*
X112579147Y-154529946D01*
X112249974Y-154310000D01*
X112579147Y-154090054D01*
X112901054Y-153608285D01*
X113014093Y-153040000D01*
X112901054Y-152471715D01*
X112579147Y-151989946D01*
X112249974Y-151770000D01*
X112579147Y-151550054D01*
X112901054Y-151068285D01*
X113014093Y-150500000D01*
X112901054Y-149931715D01*
X112579147Y-149449946D01*
X112249974Y-149230000D01*
X112579147Y-149010054D01*
X112901054Y-148528285D01*
X113014093Y-147960000D01*
X112901054Y-147391715D01*
X112579147Y-146909946D01*
X112249974Y-146690000D01*
X112579147Y-146470054D01*
X112901054Y-145988285D01*
X113014093Y-145420000D01*
X112901054Y-144851715D01*
X112579147Y-144369946D01*
X112537548Y-144342150D01*
X112585317Y-144333162D01*
X112801441Y-144194090D01*
X112946431Y-143981890D01*
X112997440Y-143730000D01*
X112997440Y-142880000D01*
X119985907Y-142880000D01*
X120098946Y-143448285D01*
X120420853Y-143930054D01*
X120750026Y-144150000D01*
X120420853Y-144369946D01*
X120098946Y-144851715D01*
X119985907Y-145420000D01*
X120098946Y-145988285D01*
X120420853Y-146470054D01*
X120750026Y-146690000D01*
X120420853Y-146909946D01*
X120098946Y-147391715D01*
X119985907Y-147960000D01*
X120098946Y-148528285D01*
X120420853Y-149010054D01*
X120750026Y-149230000D01*
X120420853Y-149449946D01*
X120098946Y-149931715D01*
X119985907Y-150500000D01*
X120098946Y-151068285D01*
X120420853Y-151550054D01*
X120750026Y-151770000D01*
X120420853Y-151989946D01*
X120098946Y-152471715D01*
X119985907Y-153040000D01*
X120098946Y-153608285D01*
X120420853Y-154090054D01*
X120750026Y-154310000D01*
X120420853Y-154529946D01*
X120098946Y-155011715D01*
X119985907Y-155580000D01*
X120098946Y-156148285D01*
X120420853Y-156630054D01*
X120462452Y-156657850D01*
X120414683Y-156666838D01*
X120198559Y-156805910D01*
X120053569Y-157018110D01*
X120002560Y-157270000D01*
X120002560Y-158970000D01*
X120046838Y-159205317D01*
X120185910Y-159421441D01*
X120398110Y-159566431D01*
X120650000Y-159617440D01*
X122350000Y-159617440D01*
X122585317Y-159573162D01*
X122801441Y-159434090D01*
X122946431Y-159221890D01*
X122997440Y-158970000D01*
X122997440Y-157270000D01*
X122953162Y-157034683D01*
X122814090Y-156818559D01*
X122601890Y-156673569D01*
X122534459Y-156659914D01*
X122579147Y-156630054D01*
X122901054Y-156148285D01*
X123014093Y-155580000D01*
X122901054Y-155011715D01*
X122579147Y-154529946D01*
X122249974Y-154310000D01*
X122579147Y-154090054D01*
X122901054Y-153608285D01*
X123014093Y-153040000D01*
X122901054Y-152471715D01*
X122579147Y-151989946D01*
X122249974Y-151770000D01*
X122579147Y-151550054D01*
X122901054Y-151068285D01*
X123014093Y-150500000D01*
X122901054Y-149931715D01*
X122579147Y-149449946D01*
X122249974Y-149230000D01*
X122579147Y-149010054D01*
X122901054Y-148528285D01*
X123014093Y-147960000D01*
X122901054Y-147391715D01*
X122635304Y-146993991D01*
X126614735Y-146993991D01*
X126847932Y-147558371D01*
X127249182Y-147960323D01*
X126849449Y-148359357D01*
X126615267Y-148923330D01*
X126614735Y-149533991D01*
X126847932Y-150098371D01*
X127249182Y-150500323D01*
X126849449Y-150899357D01*
X126615267Y-151463330D01*
X126614735Y-152073991D01*
X126847932Y-152638371D01*
X127249182Y-153040323D01*
X126849449Y-153439357D01*
X126615267Y-154003330D01*
X126614735Y-154613991D01*
X126847932Y-155178371D01*
X127279357Y-155610551D01*
X127843330Y-155844733D01*
X128453991Y-155845265D01*
X129018371Y-155612068D01*
X129420323Y-155210818D01*
X129789182Y-155580323D01*
X129389449Y-155979357D01*
X129155267Y-156543330D01*
X129154735Y-157153991D01*
X129387932Y-157718371D01*
X129819357Y-158150551D01*
X130383330Y-158384733D01*
X130993991Y-158385265D01*
X131558371Y-158152068D01*
X131960323Y-157750818D01*
X132359357Y-158150551D01*
X132923330Y-158384733D01*
X133533991Y-158385265D01*
X134098371Y-158152068D01*
X134500323Y-157750818D01*
X134899357Y-158150551D01*
X135463330Y-158384733D01*
X136073991Y-158385265D01*
X136638371Y-158152068D01*
X137040323Y-157750818D01*
X137439357Y-158150551D01*
X138003330Y-158384733D01*
X138613991Y-158385265D01*
X139178371Y-158152068D01*
X139610551Y-157720643D01*
X139844733Y-157156670D01*
X139845265Y-156546009D01*
X139612068Y-155981629D01*
X139210818Y-155579677D01*
X139580323Y-155210818D01*
X139979357Y-155610551D01*
X140543330Y-155844733D01*
X141153991Y-155845265D01*
X141718371Y-155612068D01*
X142150551Y-155180643D01*
X142384733Y-154616670D01*
X142385265Y-154006009D01*
X142152068Y-153441629D01*
X141750818Y-153039677D01*
X142150551Y-152640643D01*
X142384733Y-152076670D01*
X142385265Y-151466009D01*
X142152068Y-150901629D01*
X141750818Y-150499677D01*
X142150551Y-150100643D01*
X142384733Y-149536670D01*
X142385265Y-148926009D01*
X142152068Y-148361629D01*
X141750818Y-147959677D01*
X142150551Y-147560643D01*
X142384733Y-146996670D01*
X142385265Y-146386009D01*
X142152068Y-145821629D01*
X141751141Y-145420000D01*
X145985907Y-145420000D01*
X146098946Y-145988285D01*
X146420853Y-146470054D01*
X146750026Y-146690000D01*
X146420853Y-146909946D01*
X146098946Y-147391715D01*
X145985907Y-147960000D01*
X146098946Y-148528285D01*
X146420853Y-149010054D01*
X146750026Y-149230000D01*
X146420853Y-149449946D01*
X146098946Y-149931715D01*
X145985907Y-150500000D01*
X146098946Y-151068285D01*
X146420853Y-151550054D01*
X146750026Y-151770000D01*
X146420853Y-151989946D01*
X146098946Y-152471715D01*
X145985907Y-153040000D01*
X146098946Y-153608285D01*
X146420853Y-154090054D01*
X146750026Y-154310000D01*
X146420853Y-154529946D01*
X146098946Y-155011715D01*
X145985907Y-155580000D01*
X146098946Y-156148285D01*
X146420853Y-156630054D01*
X146750026Y-156850000D01*
X146420853Y-157069946D01*
X146098946Y-157551715D01*
X145985907Y-158120000D01*
X146098946Y-158688285D01*
X146420853Y-159170054D01*
X146902622Y-159491961D01*
X147470907Y-159605000D01*
X147529093Y-159605000D01*
X148097378Y-159491961D01*
X148579147Y-159170054D01*
X148901054Y-158688285D01*
X149014093Y-158120000D01*
X148901054Y-157551715D01*
X148579147Y-157069946D01*
X148249974Y-156850000D01*
X148579147Y-156630054D01*
X148901054Y-156148285D01*
X149014093Y-155580000D01*
X148901054Y-155011715D01*
X148579147Y-154529946D01*
X148249974Y-154310000D01*
X148579147Y-154090054D01*
X148901054Y-153608285D01*
X149014093Y-153040000D01*
X148901054Y-152471715D01*
X148579147Y-151989946D01*
X148249974Y-151770000D01*
X148579147Y-151550054D01*
X148901054Y-151068285D01*
X149014093Y-150500000D01*
X148901054Y-149931715D01*
X148579147Y-149449946D01*
X148249974Y-149230000D01*
X148579147Y-149010054D01*
X148901054Y-148528285D01*
X149014093Y-147960000D01*
X148901054Y-147391715D01*
X148579147Y-146909946D01*
X148249974Y-146690000D01*
X148579147Y-146470054D01*
X148901054Y-145988285D01*
X149014093Y-145420000D01*
X148901054Y-144851715D01*
X148579147Y-144369946D01*
X148537548Y-144342150D01*
X148585317Y-144333162D01*
X148801441Y-144194090D01*
X148946431Y-143981890D01*
X148997440Y-143730000D01*
X148997440Y-142030000D01*
X148953162Y-141794683D01*
X148814090Y-141578559D01*
X148601890Y-141433569D01*
X148350000Y-141382560D01*
X146650000Y-141382560D01*
X146414683Y-141426838D01*
X146198559Y-141565910D01*
X146053569Y-141778110D01*
X146002560Y-142030000D01*
X146002560Y-143730000D01*
X146046838Y-143965317D01*
X146185910Y-144181441D01*
X146398110Y-144326431D01*
X146465541Y-144340086D01*
X146420853Y-144369946D01*
X146098946Y-144851715D01*
X145985907Y-145420000D01*
X141751141Y-145420000D01*
X141720643Y-145389449D01*
X141156670Y-145155267D01*
X140546009Y-145154735D01*
X139981629Y-145387932D01*
X139579677Y-145789182D01*
X139210818Y-145419677D01*
X139610551Y-145020643D01*
X139844733Y-144456670D01*
X139845265Y-143846009D01*
X139612068Y-143281629D01*
X139180643Y-142849449D01*
X138616670Y-142615267D01*
X138006009Y-142614735D01*
X137441629Y-142847932D01*
X137039677Y-143249182D01*
X136640643Y-142849449D01*
X136076670Y-142615267D01*
X135466009Y-142614735D01*
X134901629Y-142847932D01*
X134499677Y-143249182D01*
X134100643Y-142849449D01*
X133536670Y-142615267D01*
X132926009Y-142614735D01*
X132361629Y-142847932D01*
X131959677Y-143249182D01*
X131560643Y-142849449D01*
X130996670Y-142615267D01*
X130386009Y-142614735D01*
X129821629Y-142847932D01*
X129389449Y-143279357D01*
X129155267Y-143843330D01*
X129154735Y-144453991D01*
X129387932Y-145018371D01*
X129789182Y-145420323D01*
X129419677Y-145789182D01*
X129020643Y-145389449D01*
X128456670Y-145155267D01*
X127846009Y-145154735D01*
X127281629Y-145387932D01*
X126849449Y-145819357D01*
X126615267Y-146383330D01*
X126614735Y-146993991D01*
X122635304Y-146993991D01*
X122579147Y-146909946D01*
X122249974Y-146690000D01*
X122579147Y-146470054D01*
X122901054Y-145988285D01*
X123014093Y-145420000D01*
X122901054Y-144851715D01*
X122579147Y-144369946D01*
X122249974Y-144150000D01*
X122579147Y-143930054D01*
X122901054Y-143448285D01*
X123014093Y-142880000D01*
X122901054Y-142311715D01*
X122579147Y-141829946D01*
X122097378Y-141508039D01*
X121529093Y-141395000D01*
X121470907Y-141395000D01*
X120902622Y-141508039D01*
X120420853Y-141829946D01*
X120098946Y-142311715D01*
X119985907Y-142880000D01*
X112997440Y-142880000D01*
X112997440Y-142030000D01*
X112953162Y-141794683D01*
X112814090Y-141578559D01*
X112601890Y-141433569D01*
X112350000Y-141382560D01*
X110650000Y-141382560D01*
X110414683Y-141426838D01*
X110198559Y-141565910D01*
X110053569Y-141778110D01*
X110002560Y-142030000D01*
X110002560Y-143730000D01*
X110046838Y-143965317D01*
X110185910Y-144181441D01*
X110398110Y-144326431D01*
X110465541Y-144340086D01*
X110420853Y-144369946D01*
X110098946Y-144851715D01*
X109985907Y-145420000D01*
X105751141Y-145420000D01*
X105720643Y-145389449D01*
X105156670Y-145155267D01*
X104546009Y-145154735D01*
X103981629Y-145387932D01*
X103579677Y-145789182D01*
X103210818Y-145419677D01*
X103610551Y-145020643D01*
X103844733Y-144456670D01*
X103845265Y-143846009D01*
X103612068Y-143281629D01*
X103180643Y-142849449D01*
X102616670Y-142615267D01*
X102006009Y-142614735D01*
X101441629Y-142847932D01*
X101039677Y-143249182D01*
X100640643Y-142849449D01*
X100076670Y-142615267D01*
X99466009Y-142614735D01*
X98901629Y-142847932D01*
X98499677Y-143249182D01*
X98100643Y-142849449D01*
X97536670Y-142615267D01*
X96926009Y-142614735D01*
X96361629Y-142847932D01*
X95959677Y-143249182D01*
X95560643Y-142849449D01*
X94996670Y-142615267D01*
X94386009Y-142614735D01*
X93821629Y-142847932D01*
X93389449Y-143279357D01*
X93155267Y-143843330D01*
X93154735Y-144453991D01*
X93387932Y-145018371D01*
X93789182Y-145420323D01*
X93419677Y-145789182D01*
X93020643Y-145389449D01*
X92456670Y-145155267D01*
X91846009Y-145154735D01*
X91281629Y-145387932D01*
X90849449Y-145819357D01*
X90615267Y-146383330D01*
X90614735Y-146993991D01*
X86635304Y-146993991D01*
X86579147Y-146909946D01*
X86249974Y-146690000D01*
X86579147Y-146470054D01*
X86901054Y-145988285D01*
X87014093Y-145420000D01*
X86901054Y-144851715D01*
X86579147Y-144369946D01*
X86249974Y-144150000D01*
X86579147Y-143930054D01*
X86901054Y-143448285D01*
X87014093Y-142880000D01*
X86901054Y-142311715D01*
X86579147Y-141829946D01*
X86097378Y-141508039D01*
X85529093Y-141395000D01*
X85470907Y-141395000D01*
X84902622Y-141508039D01*
X84420853Y-141829946D01*
X84098946Y-142311715D01*
X83985907Y-142880000D01*
X77497440Y-142880000D01*
X77497440Y-142530000D01*
X77453162Y-142294683D01*
X77314090Y-142078559D01*
X77101890Y-141933569D01*
X76850000Y-141882560D01*
X75150000Y-141882560D01*
X74914683Y-141926838D01*
X74698559Y-142065910D01*
X74553569Y-142278110D01*
X74502560Y-142530000D01*
X74502560Y-144230000D01*
X74546838Y-144465317D01*
X74685910Y-144681441D01*
X74898110Y-144826431D01*
X74965541Y-144840086D01*
X74920853Y-144869946D01*
X74598946Y-145351715D01*
X74485907Y-145920000D01*
X70251141Y-145920000D01*
X70220643Y-145889449D01*
X69656670Y-145655267D01*
X69046009Y-145654735D01*
X68481629Y-145887932D01*
X68079677Y-146289182D01*
X67710818Y-145919677D01*
X68110551Y-145520643D01*
X68344733Y-144956670D01*
X68345265Y-144346009D01*
X68112068Y-143781629D01*
X67680643Y-143349449D01*
X67116670Y-143115267D01*
X66506009Y-143114735D01*
X65941629Y-143347932D01*
X65539677Y-143749182D01*
X65140643Y-143349449D01*
X64576670Y-143115267D01*
X63966009Y-143114735D01*
X63401629Y-143347932D01*
X62999677Y-143749182D01*
X62600643Y-143349449D01*
X62036670Y-143115267D01*
X61426009Y-143114735D01*
X60861629Y-143347932D01*
X60459677Y-143749182D01*
X60060643Y-143349449D01*
X59496670Y-143115267D01*
X58886009Y-143114735D01*
X58321629Y-143347932D01*
X57889449Y-143779357D01*
X57655267Y-144343330D01*
X57654735Y-144953991D01*
X57887932Y-145518371D01*
X58289182Y-145920323D01*
X57919677Y-146289182D01*
X57520643Y-145889449D01*
X56956670Y-145655267D01*
X56346009Y-145654735D01*
X55781629Y-145887932D01*
X55349449Y-146319357D01*
X55115267Y-146883330D01*
X55114735Y-147493991D01*
X51135304Y-147493991D01*
X51079147Y-147409946D01*
X50749974Y-147190000D01*
X51079147Y-146970054D01*
X51401054Y-146488285D01*
X51514093Y-145920000D01*
X51401054Y-145351715D01*
X51079147Y-144869946D01*
X50749974Y-144650000D01*
X51079147Y-144430054D01*
X51401054Y-143948285D01*
X51514093Y-143380000D01*
X51401054Y-142811715D01*
X51079147Y-142329946D01*
X50597378Y-142008039D01*
X50029093Y-141895000D01*
X49970907Y-141895000D01*
X49402622Y-142008039D01*
X48920853Y-142329946D01*
X48598946Y-142811715D01*
X48485907Y-143380000D01*
X36720000Y-143380000D01*
X36720000Y-137150000D01*
X53882560Y-137150000D01*
X53882560Y-138850000D01*
X53926838Y-139085317D01*
X54065910Y-139301441D01*
X54278110Y-139446431D01*
X54530000Y-139497440D01*
X56230000Y-139497440D01*
X56465317Y-139453162D01*
X56681441Y-139314090D01*
X56826431Y-139101890D01*
X56840086Y-139034459D01*
X56869946Y-139079147D01*
X57351715Y-139401054D01*
X57920000Y-139514093D01*
X58488285Y-139401054D01*
X58970054Y-139079147D01*
X59190000Y-138749974D01*
X59409946Y-139079147D01*
X59891715Y-139401054D01*
X60460000Y-139514093D01*
X61028285Y-139401054D01*
X61510054Y-139079147D01*
X61730000Y-138749974D01*
X61949946Y-139079147D01*
X62431715Y-139401054D01*
X63000000Y-139514093D01*
X63568285Y-139401054D01*
X64050054Y-139079147D01*
X64270000Y-138749974D01*
X64489946Y-139079147D01*
X64971715Y-139401054D01*
X65540000Y-139514093D01*
X66108285Y-139401054D01*
X66590054Y-139079147D01*
X66810000Y-138749974D01*
X67029946Y-139079147D01*
X67511715Y-139401054D01*
X68080000Y-139514093D01*
X68648285Y-139401054D01*
X69130054Y-139079147D01*
X69350000Y-138749974D01*
X69569946Y-139079147D01*
X70051715Y-139401054D01*
X70620000Y-139514093D01*
X71188285Y-139401054D01*
X71670054Y-139079147D01*
X71991961Y-138597378D01*
X72105000Y-138029093D01*
X72105000Y-137970907D01*
X71991961Y-137402622D01*
X71670054Y-136920853D01*
X71264693Y-136650000D01*
X89382560Y-136650000D01*
X89382560Y-138350000D01*
X89426838Y-138585317D01*
X89565910Y-138801441D01*
X89778110Y-138946431D01*
X90030000Y-138997440D01*
X91730000Y-138997440D01*
X91965317Y-138953162D01*
X92181441Y-138814090D01*
X92326431Y-138601890D01*
X92340086Y-138534459D01*
X92369946Y-138579147D01*
X92851715Y-138901054D01*
X93420000Y-139014093D01*
X93988285Y-138901054D01*
X94470054Y-138579147D01*
X94690000Y-138249974D01*
X94909946Y-138579147D01*
X95391715Y-138901054D01*
X95960000Y-139014093D01*
X96528285Y-138901054D01*
X97010054Y-138579147D01*
X97230000Y-138249974D01*
X97449946Y-138579147D01*
X97931715Y-138901054D01*
X98500000Y-139014093D01*
X99068285Y-138901054D01*
X99550054Y-138579147D01*
X99770000Y-138249974D01*
X99989946Y-138579147D01*
X100471715Y-138901054D01*
X101040000Y-139014093D01*
X101608285Y-138901054D01*
X102090054Y-138579147D01*
X102310000Y-138249974D01*
X102529946Y-138579147D01*
X103011715Y-138901054D01*
X103580000Y-139014093D01*
X104148285Y-138901054D01*
X104630054Y-138579147D01*
X104850000Y-138249974D01*
X105069946Y-138579147D01*
X105551715Y-138901054D01*
X106120000Y-139014093D01*
X106688285Y-138901054D01*
X107170054Y-138579147D01*
X107491961Y-138097378D01*
X107605000Y-137529093D01*
X107605000Y-137470907D01*
X107491961Y-136902622D01*
X107323165Y-136650000D01*
X125382560Y-136650000D01*
X125382560Y-138350000D01*
X125426838Y-138585317D01*
X125565910Y-138801441D01*
X125778110Y-138946431D01*
X126030000Y-138997440D01*
X127730000Y-138997440D01*
X127965317Y-138953162D01*
X128181441Y-138814090D01*
X128326431Y-138601890D01*
X128340086Y-138534459D01*
X128369946Y-138579147D01*
X128851715Y-138901054D01*
X129420000Y-139014093D01*
X129988285Y-138901054D01*
X130470054Y-138579147D01*
X130690000Y-138249974D01*
X130909946Y-138579147D01*
X131391715Y-138901054D01*
X131960000Y-139014093D01*
X132528285Y-138901054D01*
X133010054Y-138579147D01*
X133230000Y-138249974D01*
X133449946Y-138579147D01*
X133931715Y-138901054D01*
X134500000Y-139014093D01*
X135068285Y-138901054D01*
X135550054Y-138579147D01*
X135770000Y-138249974D01*
X135989946Y-138579147D01*
X136471715Y-138901054D01*
X137040000Y-139014093D01*
X137608285Y-138901054D01*
X138090054Y-138579147D01*
X138310000Y-138249974D01*
X138529946Y-138579147D01*
X139011715Y-138901054D01*
X139580000Y-139014093D01*
X140148285Y-138901054D01*
X140630054Y-138579147D01*
X140850000Y-138249974D01*
X141069946Y-138579147D01*
X141551715Y-138901054D01*
X142120000Y-139014093D01*
X142688285Y-138901054D01*
X143170054Y-138579147D01*
X143491961Y-138097378D01*
X143605000Y-137529093D01*
X143605000Y-137470907D01*
X143491961Y-136902622D01*
X143170054Y-136420853D01*
X142688285Y-136098946D01*
X142120000Y-135985907D01*
X141551715Y-136098946D01*
X141069946Y-136420853D01*
X140850000Y-136750026D01*
X140630054Y-136420853D01*
X140148285Y-136098946D01*
X139580000Y-135985907D01*
X139011715Y-136098946D01*
X138529946Y-136420853D01*
X138310000Y-136750026D01*
X138090054Y-136420853D01*
X137608285Y-136098946D01*
X137040000Y-135985907D01*
X136471715Y-136098946D01*
X135989946Y-136420853D01*
X135770000Y-136750026D01*
X135550054Y-136420853D01*
X135068285Y-136098946D01*
X134500000Y-135985907D01*
X133931715Y-136098946D01*
X133449946Y-136420853D01*
X133230000Y-136750026D01*
X133010054Y-136420853D01*
X132528285Y-136098946D01*
X131960000Y-135985907D01*
X131391715Y-136098946D01*
X130909946Y-136420853D01*
X130690000Y-136750026D01*
X130470054Y-136420853D01*
X129988285Y-136098946D01*
X129420000Y-135985907D01*
X128851715Y-136098946D01*
X128369946Y-136420853D01*
X128342150Y-136462452D01*
X128333162Y-136414683D01*
X128194090Y-136198559D01*
X127981890Y-136053569D01*
X127730000Y-136002560D01*
X126030000Y-136002560D01*
X125794683Y-136046838D01*
X125578559Y-136185910D01*
X125433569Y-136398110D01*
X125382560Y-136650000D01*
X107323165Y-136650000D01*
X107170054Y-136420853D01*
X106688285Y-136098946D01*
X106120000Y-135985907D01*
X105551715Y-136098946D01*
X105069946Y-136420853D01*
X104850000Y-136750026D01*
X104630054Y-136420853D01*
X104148285Y-136098946D01*
X103580000Y-135985907D01*
X103011715Y-136098946D01*
X102529946Y-136420853D01*
X102310000Y-136750026D01*
X102090054Y-136420853D01*
X101608285Y-136098946D01*
X101040000Y-135985907D01*
X100471715Y-136098946D01*
X99989946Y-136420853D01*
X99770000Y-136750026D01*
X99550054Y-136420853D01*
X99068285Y-136098946D01*
X98500000Y-135985907D01*
X97931715Y-136098946D01*
X97449946Y-136420853D01*
X97230000Y-136750026D01*
X97010054Y-136420853D01*
X96528285Y-136098946D01*
X95960000Y-135985907D01*
X95391715Y-136098946D01*
X94909946Y-136420853D01*
X94690000Y-136750026D01*
X94470054Y-136420853D01*
X93988285Y-136098946D01*
X93420000Y-135985907D01*
X92851715Y-136098946D01*
X92369946Y-136420853D01*
X92342150Y-136462452D01*
X92333162Y-136414683D01*
X92194090Y-136198559D01*
X91981890Y-136053569D01*
X91730000Y-136002560D01*
X90030000Y-136002560D01*
X89794683Y-136046838D01*
X89578559Y-136185910D01*
X89433569Y-136398110D01*
X89382560Y-136650000D01*
X71264693Y-136650000D01*
X71188285Y-136598946D01*
X70620000Y-136485907D01*
X70051715Y-136598946D01*
X69569946Y-136920853D01*
X69350000Y-137250026D01*
X69130054Y-136920853D01*
X68648285Y-136598946D01*
X68080000Y-136485907D01*
X67511715Y-136598946D01*
X67029946Y-136920853D01*
X66810000Y-137250026D01*
X66590054Y-136920853D01*
X66108285Y-136598946D01*
X65540000Y-136485907D01*
X64971715Y-136598946D01*
X64489946Y-136920853D01*
X64270000Y-137250026D01*
X64050054Y-136920853D01*
X63568285Y-136598946D01*
X63000000Y-136485907D01*
X62431715Y-136598946D01*
X61949946Y-136920853D01*
X61730000Y-137250026D01*
X61510054Y-136920853D01*
X61028285Y-136598946D01*
X60460000Y-136485907D01*
X59891715Y-136598946D01*
X59409946Y-136920853D01*
X59190000Y-137250026D01*
X58970054Y-136920853D01*
X58488285Y-136598946D01*
X57920000Y-136485907D01*
X57351715Y-136598946D01*
X56869946Y-136920853D01*
X56842150Y-136962452D01*
X56833162Y-136914683D01*
X56694090Y-136698559D01*
X56481890Y-136553569D01*
X56230000Y-136502560D01*
X54530000Y-136502560D01*
X54294683Y-136546838D01*
X54078559Y-136685910D01*
X53933569Y-136898110D01*
X53882560Y-137150000D01*
X36720000Y-137150000D01*
X36720000Y-92855000D01*
X55720907Y-92855000D01*
X55833946Y-93423285D01*
X56155853Y-93905054D01*
X56485026Y-94125000D01*
X56155853Y-94344946D01*
X55833946Y-94826715D01*
X55720907Y-95395000D01*
X55833946Y-95963285D01*
X56155853Y-96445054D01*
X56485026Y-96665000D01*
X56155853Y-96884946D01*
X55833946Y-97366715D01*
X55720907Y-97935000D01*
X55833946Y-98503285D01*
X56155853Y-98985054D01*
X56485026Y-99205000D01*
X56155853Y-99424946D01*
X55833946Y-99906715D01*
X55720907Y-100475000D01*
X55833946Y-101043285D01*
X56155853Y-101525054D01*
X56637622Y-101846961D01*
X57205907Y-101960000D01*
X57264093Y-101960000D01*
X57832378Y-101846961D01*
X58314147Y-101525054D01*
X58505000Y-101239422D01*
X58695853Y-101525054D01*
X59177622Y-101846961D01*
X59745907Y-101960000D01*
X59804093Y-101960000D01*
X60372378Y-101846961D01*
X60854147Y-101525054D01*
X61176054Y-101043285D01*
X61289093Y-100475000D01*
X61176054Y-99906715D01*
X60854147Y-99424946D01*
X60524974Y-99205000D01*
X60854147Y-98985054D01*
X60961760Y-98824000D01*
X62316764Y-98824000D01*
X63261000Y-99768236D01*
X63261000Y-124110000D01*
X63328671Y-124450206D01*
X63440011Y-124616838D01*
X63521382Y-124738618D01*
X70781382Y-131998618D01*
X71069794Y-132191329D01*
X71410000Y-132259000D01*
X85550000Y-132259000D01*
X85890206Y-132191329D01*
X86178618Y-131998618D01*
X90439796Y-127737440D01*
X91530000Y-127737440D01*
X91765317Y-127693162D01*
X91981441Y-127554090D01*
X92126431Y-127341890D01*
X92140086Y-127274459D01*
X92169946Y-127319147D01*
X92651715Y-127641054D01*
X93220000Y-127754093D01*
X93788285Y-127641054D01*
X94270054Y-127319147D01*
X94310243Y-127259000D01*
X94669757Y-127259000D01*
X94709946Y-127319147D01*
X95191715Y-127641054D01*
X95760000Y-127754093D01*
X96328285Y-127641054D01*
X96810054Y-127319147D01*
X96836879Y-127279000D01*
X99558429Y-127279000D01*
X99693106Y-127604943D01*
X100152637Y-128065278D01*
X100753352Y-128314716D01*
X101403795Y-128315284D01*
X102004943Y-128066894D01*
X102239715Y-127832532D01*
X109107073Y-127832532D01*
X109205736Y-128099387D01*
X109815461Y-128325908D01*
X110465460Y-128301856D01*
X110954264Y-128099387D01*
X111052927Y-127832532D01*
X110080000Y-126859605D01*
X109107073Y-127832532D01*
X102239715Y-127832532D01*
X102465278Y-127607363D01*
X102714716Y-127006648D01*
X102715232Y-126415461D01*
X108434092Y-126415461D01*
X108458144Y-127065460D01*
X108660613Y-127554264D01*
X108927468Y-127652927D01*
X109900395Y-126680000D01*
X110259605Y-126680000D01*
X111232532Y-127652927D01*
X111499387Y-127554264D01*
X111725908Y-126944539D01*
X111701856Y-126294540D01*
X111499387Y-125805736D01*
X111232532Y-125707073D01*
X110259605Y-126680000D01*
X109900395Y-126680000D01*
X108927468Y-125707073D01*
X108660613Y-125805736D01*
X108434092Y-126415461D01*
X102715232Y-126415461D01*
X102715284Y-126356205D01*
X102466894Y-125755057D01*
X102239703Y-125527468D01*
X109107073Y-125527468D01*
X110080000Y-126500395D01*
X111052927Y-125527468D01*
X110954264Y-125260613D01*
X110844947Y-125220000D01*
X115202560Y-125220000D01*
X115202560Y-126920000D01*
X115246838Y-127155317D01*
X115385910Y-127371441D01*
X115598110Y-127516431D01*
X115850000Y-127567440D01*
X117550000Y-127567440D01*
X117785317Y-127523162D01*
X118001441Y-127384090D01*
X118146431Y-127171890D01*
X118160086Y-127104459D01*
X118189946Y-127149147D01*
X118671715Y-127471054D01*
X119240000Y-127584093D01*
X119808285Y-127471054D01*
X120290054Y-127149147D01*
X120510000Y-126819974D01*
X120729946Y-127149147D01*
X121211715Y-127471054D01*
X121780000Y-127584093D01*
X122348285Y-127471054D01*
X122830054Y-127149147D01*
X123151961Y-126667378D01*
X123265000Y-126099093D01*
X123265000Y-126040907D01*
X123151961Y-125472622D01*
X122830054Y-124990853D01*
X122348285Y-124668946D01*
X121780000Y-124555907D01*
X121211715Y-124668946D01*
X120729946Y-124990853D01*
X120510000Y-125320026D01*
X120290054Y-124990853D01*
X119808285Y-124668946D01*
X119240000Y-124555907D01*
X118671715Y-124668946D01*
X118189946Y-124990853D01*
X118162150Y-125032452D01*
X118153162Y-124984683D01*
X118014090Y-124768559D01*
X117801890Y-124623569D01*
X117550000Y-124572560D01*
X115850000Y-124572560D01*
X115614683Y-124616838D01*
X115398559Y-124755910D01*
X115253569Y-124968110D01*
X115202560Y-125220000D01*
X110844947Y-125220000D01*
X110344539Y-125034092D01*
X109694540Y-125058144D01*
X109205736Y-125260613D01*
X109107073Y-125527468D01*
X102239703Y-125527468D01*
X102007363Y-125294722D01*
X101406648Y-125045284D01*
X100756205Y-125044716D01*
X100155057Y-125293106D01*
X99946799Y-125501000D01*
X97037332Y-125501000D01*
X96810054Y-125160853D01*
X96328285Y-124838946D01*
X95760000Y-124725907D01*
X95191715Y-124838946D01*
X94709946Y-125160853D01*
X94496031Y-125481000D01*
X94483969Y-125481000D01*
X94270054Y-125160853D01*
X93788285Y-124838946D01*
X93220000Y-124725907D01*
X92651715Y-124838946D01*
X92169946Y-125160853D01*
X92142150Y-125202452D01*
X92133162Y-125154683D01*
X91994090Y-124938559D01*
X91781890Y-124793569D01*
X91530000Y-124742560D01*
X89830000Y-124742560D01*
X89594683Y-124786838D01*
X89378559Y-124925910D01*
X89233569Y-125138110D01*
X89182560Y-125390000D01*
X89182560Y-126480204D01*
X85181764Y-130481000D01*
X82626236Y-130481000D01*
X85968618Y-127138618D01*
X85977681Y-127125054D01*
X86161329Y-126850206D01*
X86229000Y-126510000D01*
X86229000Y-123678236D01*
X88928236Y-120979000D01*
X110959822Y-120979000D01*
X111286077Y-121305824D01*
X111813309Y-121524750D01*
X112384187Y-121525248D01*
X112911800Y-121307243D01*
X113240616Y-120979000D01*
X120849422Y-120979000D01*
X120946077Y-121075824D01*
X121473309Y-121294750D01*
X122044187Y-121295248D01*
X122571800Y-121077243D01*
X122975824Y-120673923D01*
X123194750Y-120146691D01*
X123195248Y-119575813D01*
X122977243Y-119048200D01*
X122573923Y-118644176D01*
X122046691Y-118425250D01*
X121475813Y-118424752D01*
X120948200Y-118642757D01*
X120544176Y-119046077D01*
X120479846Y-119201000D01*
X113240178Y-119201000D01*
X112913923Y-118874176D01*
X112386691Y-118655250D01*
X111815813Y-118654752D01*
X111288200Y-118872757D01*
X110959384Y-119201000D01*
X88560000Y-119201000D01*
X88219795Y-119268670D01*
X87931382Y-119461382D01*
X84711382Y-122681382D01*
X84518671Y-122969794D01*
X84451000Y-123310000D01*
X84451000Y-126141764D01*
X81421764Y-129171000D01*
X72198236Y-129171000D01*
X66229000Y-123201764D01*
X66229000Y-93610000D01*
X66161329Y-93269794D01*
X65968618Y-92981382D01*
X62673618Y-89686382D01*
X62385206Y-89493671D01*
X62045000Y-89426000D01*
X60961760Y-89426000D01*
X60854147Y-89264946D01*
X60372378Y-88943039D01*
X59804093Y-88830000D01*
X59745907Y-88830000D01*
X59177622Y-88943039D01*
X58695853Y-89264946D01*
X58695029Y-89266179D01*
X58688162Y-89229683D01*
X58549090Y-89013559D01*
X58336890Y-88868569D01*
X58085000Y-88817560D01*
X56385000Y-88817560D01*
X56149683Y-88861838D01*
X55933559Y-89000910D01*
X55788569Y-89213110D01*
X55737560Y-89465000D01*
X55737560Y-91165000D01*
X55781838Y-91400317D01*
X55920910Y-91616441D01*
X56133110Y-91761431D01*
X56200541Y-91775086D01*
X56155853Y-91804946D01*
X55833946Y-92286715D01*
X55720907Y-92855000D01*
X36720000Y-92855000D01*
X36720000Y-77750000D01*
X63741000Y-77750000D01*
X63741000Y-89960000D01*
X63808671Y-90300206D01*
X63869558Y-90391329D01*
X64001382Y-90588618D01*
X69636382Y-96223618D01*
X69924794Y-96416329D01*
X70265000Y-96484000D01*
X75508240Y-96484000D01*
X75615853Y-96645054D01*
X75945026Y-96865000D01*
X75615853Y-97084946D01*
X75293946Y-97566715D01*
X75180907Y-98135000D01*
X75293946Y-98703285D01*
X75615853Y-99185054D01*
X75945026Y-99405000D01*
X75615853Y-99624946D01*
X75293946Y-100106715D01*
X75180907Y-100675000D01*
X75293946Y-101243285D01*
X75615853Y-101725054D01*
X75945026Y-101945000D01*
X75615853Y-102164946D01*
X75293946Y-102646715D01*
X75180907Y-103215000D01*
X75293946Y-103783285D01*
X75615853Y-104265054D01*
X75945026Y-104485000D01*
X75615853Y-104704946D01*
X75293946Y-105186715D01*
X75180907Y-105755000D01*
X75293946Y-106323285D01*
X75615853Y-106805054D01*
X75945026Y-107025000D01*
X75615853Y-107244946D01*
X75293946Y-107726715D01*
X75180907Y-108295000D01*
X75293946Y-108863285D01*
X75615853Y-109345054D01*
X75945026Y-109565000D01*
X75741487Y-109701000D01*
X72163747Y-109701000D01*
X71915147Y-109099342D01*
X71174557Y-108357458D01*
X70433488Y-108049739D01*
X71170658Y-107745147D01*
X71912542Y-107004557D01*
X72314542Y-106036433D01*
X72315457Y-104988166D01*
X71915147Y-104019342D01*
X71174557Y-103277458D01*
X70206433Y-102875458D01*
X69158166Y-102874543D01*
X68189342Y-103274853D01*
X67447458Y-104015443D01*
X67045458Y-104983567D01*
X67044543Y-106031834D01*
X67444853Y-107000658D01*
X68185443Y-107742542D01*
X68926512Y-108050261D01*
X68189342Y-108354853D01*
X67447458Y-109095443D01*
X67045458Y-110063567D01*
X67044543Y-111111834D01*
X67444853Y-112080658D01*
X68185443Y-112822542D01*
X69153567Y-113224542D01*
X70201834Y-113225457D01*
X71170658Y-112825147D01*
X71912542Y-112084557D01*
X72163991Y-111479000D01*
X75344537Y-111479000D01*
X75615853Y-111885054D01*
X75945026Y-112105000D01*
X75615853Y-112324946D01*
X75293946Y-112806715D01*
X75180907Y-113375000D01*
X75293946Y-113943285D01*
X75615853Y-114425054D01*
X75945026Y-114645000D01*
X75615853Y-114864946D01*
X75293946Y-115346715D01*
X75180907Y-115915000D01*
X75293946Y-116483285D01*
X75615853Y-116965054D01*
X75945026Y-117185000D01*
X75615853Y-117404946D01*
X75293946Y-117886715D01*
X75180907Y-118455000D01*
X75293946Y-119023285D01*
X75615853Y-119505054D01*
X75945026Y-119725000D01*
X75615853Y-119944946D01*
X75293946Y-120426715D01*
X75180907Y-120995000D01*
X75293946Y-121563285D01*
X75615853Y-122045054D01*
X75945026Y-122265000D01*
X75615853Y-122484946D01*
X75293946Y-122966715D01*
X75180907Y-123535000D01*
X75293946Y-124103285D01*
X75615853Y-124585054D01*
X75945026Y-124805000D01*
X75615853Y-125024946D01*
X75293946Y-125506715D01*
X75180907Y-126075000D01*
X75293946Y-126643285D01*
X75615853Y-127125054D01*
X76097622Y-127446961D01*
X76665907Y-127560000D01*
X76724093Y-127560000D01*
X77292378Y-127446961D01*
X77774147Y-127125054D01*
X77965000Y-126839422D01*
X78155853Y-127125054D01*
X78637622Y-127446961D01*
X79205907Y-127560000D01*
X79264093Y-127560000D01*
X79832378Y-127446961D01*
X80314147Y-127125054D01*
X80636054Y-126643285D01*
X80749093Y-126075000D01*
X80636054Y-125506715D01*
X80314147Y-125024946D01*
X79984974Y-124805000D01*
X80314147Y-124585054D01*
X80636054Y-124103285D01*
X80749093Y-123535000D01*
X80636054Y-122966715D01*
X80314147Y-122484946D01*
X79984974Y-122265000D01*
X80314147Y-122045054D01*
X80636054Y-121563285D01*
X80749093Y-120995000D01*
X80636054Y-120426715D01*
X80314147Y-119944946D01*
X79984974Y-119725000D01*
X80314147Y-119505054D01*
X80636054Y-119023285D01*
X80749093Y-118455000D01*
X80636054Y-117886715D01*
X80314147Y-117404946D01*
X79984974Y-117185000D01*
X80314147Y-116965054D01*
X80636054Y-116483285D01*
X80749093Y-115915000D01*
X80636054Y-115346715D01*
X80314147Y-114864946D01*
X79984974Y-114645000D01*
X80314147Y-114425054D01*
X80636054Y-113943285D01*
X80674500Y-113750000D01*
X112722560Y-113750000D01*
X112722560Y-115350000D01*
X112766838Y-115585317D01*
X112905910Y-115801441D01*
X113118110Y-115946431D01*
X113370000Y-115997440D01*
X114970000Y-115997440D01*
X115205317Y-115953162D01*
X115421441Y-115814090D01*
X115566431Y-115601890D01*
X115597815Y-115446911D01*
X115695302Y-115592811D01*
X116160849Y-115903880D01*
X116710000Y-116013113D01*
X117259151Y-115903880D01*
X117724698Y-115592811D01*
X117980000Y-115210725D01*
X118235302Y-115592811D01*
X118700849Y-115903880D01*
X119250000Y-116013113D01*
X119799151Y-115903880D01*
X120264698Y-115592811D01*
X120520000Y-115210725D01*
X120775302Y-115592811D01*
X121240849Y-115903880D01*
X121790000Y-116013113D01*
X122339151Y-115903880D01*
X122804698Y-115592811D01*
X123060000Y-115210725D01*
X123315302Y-115592811D01*
X123780849Y-115903880D01*
X124330000Y-116013113D01*
X124879151Y-115903880D01*
X125344698Y-115592811D01*
X125600000Y-115210725D01*
X125855302Y-115592811D01*
X126320849Y-115903880D01*
X126870000Y-116013113D01*
X127419151Y-115903880D01*
X127884698Y-115592811D01*
X128154986Y-115188297D01*
X128257611Y-115405134D01*
X128672577Y-115781041D01*
X129060961Y-115941904D01*
X129283000Y-115819915D01*
X129283000Y-114677000D01*
X129537000Y-114677000D01*
X129537000Y-115819915D01*
X129759039Y-115941904D01*
X130147423Y-115781041D01*
X130562389Y-115405134D01*
X130801914Y-114899041D01*
X130680629Y-114677000D01*
X129537000Y-114677000D01*
X129283000Y-114677000D01*
X129263000Y-114677000D01*
X129263000Y-114423000D01*
X129283000Y-114423000D01*
X129283000Y-113280085D01*
X129537000Y-113280085D01*
X129537000Y-114423000D01*
X130680629Y-114423000D01*
X130801914Y-114200959D01*
X130562389Y-113694866D01*
X130147423Y-113318959D01*
X129759039Y-113158096D01*
X129537000Y-113280085D01*
X129283000Y-113280085D01*
X129060961Y-113158096D01*
X128672577Y-113318959D01*
X128257611Y-113694866D01*
X128154986Y-113911703D01*
X127884698Y-113507189D01*
X127419151Y-113196120D01*
X126870000Y-113086887D01*
X126320849Y-113196120D01*
X125855302Y-113507189D01*
X125600000Y-113889275D01*
X125344698Y-113507189D01*
X124879151Y-113196120D01*
X124330000Y-113086887D01*
X123780849Y-113196120D01*
X123315302Y-113507189D01*
X123060000Y-113889275D01*
X122804698Y-113507189D01*
X122339151Y-113196120D01*
X121790000Y-113086887D01*
X121240849Y-113196120D01*
X120775302Y-113507189D01*
X120520000Y-113889275D01*
X120264698Y-113507189D01*
X119799151Y-113196120D01*
X119250000Y-113086887D01*
X118700849Y-113196120D01*
X118235302Y-113507189D01*
X117980000Y-113889275D01*
X117724698Y-113507189D01*
X117259151Y-113196120D01*
X116710000Y-113086887D01*
X116160849Y-113196120D01*
X115695302Y-113507189D01*
X115598899Y-113651465D01*
X115573162Y-113514683D01*
X115434090Y-113298559D01*
X115221890Y-113153569D01*
X114970000Y-113102560D01*
X113370000Y-113102560D01*
X113134683Y-113146838D01*
X112918559Y-113285910D01*
X112773569Y-113498110D01*
X112722560Y-113750000D01*
X80674500Y-113750000D01*
X80749093Y-113375000D01*
X80636054Y-112806715D01*
X80314147Y-112324946D01*
X79984974Y-112105000D01*
X80314147Y-111885054D01*
X80636054Y-111403285D01*
X80749093Y-110835000D01*
X80636054Y-110266715D01*
X80314147Y-109784946D01*
X79984974Y-109565000D01*
X80314147Y-109345054D01*
X80636054Y-108863285D01*
X80749093Y-108295000D01*
X80636054Y-107726715D01*
X80314147Y-107244946D01*
X79984974Y-107025000D01*
X80169225Y-106901887D01*
X112735000Y-106901887D01*
X112735000Y-106958113D01*
X112844233Y-107507264D01*
X113155302Y-107972811D01*
X113620849Y-108283880D01*
X114170000Y-108393113D01*
X114719151Y-108283880D01*
X115184698Y-107972811D01*
X115440000Y-107590725D01*
X115695302Y-107972811D01*
X116160849Y-108283880D01*
X116710000Y-108393113D01*
X117259151Y-108283880D01*
X117724698Y-107972811D01*
X117980000Y-107590725D01*
X118235302Y-107972811D01*
X118700849Y-108283880D01*
X119250000Y-108393113D01*
X119799151Y-108283880D01*
X120264698Y-107972811D01*
X120520000Y-107590725D01*
X120775302Y-107972811D01*
X121240849Y-108283880D01*
X121790000Y-108393113D01*
X122339151Y-108283880D01*
X122804698Y-107972811D01*
X123060000Y-107590725D01*
X123315302Y-107972811D01*
X123780849Y-108283880D01*
X124330000Y-108393113D01*
X124879151Y-108283880D01*
X125344698Y-107972811D01*
X125600000Y-107590725D01*
X125855302Y-107972811D01*
X126320849Y-108283880D01*
X126870000Y-108393113D01*
X127419151Y-108283880D01*
X127884698Y-107972811D01*
X128140000Y-107590725D01*
X128395302Y-107972811D01*
X128860849Y-108283880D01*
X129410000Y-108393113D01*
X129959151Y-108283880D01*
X130424698Y-107972811D01*
X130735767Y-107507264D01*
X130845000Y-106958113D01*
X130845000Y-106901887D01*
X130735767Y-106352736D01*
X130424698Y-105887189D01*
X129959151Y-105576120D01*
X129410000Y-105466887D01*
X128860849Y-105576120D01*
X128395302Y-105887189D01*
X128140000Y-106269275D01*
X127884698Y-105887189D01*
X127419151Y-105576120D01*
X126870000Y-105466887D01*
X126320849Y-105576120D01*
X125855302Y-105887189D01*
X125600000Y-106269275D01*
X125344698Y-105887189D01*
X124879151Y-105576120D01*
X124330000Y-105466887D01*
X123780849Y-105576120D01*
X123315302Y-105887189D01*
X123060000Y-106269275D01*
X122804698Y-105887189D01*
X122339151Y-105576120D01*
X121790000Y-105466887D01*
X121240849Y-105576120D01*
X120775302Y-105887189D01*
X120520000Y-106269275D01*
X120264698Y-105887189D01*
X119799151Y-105576120D01*
X119250000Y-105466887D01*
X118700849Y-105576120D01*
X118235302Y-105887189D01*
X117980000Y-106269275D01*
X117724698Y-105887189D01*
X117259151Y-105576120D01*
X116710000Y-105466887D01*
X116160849Y-105576120D01*
X115695302Y-105887189D01*
X115440000Y-106269275D01*
X115184698Y-105887189D01*
X114719151Y-105576120D01*
X114170000Y-105466887D01*
X113620849Y-105576120D01*
X113155302Y-105887189D01*
X112844233Y-106352736D01*
X112735000Y-106901887D01*
X80169225Y-106901887D01*
X80314147Y-106805054D01*
X80636054Y-106323285D01*
X80749093Y-105755000D01*
X80636054Y-105186715D01*
X80314147Y-104704946D01*
X79984974Y-104485000D01*
X80314147Y-104265054D01*
X80636054Y-103783285D01*
X80749093Y-103215000D01*
X80636054Y-102646715D01*
X80314147Y-102164946D01*
X79984974Y-101945000D01*
X80314147Y-101725054D01*
X80636054Y-101243285D01*
X80749093Y-100675000D01*
X80636054Y-100106715D01*
X80314147Y-99624946D01*
X79984974Y-99405000D01*
X80314147Y-99185054D01*
X80387715Y-99074951D01*
X83586306Y-102273542D01*
X83345458Y-102853567D01*
X83344543Y-103901834D01*
X83744853Y-104870658D01*
X84485443Y-105612542D01*
X85453567Y-106014542D01*
X86501834Y-106015457D01*
X87470658Y-105615147D01*
X88212542Y-104874557D01*
X88614542Y-103906433D01*
X88615457Y-102858166D01*
X88215147Y-101889342D01*
X87474557Y-101147458D01*
X86733488Y-100839739D01*
X87470658Y-100535147D01*
X87574151Y-100431834D01*
X108004543Y-100431834D01*
X108404853Y-101400658D01*
X109145443Y-102142542D01*
X110113567Y-102544542D01*
X111161834Y-102545457D01*
X112130658Y-102145147D01*
X112872542Y-101404557D01*
X113274542Y-100436433D01*
X113275457Y-99388166D01*
X112875147Y-98419342D01*
X112134557Y-97677458D01*
X111166433Y-97275458D01*
X110118166Y-97274543D01*
X109149342Y-97674853D01*
X108407458Y-98415443D01*
X108005458Y-99383567D01*
X108004543Y-100431834D01*
X87574151Y-100431834D01*
X88212542Y-99794557D01*
X88614542Y-98826433D01*
X88615457Y-97778166D01*
X88215147Y-96809342D01*
X87474557Y-96067458D01*
X86733488Y-95759739D01*
X87470658Y-95455147D01*
X88212542Y-94714557D01*
X88614542Y-93746433D01*
X88615457Y-92698166D01*
X88215147Y-91729342D01*
X88190848Y-91705000D01*
X104097560Y-91705000D01*
X104097560Y-93305000D01*
X104141838Y-93540317D01*
X104280910Y-93756441D01*
X104493110Y-93901431D01*
X104745000Y-93952440D01*
X106345000Y-93952440D01*
X106580317Y-93908162D01*
X106796441Y-93769090D01*
X106941431Y-93556890D01*
X106972815Y-93401911D01*
X107070302Y-93547811D01*
X107535849Y-93858880D01*
X108085000Y-93968113D01*
X108634151Y-93858880D01*
X109099698Y-93547811D01*
X109355000Y-93165725D01*
X109610302Y-93547811D01*
X110075849Y-93858880D01*
X110625000Y-93968113D01*
X111174151Y-93858880D01*
X111639698Y-93547811D01*
X111895000Y-93165725D01*
X112150302Y-93547811D01*
X112615849Y-93858880D01*
X113165000Y-93968113D01*
X113714151Y-93858880D01*
X114179698Y-93547811D01*
X114435000Y-93165725D01*
X114690302Y-93547811D01*
X115155849Y-93858880D01*
X115705000Y-93968113D01*
X116254151Y-93858880D01*
X116719698Y-93547811D01*
X116989986Y-93143297D01*
X117092611Y-93360134D01*
X117507577Y-93736041D01*
X117895961Y-93896904D01*
X118118000Y-93774915D01*
X118118000Y-92632000D01*
X118372000Y-92632000D01*
X118372000Y-93774915D01*
X118594039Y-93896904D01*
X118982423Y-93736041D01*
X119397389Y-93360134D01*
X119515000Y-93111633D01*
X119632611Y-93360134D01*
X120047577Y-93736041D01*
X120435961Y-93896904D01*
X120658000Y-93774915D01*
X120658000Y-92632000D01*
X120912000Y-92632000D01*
X120912000Y-93774915D01*
X121134039Y-93896904D01*
X121522423Y-93736041D01*
X121937389Y-93360134D01*
X122055000Y-93111633D01*
X122172611Y-93360134D01*
X122587577Y-93736041D01*
X122975961Y-93896904D01*
X123198000Y-93774915D01*
X123198000Y-92632000D01*
X123452000Y-92632000D01*
X123452000Y-93774915D01*
X123674039Y-93896904D01*
X124062423Y-93736041D01*
X124477389Y-93360134D01*
X124716914Y-92854041D01*
X124595629Y-92632000D01*
X123452000Y-92632000D01*
X123198000Y-92632000D01*
X120912000Y-92632000D01*
X120658000Y-92632000D01*
X118372000Y-92632000D01*
X118118000Y-92632000D01*
X118098000Y-92632000D01*
X118098000Y-92378000D01*
X118118000Y-92378000D01*
X118118000Y-91235085D01*
X118372000Y-91235085D01*
X118372000Y-92378000D01*
X120658000Y-92378000D01*
X120658000Y-91235085D01*
X120912000Y-91235085D01*
X120912000Y-92378000D01*
X123198000Y-92378000D01*
X123198000Y-91235085D01*
X123452000Y-91235085D01*
X123452000Y-92378000D01*
X124595629Y-92378000D01*
X124716914Y-92155959D01*
X124477389Y-91649866D01*
X124062423Y-91273959D01*
X123674039Y-91113096D01*
X123452000Y-91235085D01*
X123198000Y-91235085D01*
X122975961Y-91113096D01*
X122587577Y-91273959D01*
X122172611Y-91649866D01*
X122055000Y-91898367D01*
X121937389Y-91649866D01*
X121522423Y-91273959D01*
X121134039Y-91113096D01*
X120912000Y-91235085D01*
X120658000Y-91235085D01*
X120435961Y-91113096D01*
X120047577Y-91273959D01*
X119632611Y-91649866D01*
X119515000Y-91898367D01*
X119397389Y-91649866D01*
X118982423Y-91273959D01*
X118594039Y-91113096D01*
X118372000Y-91235085D01*
X118118000Y-91235085D01*
X117895961Y-91113096D01*
X117507577Y-91273959D01*
X117092611Y-91649866D01*
X116989986Y-91866703D01*
X116719698Y-91462189D01*
X116254151Y-91151120D01*
X115705000Y-91041887D01*
X115155849Y-91151120D01*
X114690302Y-91462189D01*
X114435000Y-91844275D01*
X114179698Y-91462189D01*
X113714151Y-91151120D01*
X113165000Y-91041887D01*
X112615849Y-91151120D01*
X112150302Y-91462189D01*
X111895000Y-91844275D01*
X111639698Y-91462189D01*
X111174151Y-91151120D01*
X110625000Y-91041887D01*
X110075849Y-91151120D01*
X109610302Y-91462189D01*
X109355000Y-91844275D01*
X109099698Y-91462189D01*
X108634151Y-91151120D01*
X108085000Y-91041887D01*
X107535849Y-91151120D01*
X107070302Y-91462189D01*
X106973899Y-91606465D01*
X106948162Y-91469683D01*
X106809090Y-91253559D01*
X106596890Y-91108569D01*
X106345000Y-91057560D01*
X104745000Y-91057560D01*
X104509683Y-91101838D01*
X104293559Y-91240910D01*
X104148569Y-91453110D01*
X104097560Y-91705000D01*
X88190848Y-91705000D01*
X87474557Y-90987458D01*
X86733488Y-90679739D01*
X87470658Y-90375147D01*
X88212542Y-89634557D01*
X88614542Y-88666433D01*
X88615457Y-87618166D01*
X88215147Y-86649342D01*
X87474557Y-85907458D01*
X86733488Y-85599739D01*
X87470658Y-85295147D01*
X88212542Y-84554557D01*
X88614542Y-83586433D01*
X88615457Y-82538166D01*
X88215147Y-81569342D01*
X87474557Y-80827458D01*
X86506433Y-80425458D01*
X85458166Y-80424543D01*
X84489342Y-80824853D01*
X83747458Y-81565443D01*
X83345458Y-82533567D01*
X83344543Y-83581834D01*
X83594935Y-84187829D01*
X83236764Y-84546000D01*
X80421760Y-84546000D01*
X80314147Y-84384946D01*
X79973447Y-84157298D01*
X80116358Y-84090183D01*
X80506645Y-83661924D01*
X80676476Y-83251890D01*
X80555155Y-83022000D01*
X79362000Y-83022000D01*
X79362000Y-83042000D01*
X79108000Y-83042000D01*
X79108000Y-83022000D01*
X79088000Y-83022000D01*
X79088000Y-82768000D01*
X79108000Y-82768000D01*
X79108000Y-82748000D01*
X79362000Y-82748000D01*
X79362000Y-82768000D01*
X80555155Y-82768000D01*
X80676476Y-82538110D01*
X80506645Y-82128076D01*
X80116358Y-81699817D01*
X79973447Y-81632702D01*
X80314147Y-81405054D01*
X80636054Y-80923285D01*
X80749093Y-80355000D01*
X80636054Y-79786715D01*
X80314147Y-79304946D01*
X79984974Y-79085000D01*
X80314147Y-78865054D01*
X80421760Y-78704000D01*
X86556764Y-78704000D01*
X93361382Y-85508618D01*
X93649794Y-85701329D01*
X93990000Y-85769000D01*
X99999822Y-85769000D01*
X100326077Y-86095824D01*
X100853309Y-86314750D01*
X101424187Y-86315248D01*
X101951800Y-86097243D01*
X102355824Y-85693923D01*
X102574750Y-85166691D01*
X102575020Y-84856887D01*
X104110000Y-84856887D01*
X104110000Y-84913113D01*
X104219233Y-85462264D01*
X104530302Y-85927811D01*
X104995849Y-86238880D01*
X105545000Y-86348113D01*
X106094151Y-86238880D01*
X106559698Y-85927811D01*
X106815000Y-85545725D01*
X107070302Y-85927811D01*
X107535849Y-86238880D01*
X108085000Y-86348113D01*
X108634151Y-86238880D01*
X109099698Y-85927811D01*
X109355000Y-85545725D01*
X109610302Y-85927811D01*
X110075849Y-86238880D01*
X110625000Y-86348113D01*
X111174151Y-86238880D01*
X111639698Y-85927811D01*
X111895000Y-85545725D01*
X112150302Y-85927811D01*
X112615849Y-86238880D01*
X113165000Y-86348113D01*
X113714151Y-86238880D01*
X114179698Y-85927811D01*
X114435000Y-85545725D01*
X114690302Y-85927811D01*
X115155849Y-86238880D01*
X115705000Y-86348113D01*
X116254151Y-86238880D01*
X116719698Y-85927811D01*
X116975000Y-85545725D01*
X117230302Y-85927811D01*
X117695849Y-86238880D01*
X118245000Y-86348113D01*
X118794151Y-86238880D01*
X119259698Y-85927811D01*
X119515000Y-85545725D01*
X119770302Y-85927811D01*
X120235849Y-86238880D01*
X120785000Y-86348113D01*
X121334151Y-86238880D01*
X121799698Y-85927811D01*
X122069986Y-85523297D01*
X122172611Y-85740134D01*
X122587577Y-86116041D01*
X122975961Y-86276904D01*
X123198000Y-86154915D01*
X123198000Y-85012000D01*
X123452000Y-85012000D01*
X123452000Y-86154915D01*
X123674039Y-86276904D01*
X124062423Y-86116041D01*
X124477389Y-85740134D01*
X124716914Y-85234041D01*
X124595629Y-85012000D01*
X123452000Y-85012000D01*
X123198000Y-85012000D01*
X123178000Y-85012000D01*
X123178000Y-84758000D01*
X123198000Y-84758000D01*
X123198000Y-83615085D01*
X123452000Y-83615085D01*
X123452000Y-84758000D01*
X124595629Y-84758000D01*
X124716914Y-84535959D01*
X124477389Y-84029866D01*
X124062423Y-83653959D01*
X123674039Y-83493096D01*
X123452000Y-83615085D01*
X123198000Y-83615085D01*
X122975961Y-83493096D01*
X122587577Y-83653959D01*
X122172611Y-84029866D01*
X122069986Y-84246703D01*
X121799698Y-83842189D01*
X121334151Y-83531120D01*
X120785000Y-83421887D01*
X120235849Y-83531120D01*
X119770302Y-83842189D01*
X119515000Y-84224275D01*
X119259698Y-83842189D01*
X118794151Y-83531120D01*
X118245000Y-83421887D01*
X117695849Y-83531120D01*
X117230302Y-83842189D01*
X116975000Y-84224275D01*
X116719698Y-83842189D01*
X116254151Y-83531120D01*
X115705000Y-83421887D01*
X115155849Y-83531120D01*
X114690302Y-83842189D01*
X114435000Y-84224275D01*
X114179698Y-83842189D01*
X113714151Y-83531120D01*
X113165000Y-83421887D01*
X112615849Y-83531120D01*
X112150302Y-83842189D01*
X111895000Y-84224275D01*
X111639698Y-83842189D01*
X111174151Y-83531120D01*
X110625000Y-83421887D01*
X110075849Y-83531120D01*
X109610302Y-83842189D01*
X109355000Y-84224275D01*
X109099698Y-83842189D01*
X108634151Y-83531120D01*
X108085000Y-83421887D01*
X107535849Y-83531120D01*
X107070302Y-83842189D01*
X106815000Y-84224275D01*
X106559698Y-83842189D01*
X106094151Y-83531120D01*
X105545000Y-83421887D01*
X104995849Y-83531120D01*
X104530302Y-83842189D01*
X104219233Y-84307736D01*
X104110000Y-84856887D01*
X102575020Y-84856887D01*
X102575248Y-84595813D01*
X102357243Y-84068200D01*
X101953923Y-83664176D01*
X101426691Y-83445250D01*
X100855813Y-83444752D01*
X100328200Y-83662757D01*
X99999384Y-83991000D01*
X94358236Y-83991000D01*
X87553618Y-77186382D01*
X87265206Y-76993671D01*
X86925000Y-76926000D01*
X80421760Y-76926000D01*
X80323538Y-76779000D01*
X89661764Y-76779000D01*
X93955155Y-81072391D01*
X93954752Y-81534187D01*
X94172757Y-82061800D01*
X94576077Y-82465824D01*
X95103309Y-82684750D01*
X95674187Y-82685248D01*
X96201800Y-82467243D01*
X96605824Y-82063923D01*
X96824750Y-81536691D01*
X96825248Y-80965813D01*
X96607243Y-80438200D01*
X96203923Y-80034176D01*
X95676691Y-79815250D01*
X95212081Y-79814845D01*
X94219070Y-78821834D01*
X100884543Y-78821834D01*
X101284853Y-79790658D01*
X102025443Y-80532542D01*
X102993567Y-80934542D01*
X104041834Y-80935457D01*
X105010658Y-80535147D01*
X105752542Y-79794557D01*
X106060261Y-79053488D01*
X106364853Y-79790658D01*
X107105443Y-80532542D01*
X108073567Y-80934542D01*
X109121834Y-80935457D01*
X110090658Y-80535147D01*
X110832542Y-79794557D01*
X111140261Y-79053488D01*
X111444853Y-79790658D01*
X112185443Y-80532542D01*
X113153567Y-80934542D01*
X114201834Y-80935457D01*
X115170658Y-80535147D01*
X115912542Y-79794557D01*
X116314542Y-78826433D01*
X116315457Y-77778166D01*
X115915147Y-76809342D01*
X115174557Y-76067458D01*
X114206433Y-75665458D01*
X113158166Y-75664543D01*
X112189342Y-76064853D01*
X111447458Y-76805443D01*
X111139739Y-77546512D01*
X110835147Y-76809342D01*
X110094557Y-76067458D01*
X109126433Y-75665458D01*
X108078166Y-75664543D01*
X107109342Y-76064853D01*
X106367458Y-76805443D01*
X106059739Y-77546512D01*
X105755147Y-76809342D01*
X105014557Y-76067458D01*
X104046433Y-75665458D01*
X102998166Y-75664543D01*
X102029342Y-76064853D01*
X101287458Y-76805443D01*
X100885458Y-77773567D01*
X100884543Y-78821834D01*
X94219070Y-78821834D01*
X90658618Y-75261382D01*
X90370206Y-75068671D01*
X90170766Y-75029000D01*
X114249822Y-75029000D01*
X114576077Y-75355824D01*
X115103309Y-75574750D01*
X115674187Y-75575248D01*
X116201800Y-75357243D01*
X116605824Y-74953923D01*
X116824750Y-74426691D01*
X116825248Y-73855813D01*
X116607243Y-73328200D01*
X116203923Y-72924176D01*
X115676691Y-72705250D01*
X115105813Y-72704752D01*
X114578200Y-72922757D01*
X114249384Y-73251000D01*
X110626236Y-73251000D01*
X111238236Y-72639000D01*
X117371764Y-72639000D01*
X119375155Y-74642391D01*
X119374752Y-75104187D01*
X119592757Y-75631800D01*
X119996077Y-76035824D01*
X120523309Y-76254750D01*
X121094187Y-76255248D01*
X121621800Y-76037243D01*
X122025824Y-75633923D01*
X122244750Y-75106691D01*
X122245248Y-74535813D01*
X122073912Y-74121148D01*
X126301000Y-78348236D01*
X126301000Y-92539726D01*
X126291000Y-92590000D01*
X126291000Y-94691764D01*
X122771764Y-98211000D01*
X121000178Y-98211000D01*
X120673923Y-97884176D01*
X120146691Y-97665250D01*
X119575813Y-97664752D01*
X119048200Y-97882757D01*
X118644176Y-98286077D01*
X118425250Y-98813309D01*
X118424752Y-99384187D01*
X118642757Y-99911800D01*
X119046077Y-100315824D01*
X119573309Y-100534750D01*
X120144187Y-100535248D01*
X120671800Y-100317243D01*
X121000616Y-99989000D01*
X123140000Y-99989000D01*
X123480206Y-99921329D01*
X123768618Y-99728618D01*
X127808618Y-95688618D01*
X127824704Y-95664543D01*
X128001329Y-95400206D01*
X128069000Y-95060000D01*
X128069000Y-92630274D01*
X128079000Y-92580000D01*
X128079000Y-78346236D01*
X134561000Y-84828236D01*
X134561000Y-115761764D01*
X132761764Y-117561000D01*
X130070178Y-117561000D01*
X129743923Y-117234176D01*
X129216691Y-117015250D01*
X128645813Y-117014752D01*
X128118200Y-117232757D01*
X127714176Y-117636077D01*
X127495250Y-118163309D01*
X127494752Y-118734187D01*
X127712757Y-119261800D01*
X128116077Y-119665824D01*
X128643309Y-119884750D01*
X129214187Y-119885248D01*
X129741800Y-119667243D01*
X130070616Y-119339000D01*
X132773764Y-119339000D01*
X131121764Y-120991000D01*
X127560178Y-120991000D01*
X127233923Y-120664176D01*
X126706691Y-120445250D01*
X126135813Y-120444752D01*
X125608200Y-120662757D01*
X125204176Y-121066077D01*
X124985250Y-121593309D01*
X124984752Y-122164187D01*
X125202757Y-122691800D01*
X125606077Y-123095824D01*
X126133309Y-123314750D01*
X126704187Y-123315248D01*
X127231800Y-123097243D01*
X127560616Y-122769000D01*
X131490000Y-122769000D01*
X131830206Y-122701329D01*
X132118618Y-122508618D01*
X137538618Y-117088618D01*
X137731330Y-116800205D01*
X137799000Y-116460000D01*
X137799000Y-84060000D01*
X137793006Y-84029866D01*
X137731330Y-83719795D01*
X137538618Y-83431382D01*
X121488618Y-67381382D01*
X121200206Y-67188671D01*
X120860000Y-67121000D01*
X74380000Y-67121000D01*
X74039794Y-67188671D01*
X73751382Y-67381382D01*
X68431519Y-72701245D01*
X68401382Y-72721382D01*
X64001382Y-77121382D01*
X63808671Y-77409794D01*
X63741000Y-77750000D01*
X36720000Y-77750000D01*
X36720000Y-54710000D01*
X161300000Y-54710000D01*
X161300000Y-177290000D01*
X161300000Y-177290000D01*
G37*
X161300000Y-177290000D02*
X36720000Y-177290000D01*
X36720000Y-163970907D01*
X53895000Y-163970907D01*
X53895000Y-164029093D01*
X54008039Y-164597378D01*
X54329946Y-165079147D01*
X54811715Y-165401054D01*
X55380000Y-165514093D01*
X55948285Y-165401054D01*
X56430054Y-165079147D01*
X56650000Y-164749974D01*
X56869946Y-165079147D01*
X57351715Y-165401054D01*
X57920000Y-165514093D01*
X58488285Y-165401054D01*
X58970054Y-165079147D01*
X59190000Y-164749974D01*
X59409946Y-165079147D01*
X59891715Y-165401054D01*
X60460000Y-165514093D01*
X61028285Y-165401054D01*
X61510054Y-165079147D01*
X61730000Y-164749974D01*
X61949946Y-165079147D01*
X62431715Y-165401054D01*
X63000000Y-165514093D01*
X63568285Y-165401054D01*
X64050054Y-165079147D01*
X64270000Y-164749974D01*
X64489946Y-165079147D01*
X64971715Y-165401054D01*
X65540000Y-165514093D01*
X66108285Y-165401054D01*
X66590054Y-165079147D01*
X66810000Y-164749974D01*
X67029946Y-165079147D01*
X67511715Y-165401054D01*
X68080000Y-165514093D01*
X68648285Y-165401054D01*
X69130054Y-165079147D01*
X69157850Y-165037548D01*
X69166838Y-165085317D01*
X69305910Y-165301441D01*
X69518110Y-165446431D01*
X69770000Y-165497440D01*
X71470000Y-165497440D01*
X71705317Y-165453162D01*
X71921441Y-165314090D01*
X72066431Y-165101890D01*
X72117440Y-164850000D01*
X72117440Y-163470907D01*
X89395000Y-163470907D01*
X89395000Y-163529093D01*
X89508039Y-164097378D01*
X89829946Y-164579147D01*
X90311715Y-164901054D01*
X90880000Y-165014093D01*
X91448285Y-164901054D01*
X91930054Y-164579147D01*
X92150000Y-164249974D01*
X92369946Y-164579147D01*
X92851715Y-164901054D01*
X93420000Y-165014093D01*
X93988285Y-164901054D01*
X94470054Y-164579147D01*
X94690000Y-164249974D01*
X94909946Y-164579147D01*
X95391715Y-164901054D01*
X95960000Y-165014093D01*
X96528285Y-164901054D01*
X97010054Y-164579147D01*
X97230000Y-164249974D01*
X97449946Y-164579147D01*
X97931715Y-164901054D01*
X98500000Y-165014093D01*
X99068285Y-164901054D01*
X99550054Y-164579147D01*
X99770000Y-164249974D01*
X99989946Y-164579147D01*
X100471715Y-164901054D01*
X101040000Y-165014093D01*
X101608285Y-164901054D01*
X102090054Y-164579147D01*
X102310000Y-164249974D01*
X102529946Y-164579147D01*
X103011715Y-164901054D01*
X103580000Y-165014093D01*
X104148285Y-164901054D01*
X104630054Y-164579147D01*
X104657850Y-164537548D01*
X104666838Y-164585317D01*
X104805910Y-164801441D01*
X105018110Y-164946431D01*
X105270000Y-164997440D01*
X106970000Y-164997440D01*
X107205317Y-164953162D01*
X107421441Y-164814090D01*
X107566431Y-164601890D01*
X107617440Y-164350000D01*
X107617440Y-163470907D01*
X125395000Y-163470907D01*
X125395000Y-163529093D01*
X125508039Y-164097378D01*
X125829946Y-164579147D01*
X126311715Y-164901054D01*
X126880000Y-165014093D01*
X127448285Y-164901054D01*
X127930054Y-164579147D01*
X128150000Y-164249974D01*
X128369946Y-164579147D01*
X128851715Y-164901054D01*
X129420000Y-165014093D01*
X129988285Y-164901054D01*
X130470054Y-164579147D01*
X130690000Y-164249974D01*
X130909946Y-164579147D01*
X131391715Y-164901054D01*
X131960000Y-165014093D01*
X132528285Y-164901054D01*
X133010054Y-164579147D01*
X133230000Y-164249974D01*
X133449946Y-164579147D01*
X133931715Y-164901054D01*
X134500000Y-165014093D01*
X135068285Y-164901054D01*
X135550054Y-164579147D01*
X135770000Y-164249974D01*
X135989946Y-164579147D01*
X136471715Y-164901054D01*
X137040000Y-165014093D01*
X137608285Y-164901054D01*
X138090054Y-164579147D01*
X138310000Y-164249974D01*
X138529946Y-164579147D01*
X139011715Y-164901054D01*
X139580000Y-165014093D01*
X140148285Y-164901054D01*
X140630054Y-164579147D01*
X140657850Y-164537548D01*
X140666838Y-164585317D01*
X140805910Y-164801441D01*
X141018110Y-164946431D01*
X141270000Y-164997440D01*
X142970000Y-164997440D01*
X143205317Y-164953162D01*
X143421441Y-164814090D01*
X143566431Y-164601890D01*
X143617440Y-164350000D01*
X143617440Y-162650000D01*
X143573162Y-162414683D01*
X143434090Y-162198559D01*
X143221890Y-162053569D01*
X142970000Y-162002560D01*
X141270000Y-162002560D01*
X141034683Y-162046838D01*
X140818559Y-162185910D01*
X140673569Y-162398110D01*
X140659914Y-162465541D01*
X140630054Y-162420853D01*
X140148285Y-162098946D01*
X139580000Y-161985907D01*
X139011715Y-162098946D01*
X138529946Y-162420853D01*
X138310000Y-162750026D01*
X138090054Y-162420853D01*
X137608285Y-162098946D01*
X137040000Y-161985907D01*
X136471715Y-162098946D01*
X135989946Y-162420853D01*
X135770000Y-162750026D01*
X135550054Y-162420853D01*
X135068285Y-162098946D01*
X134500000Y-161985907D01*
X133931715Y-162098946D01*
X133449946Y-162420853D01*
X133230000Y-162750026D01*
X133010054Y-162420853D01*
X132528285Y-162098946D01*
X131960000Y-161985907D01*
X131391715Y-162098946D01*
X130909946Y-162420853D01*
X130690000Y-162750026D01*
X130470054Y-162420853D01*
X129988285Y-162098946D01*
X129420000Y-161985907D01*
X128851715Y-162098946D01*
X128369946Y-162420853D01*
X128150000Y-162750026D01*
X127930054Y-162420853D01*
X127448285Y-162098946D01*
X126880000Y-161985907D01*
X126311715Y-162098946D01*
X125829946Y-162420853D01*
X125508039Y-162902622D01*
X125395000Y-163470907D01*
X107617440Y-163470907D01*
X107617440Y-162650000D01*
X107573162Y-162414683D01*
X107434090Y-162198559D01*
X107221890Y-162053569D01*
X106970000Y-162002560D01*
X105270000Y-162002560D01*
X105034683Y-162046838D01*
X104818559Y-162185910D01*
X104673569Y-162398110D01*
X104659914Y-162465541D01*
X104630054Y-162420853D01*
X104148285Y-162098946D01*
X103580000Y-161985907D01*
X103011715Y-162098946D01*
X102529946Y-162420853D01*
X102310000Y-162750026D01*
X102090054Y-162420853D01*
X101608285Y-162098946D01*
X101040000Y-161985907D01*
X100471715Y-162098946D01*
X99989946Y-162420853D01*
X99770000Y-162750026D01*
X99550054Y-162420853D01*
X99068285Y-162098946D01*
X98500000Y-161985907D01*
X97931715Y-162098946D01*
X97449946Y-162420853D01*
X97230000Y-162750026D01*
X97010054Y-162420853D01*
X96528285Y-162098946D01*
X95960000Y-161985907D01*
X95391715Y-162098946D01*
X94909946Y-162420853D01*
X94690000Y-162750026D01*
X94470054Y-162420853D01*
X93988285Y-162098946D01*
X93420000Y-161985907D01*
X92851715Y-162098946D01*
X92369946Y-162420853D01*
X92150000Y-162750026D01*
X91930054Y-162420853D01*
X91448285Y-162098946D01*
X90880000Y-161985907D01*
X90311715Y-162098946D01*
X89829946Y-162420853D01*
X89508039Y-162902622D01*
X89395000Y-163470907D01*
X72117440Y-163470907D01*
X72117440Y-163150000D01*
X72073162Y-162914683D01*
X71934090Y-162698559D01*
X71721890Y-162553569D01*
X71470000Y-162502560D01*
X69770000Y-162502560D01*
X69534683Y-162546838D01*
X69318559Y-162685910D01*
X69173569Y-162898110D01*
X69159914Y-162965541D01*
X69130054Y-162920853D01*
X68648285Y-162598946D01*
X68080000Y-162485907D01*
X67511715Y-162598946D01*
X67029946Y-162920853D01*
X66810000Y-163250026D01*
X66590054Y-162920853D01*
X66108285Y-162598946D01*
X65540000Y-162485907D01*
X64971715Y-162598946D01*
X64489946Y-162920853D01*
X64270000Y-163250026D01*
X64050054Y-162920853D01*
X63568285Y-162598946D01*
X63000000Y-162485907D01*
X62431715Y-162598946D01*
X61949946Y-162920853D01*
X61730000Y-163250026D01*
X61510054Y-162920853D01*
X61028285Y-162598946D01*
X60460000Y-162485907D01*
X59891715Y-162598946D01*
X59409946Y-162920853D01*
X59190000Y-163250026D01*
X58970054Y-162920853D01*
X58488285Y-162598946D01*
X57920000Y-162485907D01*
X57351715Y-162598946D01*
X56869946Y-162920853D01*
X56650000Y-163250026D01*
X56430054Y-162920853D01*
X55948285Y-162598946D01*
X55380000Y-162485907D01*
X54811715Y-162598946D01*
X54329946Y-162920853D01*
X54008039Y-163402622D01*
X53895000Y-163970907D01*
X36720000Y-163970907D01*
X36720000Y-143380000D01*
X48485907Y-143380000D01*
X48598946Y-143948285D01*
X48920853Y-144430054D01*
X49250026Y-144650000D01*
X48920853Y-144869946D01*
X48598946Y-145351715D01*
X48485907Y-145920000D01*
X48598946Y-146488285D01*
X48920853Y-146970054D01*
X49250026Y-147190000D01*
X48920853Y-147409946D01*
X48598946Y-147891715D01*
X48485907Y-148460000D01*
X48598946Y-149028285D01*
X48920853Y-149510054D01*
X49250026Y-149730000D01*
X48920853Y-149949946D01*
X48598946Y-150431715D01*
X48485907Y-151000000D01*
X48598946Y-151568285D01*
X48920853Y-152050054D01*
X49250026Y-152270000D01*
X48920853Y-152489946D01*
X48598946Y-152971715D01*
X48485907Y-153540000D01*
X48598946Y-154108285D01*
X48920853Y-154590054D01*
X49250026Y-154810000D01*
X48920853Y-155029946D01*
X48598946Y-155511715D01*
X48485907Y-156080000D01*
X48598946Y-156648285D01*
X48920853Y-157130054D01*
X48962452Y-157157850D01*
X48914683Y-157166838D01*
X48698559Y-157305910D01*
X48553569Y-157518110D01*
X48502560Y-157770000D01*
X48502560Y-159470000D01*
X48546838Y-159705317D01*
X48685910Y-159921441D01*
X48898110Y-160066431D01*
X49150000Y-160117440D01*
X50850000Y-160117440D01*
X51085317Y-160073162D01*
X51301441Y-159934090D01*
X51446431Y-159721890D01*
X51497440Y-159470000D01*
X51497440Y-157770000D01*
X51453162Y-157534683D01*
X51314090Y-157318559D01*
X51101890Y-157173569D01*
X51034459Y-157159914D01*
X51079147Y-157130054D01*
X51401054Y-156648285D01*
X51514093Y-156080000D01*
X51401054Y-155511715D01*
X51079147Y-155029946D01*
X50749974Y-154810000D01*
X51079147Y-154590054D01*
X51401054Y-154108285D01*
X51514093Y-153540000D01*
X51401054Y-152971715D01*
X51079147Y-152489946D01*
X50749974Y-152270000D01*
X51079147Y-152050054D01*
X51401054Y-151568285D01*
X51514093Y-151000000D01*
X51401054Y-150431715D01*
X51079147Y-149949946D01*
X50749974Y-149730000D01*
X51079147Y-149510054D01*
X51401054Y-149028285D01*
X51514093Y-148460000D01*
X51401054Y-147891715D01*
X51135304Y-147493991D01*
X55114735Y-147493991D01*
X55347932Y-148058371D01*
X55749182Y-148460323D01*
X55349449Y-148859357D01*
X55115267Y-149423330D01*
X55114735Y-150033991D01*
X55347932Y-150598371D01*
X55749182Y-151000323D01*
X55349449Y-151399357D01*
X55115267Y-151963330D01*
X55114735Y-152573991D01*
X55347932Y-153138371D01*
X55749182Y-153540323D01*
X55349449Y-153939357D01*
X55115267Y-154503330D01*
X55114735Y-155113991D01*
X55347932Y-155678371D01*
X55779357Y-156110551D01*
X56343330Y-156344733D01*
X56953991Y-156345265D01*
X57518371Y-156112068D01*
X57920323Y-155710818D01*
X58289182Y-156080323D01*
X57889449Y-156479357D01*
X57655267Y-157043330D01*
X57654735Y-157653991D01*
X57887932Y-158218371D01*
X58319357Y-158650551D01*
X58883330Y-158884733D01*
X59493991Y-158885265D01*
X60058371Y-158652068D01*
X60460323Y-158250818D01*
X60859357Y-158650551D01*
X61423330Y-158884733D01*
X62033991Y-158885265D01*
X62598371Y-158652068D01*
X63000323Y-158250818D01*
X63399357Y-158650551D01*
X63963330Y-158884733D01*
X64573991Y-158885265D01*
X65138371Y-158652068D01*
X65540323Y-158250818D01*
X65939357Y-158650551D01*
X66503330Y-158884733D01*
X67113991Y-158885265D01*
X67678371Y-158652068D01*
X68110551Y-158220643D01*
X68344733Y-157656670D01*
X68345265Y-157046009D01*
X68112068Y-156481629D01*
X67710818Y-156079677D01*
X68080323Y-155710818D01*
X68479357Y-156110551D01*
X69043330Y-156344733D01*
X69653991Y-156345265D01*
X70218371Y-156112068D01*
X70650551Y-155680643D01*
X70884733Y-155116670D01*
X70885265Y-154506009D01*
X70652068Y-153941629D01*
X70250818Y-153539677D01*
X70650551Y-153140643D01*
X70884733Y-152576670D01*
X70885265Y-151966009D01*
X70652068Y-151401629D01*
X70250818Y-150999677D01*
X70650551Y-150600643D01*
X70884733Y-150036670D01*
X70885265Y-149426009D01*
X70652068Y-148861629D01*
X70250818Y-148459677D01*
X70650551Y-148060643D01*
X70884733Y-147496670D01*
X70885265Y-146886009D01*
X70652068Y-146321629D01*
X70251141Y-145920000D01*
X74485907Y-145920000D01*
X74598946Y-146488285D01*
X74920853Y-146970054D01*
X75250026Y-147190000D01*
X74920853Y-147409946D01*
X74598946Y-147891715D01*
X74485907Y-148460000D01*
X74598946Y-149028285D01*
X74920853Y-149510054D01*
X75250026Y-149730000D01*
X74920853Y-149949946D01*
X74598946Y-150431715D01*
X74485907Y-151000000D01*
X74598946Y-151568285D01*
X74920853Y-152050054D01*
X75250026Y-152270000D01*
X74920853Y-152489946D01*
X74598946Y-152971715D01*
X74485907Y-153540000D01*
X74598946Y-154108285D01*
X74920853Y-154590054D01*
X75250026Y-154810000D01*
X74920853Y-155029946D01*
X74598946Y-155511715D01*
X74485907Y-156080000D01*
X74598946Y-156648285D01*
X74920853Y-157130054D01*
X75250026Y-157350000D01*
X74920853Y-157569946D01*
X74598946Y-158051715D01*
X74485907Y-158620000D01*
X74598946Y-159188285D01*
X74920853Y-159670054D01*
X75402622Y-159991961D01*
X75970907Y-160105000D01*
X76029093Y-160105000D01*
X76597378Y-159991961D01*
X77079147Y-159670054D01*
X77401054Y-159188285D01*
X77514093Y-158620000D01*
X77401054Y-158051715D01*
X77079147Y-157569946D01*
X76749974Y-157350000D01*
X77079147Y-157130054D01*
X77401054Y-156648285D01*
X77514093Y-156080000D01*
X77401054Y-155511715D01*
X77079147Y-155029946D01*
X76749974Y-154810000D01*
X77079147Y-154590054D01*
X77401054Y-154108285D01*
X77514093Y-153540000D01*
X77401054Y-152971715D01*
X77079147Y-152489946D01*
X76749974Y-152270000D01*
X77079147Y-152050054D01*
X77401054Y-151568285D01*
X77514093Y-151000000D01*
X77401054Y-150431715D01*
X77079147Y-149949946D01*
X76749974Y-149730000D01*
X77079147Y-149510054D01*
X77401054Y-149028285D01*
X77514093Y-148460000D01*
X77401054Y-147891715D01*
X77079147Y-147409946D01*
X76749974Y-147190000D01*
X77079147Y-146970054D01*
X77401054Y-146488285D01*
X77514093Y-145920000D01*
X77401054Y-145351715D01*
X77079147Y-144869946D01*
X77037548Y-144842150D01*
X77085317Y-144833162D01*
X77301441Y-144694090D01*
X77446431Y-144481890D01*
X77497440Y-144230000D01*
X77497440Y-142880000D01*
X83985907Y-142880000D01*
X84098946Y-143448285D01*
X84420853Y-143930054D01*
X84750026Y-144150000D01*
X84420853Y-144369946D01*
X84098946Y-144851715D01*
X83985907Y-145420000D01*
X84098946Y-145988285D01*
X84420853Y-146470054D01*
X84750026Y-146690000D01*
X84420853Y-146909946D01*
X84098946Y-147391715D01*
X83985907Y-147960000D01*
X84098946Y-148528285D01*
X84420853Y-149010054D01*
X84750026Y-149230000D01*
X84420853Y-149449946D01*
X84098946Y-149931715D01*
X83985907Y-150500000D01*
X84098946Y-151068285D01*
X84420853Y-151550054D01*
X84750026Y-151770000D01*
X84420853Y-151989946D01*
X84098946Y-152471715D01*
X83985907Y-153040000D01*
X84098946Y-153608285D01*
X84420853Y-154090054D01*
X84750026Y-154310000D01*
X84420853Y-154529946D01*
X84098946Y-155011715D01*
X83985907Y-155580000D01*
X84098946Y-156148285D01*
X84420853Y-156630054D01*
X84462452Y-156657850D01*
X84414683Y-156666838D01*
X84198559Y-156805910D01*
X84053569Y-157018110D01*
X84002560Y-157270000D01*
X84002560Y-158970000D01*
X84046838Y-159205317D01*
X84185910Y-159421441D01*
X84398110Y-159566431D01*
X84650000Y-159617440D01*
X86350000Y-159617440D01*
X86585317Y-159573162D01*
X86801441Y-159434090D01*
X86946431Y-159221890D01*
X86997440Y-158970000D01*
X86997440Y-157270000D01*
X86953162Y-157034683D01*
X86814090Y-156818559D01*
X86601890Y-156673569D01*
X86534459Y-156659914D01*
X86579147Y-156630054D01*
X86901054Y-156148285D01*
X87014093Y-155580000D01*
X86901054Y-155011715D01*
X86579147Y-154529946D01*
X86249974Y-154310000D01*
X86579147Y-154090054D01*
X86901054Y-153608285D01*
X87014093Y-153040000D01*
X86901054Y-152471715D01*
X86579147Y-151989946D01*
X86249974Y-151770000D01*
X86579147Y-151550054D01*
X86901054Y-151068285D01*
X87014093Y-150500000D01*
X86901054Y-149931715D01*
X86579147Y-149449946D01*
X86249974Y-149230000D01*
X86579147Y-149010054D01*
X86901054Y-148528285D01*
X87014093Y-147960000D01*
X86901054Y-147391715D01*
X86635304Y-146993991D01*
X90614735Y-146993991D01*
X90847932Y-147558371D01*
X91249182Y-147960323D01*
X90849449Y-148359357D01*
X90615267Y-148923330D01*
X90614735Y-149533991D01*
X90847932Y-150098371D01*
X91249182Y-150500323D01*
X90849449Y-150899357D01*
X90615267Y-151463330D01*
X90614735Y-152073991D01*
X90847932Y-152638371D01*
X91249182Y-153040323D01*
X90849449Y-153439357D01*
X90615267Y-154003330D01*
X90614735Y-154613991D01*
X90847932Y-155178371D01*
X91279357Y-155610551D01*
X91843330Y-155844733D01*
X92453991Y-155845265D01*
X93018371Y-155612068D01*
X93420323Y-155210818D01*
X93789182Y-155580323D01*
X93389449Y-155979357D01*
X93155267Y-156543330D01*
X93154735Y-157153991D01*
X93387932Y-157718371D01*
X93819357Y-158150551D01*
X94383330Y-158384733D01*
X94993991Y-158385265D01*
X95558371Y-158152068D01*
X95960323Y-157750818D01*
X96359357Y-158150551D01*
X96923330Y-158384733D01*
X97533991Y-158385265D01*
X98098371Y-158152068D01*
X98500323Y-157750818D01*
X98899357Y-158150551D01*
X99463330Y-158384733D01*
X100073991Y-158385265D01*
X100638371Y-158152068D01*
X101040323Y-157750818D01*
X101439357Y-158150551D01*
X102003330Y-158384733D01*
X102613991Y-158385265D01*
X103178371Y-158152068D01*
X103610551Y-157720643D01*
X103844733Y-157156670D01*
X103845265Y-156546009D01*
X103612068Y-155981629D01*
X103210818Y-155579677D01*
X103580323Y-155210818D01*
X103979357Y-155610551D01*
X104543330Y-155844733D01*
X105153991Y-155845265D01*
X105718371Y-155612068D01*
X106150551Y-155180643D01*
X106384733Y-154616670D01*
X106385265Y-154006009D01*
X106152068Y-153441629D01*
X105750818Y-153039677D01*
X106150551Y-152640643D01*
X106384733Y-152076670D01*
X106385265Y-151466009D01*
X106152068Y-150901629D01*
X105750818Y-150499677D01*
X106150551Y-150100643D01*
X106384733Y-149536670D01*
X106385265Y-148926009D01*
X106152068Y-148361629D01*
X105750818Y-147959677D01*
X106150551Y-147560643D01*
X106384733Y-146996670D01*
X106385265Y-146386009D01*
X106152068Y-145821629D01*
X105751141Y-145420000D01*
X109985907Y-145420000D01*
X110098946Y-145988285D01*
X110420853Y-146470054D01*
X110750026Y-146690000D01*
X110420853Y-146909946D01*
X110098946Y-147391715D01*
X109985907Y-147960000D01*
X110098946Y-148528285D01*
X110420853Y-149010054D01*
X110750026Y-149230000D01*
X110420853Y-149449946D01*
X110098946Y-149931715D01*
X109985907Y-150500000D01*
X110098946Y-151068285D01*
X110420853Y-151550054D01*
X110750026Y-151770000D01*
X110420853Y-151989946D01*
X110098946Y-152471715D01*
X109985907Y-153040000D01*
X110098946Y-153608285D01*
X110420853Y-154090054D01*
X110750026Y-154310000D01*
X110420853Y-154529946D01*
X110098946Y-155011715D01*
X109985907Y-155580000D01*
X110098946Y-156148285D01*
X110420853Y-156630054D01*
X110750026Y-156850000D01*
X110420853Y-157069946D01*
X110098946Y-157551715D01*
X109985907Y-158120000D01*
X110098946Y-158688285D01*
X110420853Y-159170054D01*
X110902622Y-159491961D01*
X111470907Y-159605000D01*
X111529093Y-159605000D01*
X112097378Y-159491961D01*
X112579147Y-159170054D01*
X112901054Y-158688285D01*
X113014093Y-158120000D01*
X112901054Y-157551715D01*
X112579147Y-157069946D01*
X112249974Y-156850000D01*
X112579147Y-156630054D01*
X112901054Y-156148285D01*
X113014093Y-155580000D01*
X112901054Y-155011715D01*
X112579147Y-154529946D01*
X112249974Y-154310000D01*
X112579147Y-154090054D01*
X112901054Y-153608285D01*
X113014093Y-153040000D01*
X112901054Y-152471715D01*
X112579147Y-151989946D01*
X112249974Y-151770000D01*
X112579147Y-151550054D01*
X112901054Y-151068285D01*
X113014093Y-150500000D01*
X112901054Y-149931715D01*
X112579147Y-149449946D01*
X112249974Y-149230000D01*
X112579147Y-149010054D01*
X112901054Y-148528285D01*
X113014093Y-147960000D01*
X112901054Y-147391715D01*
X112579147Y-146909946D01*
X112249974Y-146690000D01*
X112579147Y-146470054D01*
X112901054Y-145988285D01*
X113014093Y-145420000D01*
X112901054Y-144851715D01*
X112579147Y-144369946D01*
X112537548Y-144342150D01*
X112585317Y-144333162D01*
X112801441Y-144194090D01*
X112946431Y-143981890D01*
X112997440Y-143730000D01*
X112997440Y-142880000D01*
X119985907Y-142880000D01*
X120098946Y-143448285D01*
X120420853Y-143930054D01*
X120750026Y-144150000D01*
X120420853Y-144369946D01*
X120098946Y-144851715D01*
X119985907Y-145420000D01*
X120098946Y-145988285D01*
X120420853Y-146470054D01*
X120750026Y-146690000D01*
X120420853Y-146909946D01*
X120098946Y-147391715D01*
X119985907Y-147960000D01*
X120098946Y-148528285D01*
X120420853Y-149010054D01*
X120750026Y-149230000D01*
X120420853Y-149449946D01*
X120098946Y-149931715D01*
X119985907Y-150500000D01*
X120098946Y-151068285D01*
X120420853Y-151550054D01*
X120750026Y-151770000D01*
X120420853Y-151989946D01*
X120098946Y-152471715D01*
X119985907Y-153040000D01*
X120098946Y-153608285D01*
X120420853Y-154090054D01*
X120750026Y-154310000D01*
X120420853Y-154529946D01*
X120098946Y-155011715D01*
X119985907Y-155580000D01*
X120098946Y-156148285D01*
X120420853Y-156630054D01*
X120462452Y-156657850D01*
X120414683Y-156666838D01*
X120198559Y-156805910D01*
X120053569Y-157018110D01*
X120002560Y-157270000D01*
X120002560Y-158970000D01*
X120046838Y-159205317D01*
X120185910Y-159421441D01*
X120398110Y-159566431D01*
X120650000Y-159617440D01*
X122350000Y-159617440D01*
X122585317Y-159573162D01*
X122801441Y-159434090D01*
X122946431Y-159221890D01*
X122997440Y-158970000D01*
X122997440Y-157270000D01*
X122953162Y-157034683D01*
X122814090Y-156818559D01*
X122601890Y-156673569D01*
X122534459Y-156659914D01*
X122579147Y-156630054D01*
X122901054Y-156148285D01*
X123014093Y-155580000D01*
X122901054Y-155011715D01*
X122579147Y-154529946D01*
X122249974Y-154310000D01*
X122579147Y-154090054D01*
X122901054Y-153608285D01*
X123014093Y-153040000D01*
X122901054Y-152471715D01*
X122579147Y-151989946D01*
X122249974Y-151770000D01*
X122579147Y-151550054D01*
X122901054Y-151068285D01*
X123014093Y-150500000D01*
X122901054Y-149931715D01*
X122579147Y-149449946D01*
X122249974Y-149230000D01*
X122579147Y-149010054D01*
X122901054Y-148528285D01*
X123014093Y-147960000D01*
X122901054Y-147391715D01*
X122635304Y-146993991D01*
X126614735Y-146993991D01*
X126847932Y-147558371D01*
X127249182Y-147960323D01*
X126849449Y-148359357D01*
X126615267Y-148923330D01*
X126614735Y-149533991D01*
X126847932Y-150098371D01*
X127249182Y-150500323D01*
X126849449Y-150899357D01*
X126615267Y-151463330D01*
X126614735Y-152073991D01*
X126847932Y-152638371D01*
X127249182Y-153040323D01*
X126849449Y-153439357D01*
X126615267Y-154003330D01*
X126614735Y-154613991D01*
X126847932Y-155178371D01*
X127279357Y-155610551D01*
X127843330Y-155844733D01*
X128453991Y-155845265D01*
X129018371Y-155612068D01*
X129420323Y-155210818D01*
X129789182Y-155580323D01*
X129389449Y-155979357D01*
X129155267Y-156543330D01*
X129154735Y-157153991D01*
X129387932Y-157718371D01*
X129819357Y-158150551D01*
X130383330Y-158384733D01*
X130993991Y-158385265D01*
X131558371Y-158152068D01*
X131960323Y-157750818D01*
X132359357Y-158150551D01*
X132923330Y-158384733D01*
X133533991Y-158385265D01*
X134098371Y-158152068D01*
X134500323Y-157750818D01*
X134899357Y-158150551D01*
X135463330Y-158384733D01*
X136073991Y-158385265D01*
X136638371Y-158152068D01*
X137040323Y-157750818D01*
X137439357Y-158150551D01*
X138003330Y-158384733D01*
X138613991Y-158385265D01*
X139178371Y-158152068D01*
X139610551Y-157720643D01*
X139844733Y-157156670D01*
X139845265Y-156546009D01*
X139612068Y-155981629D01*
X139210818Y-155579677D01*
X139580323Y-155210818D01*
X139979357Y-155610551D01*
X140543330Y-155844733D01*
X141153991Y-155845265D01*
X141718371Y-155612068D01*
X142150551Y-155180643D01*
X142384733Y-154616670D01*
X142385265Y-154006009D01*
X142152068Y-153441629D01*
X141750818Y-153039677D01*
X142150551Y-152640643D01*
X142384733Y-152076670D01*
X142385265Y-151466009D01*
X142152068Y-150901629D01*
X141750818Y-150499677D01*
X142150551Y-150100643D01*
X142384733Y-149536670D01*
X142385265Y-148926009D01*
X142152068Y-148361629D01*
X141750818Y-147959677D01*
X142150551Y-147560643D01*
X142384733Y-146996670D01*
X142385265Y-146386009D01*
X142152068Y-145821629D01*
X141751141Y-145420000D01*
X145985907Y-145420000D01*
X146098946Y-145988285D01*
X146420853Y-146470054D01*
X146750026Y-146690000D01*
X146420853Y-146909946D01*
X146098946Y-147391715D01*
X145985907Y-147960000D01*
X146098946Y-148528285D01*
X146420853Y-149010054D01*
X146750026Y-149230000D01*
X146420853Y-149449946D01*
X146098946Y-149931715D01*
X145985907Y-150500000D01*
X146098946Y-151068285D01*
X146420853Y-151550054D01*
X146750026Y-151770000D01*
X146420853Y-151989946D01*
X146098946Y-152471715D01*
X145985907Y-153040000D01*
X146098946Y-153608285D01*
X146420853Y-154090054D01*
X146750026Y-154310000D01*
X146420853Y-154529946D01*
X146098946Y-155011715D01*
X145985907Y-155580000D01*
X146098946Y-156148285D01*
X146420853Y-156630054D01*
X146750026Y-156850000D01*
X146420853Y-157069946D01*
X146098946Y-157551715D01*
X145985907Y-158120000D01*
X146098946Y-158688285D01*
X146420853Y-159170054D01*
X146902622Y-159491961D01*
X147470907Y-159605000D01*
X147529093Y-159605000D01*
X148097378Y-159491961D01*
X148579147Y-159170054D01*
X148901054Y-158688285D01*
X149014093Y-158120000D01*
X148901054Y-157551715D01*
X148579147Y-157069946D01*
X148249974Y-156850000D01*
X148579147Y-156630054D01*
X148901054Y-156148285D01*
X149014093Y-155580000D01*
X148901054Y-155011715D01*
X148579147Y-154529946D01*
X148249974Y-154310000D01*
X148579147Y-154090054D01*
X148901054Y-153608285D01*
X149014093Y-153040000D01*
X148901054Y-152471715D01*
X148579147Y-151989946D01*
X148249974Y-151770000D01*
X148579147Y-151550054D01*
X148901054Y-151068285D01*
X149014093Y-150500000D01*
X148901054Y-149931715D01*
X148579147Y-149449946D01*
X148249974Y-149230000D01*
X148579147Y-149010054D01*
X148901054Y-148528285D01*
X149014093Y-147960000D01*
X148901054Y-147391715D01*
X148579147Y-146909946D01*
X148249974Y-146690000D01*
X148579147Y-146470054D01*
X148901054Y-145988285D01*
X149014093Y-145420000D01*
X148901054Y-144851715D01*
X148579147Y-144369946D01*
X148537548Y-144342150D01*
X148585317Y-144333162D01*
X148801441Y-144194090D01*
X148946431Y-143981890D01*
X148997440Y-143730000D01*
X148997440Y-142030000D01*
X148953162Y-141794683D01*
X148814090Y-141578559D01*
X148601890Y-141433569D01*
X148350000Y-141382560D01*
X146650000Y-141382560D01*
X146414683Y-141426838D01*
X146198559Y-141565910D01*
X146053569Y-141778110D01*
X146002560Y-142030000D01*
X146002560Y-143730000D01*
X146046838Y-143965317D01*
X146185910Y-144181441D01*
X146398110Y-144326431D01*
X146465541Y-144340086D01*
X146420853Y-144369946D01*
X146098946Y-144851715D01*
X145985907Y-145420000D01*
X141751141Y-145420000D01*
X141720643Y-145389449D01*
X141156670Y-145155267D01*
X140546009Y-145154735D01*
X139981629Y-145387932D01*
X139579677Y-145789182D01*
X139210818Y-145419677D01*
X139610551Y-145020643D01*
X139844733Y-144456670D01*
X139845265Y-143846009D01*
X139612068Y-143281629D01*
X139180643Y-142849449D01*
X138616670Y-142615267D01*
X138006009Y-142614735D01*
X137441629Y-142847932D01*
X137039677Y-143249182D01*
X136640643Y-142849449D01*
X136076670Y-142615267D01*
X135466009Y-142614735D01*
X134901629Y-142847932D01*
X134499677Y-143249182D01*
X134100643Y-142849449D01*
X133536670Y-142615267D01*
X132926009Y-142614735D01*
X132361629Y-142847932D01*
X131959677Y-143249182D01*
X131560643Y-142849449D01*
X130996670Y-142615267D01*
X130386009Y-142614735D01*
X129821629Y-142847932D01*
X129389449Y-143279357D01*
X129155267Y-143843330D01*
X129154735Y-144453991D01*
X129387932Y-145018371D01*
X129789182Y-145420323D01*
X129419677Y-145789182D01*
X129020643Y-145389449D01*
X128456670Y-145155267D01*
X127846009Y-145154735D01*
X127281629Y-145387932D01*
X126849449Y-145819357D01*
X126615267Y-146383330D01*
X126614735Y-146993991D01*
X122635304Y-146993991D01*
X122579147Y-146909946D01*
X122249974Y-146690000D01*
X122579147Y-146470054D01*
X122901054Y-145988285D01*
X123014093Y-145420000D01*
X122901054Y-144851715D01*
X122579147Y-144369946D01*
X122249974Y-144150000D01*
X122579147Y-143930054D01*
X122901054Y-143448285D01*
X123014093Y-142880000D01*
X122901054Y-142311715D01*
X122579147Y-141829946D01*
X122097378Y-141508039D01*
X121529093Y-141395000D01*
X121470907Y-141395000D01*
X120902622Y-141508039D01*
X120420853Y-141829946D01*
X120098946Y-142311715D01*
X119985907Y-142880000D01*
X112997440Y-142880000D01*
X112997440Y-142030000D01*
X112953162Y-141794683D01*
X112814090Y-141578559D01*
X112601890Y-141433569D01*
X112350000Y-141382560D01*
X110650000Y-141382560D01*
X110414683Y-141426838D01*
X110198559Y-141565910D01*
X110053569Y-141778110D01*
X110002560Y-142030000D01*
X110002560Y-143730000D01*
X110046838Y-143965317D01*
X110185910Y-144181441D01*
X110398110Y-144326431D01*
X110465541Y-144340086D01*
X110420853Y-144369946D01*
X110098946Y-144851715D01*
X109985907Y-145420000D01*
X105751141Y-145420000D01*
X105720643Y-145389449D01*
X105156670Y-145155267D01*
X104546009Y-145154735D01*
X103981629Y-145387932D01*
X103579677Y-145789182D01*
X103210818Y-145419677D01*
X103610551Y-145020643D01*
X103844733Y-144456670D01*
X103845265Y-143846009D01*
X103612068Y-143281629D01*
X103180643Y-142849449D01*
X102616670Y-142615267D01*
X102006009Y-142614735D01*
X101441629Y-142847932D01*
X101039677Y-143249182D01*
X100640643Y-142849449D01*
X100076670Y-142615267D01*
X99466009Y-142614735D01*
X98901629Y-142847932D01*
X98499677Y-143249182D01*
X98100643Y-142849449D01*
X97536670Y-142615267D01*
X96926009Y-142614735D01*
X96361629Y-142847932D01*
X95959677Y-143249182D01*
X95560643Y-142849449D01*
X94996670Y-142615267D01*
X94386009Y-142614735D01*
X93821629Y-142847932D01*
X93389449Y-143279357D01*
X93155267Y-143843330D01*
X93154735Y-144453991D01*
X93387932Y-145018371D01*
X93789182Y-145420323D01*
X93419677Y-145789182D01*
X93020643Y-145389449D01*
X92456670Y-145155267D01*
X91846009Y-145154735D01*
X91281629Y-145387932D01*
X90849449Y-145819357D01*
X90615267Y-146383330D01*
X90614735Y-146993991D01*
X86635304Y-146993991D01*
X86579147Y-146909946D01*
X86249974Y-146690000D01*
X86579147Y-146470054D01*
X86901054Y-145988285D01*
X87014093Y-145420000D01*
X86901054Y-144851715D01*
X86579147Y-144369946D01*
X86249974Y-144150000D01*
X86579147Y-143930054D01*
X86901054Y-143448285D01*
X87014093Y-142880000D01*
X86901054Y-142311715D01*
X86579147Y-141829946D01*
X86097378Y-141508039D01*
X85529093Y-141395000D01*
X85470907Y-141395000D01*
X84902622Y-141508039D01*
X84420853Y-141829946D01*
X84098946Y-142311715D01*
X83985907Y-142880000D01*
X77497440Y-142880000D01*
X77497440Y-142530000D01*
X77453162Y-142294683D01*
X77314090Y-142078559D01*
X77101890Y-141933569D01*
X76850000Y-141882560D01*
X75150000Y-141882560D01*
X74914683Y-141926838D01*
X74698559Y-142065910D01*
X74553569Y-142278110D01*
X74502560Y-142530000D01*
X74502560Y-144230000D01*
X74546838Y-144465317D01*
X74685910Y-144681441D01*
X74898110Y-144826431D01*
X74965541Y-144840086D01*
X74920853Y-144869946D01*
X74598946Y-145351715D01*
X74485907Y-145920000D01*
X70251141Y-145920000D01*
X70220643Y-145889449D01*
X69656670Y-145655267D01*
X69046009Y-145654735D01*
X68481629Y-145887932D01*
X68079677Y-146289182D01*
X67710818Y-145919677D01*
X68110551Y-145520643D01*
X68344733Y-144956670D01*
X68345265Y-144346009D01*
X68112068Y-143781629D01*
X67680643Y-143349449D01*
X67116670Y-143115267D01*
X66506009Y-143114735D01*
X65941629Y-143347932D01*
X65539677Y-143749182D01*
X65140643Y-143349449D01*
X64576670Y-143115267D01*
X63966009Y-143114735D01*
X63401629Y-143347932D01*
X62999677Y-143749182D01*
X62600643Y-143349449D01*
X62036670Y-143115267D01*
X61426009Y-143114735D01*
X60861629Y-143347932D01*
X60459677Y-143749182D01*
X60060643Y-143349449D01*
X59496670Y-143115267D01*
X58886009Y-143114735D01*
X58321629Y-143347932D01*
X57889449Y-143779357D01*
X57655267Y-144343330D01*
X57654735Y-144953991D01*
X57887932Y-145518371D01*
X58289182Y-145920323D01*
X57919677Y-146289182D01*
X57520643Y-145889449D01*
X56956670Y-145655267D01*
X56346009Y-145654735D01*
X55781629Y-145887932D01*
X55349449Y-146319357D01*
X55115267Y-146883330D01*
X55114735Y-147493991D01*
X51135304Y-147493991D01*
X51079147Y-147409946D01*
X50749974Y-147190000D01*
X51079147Y-146970054D01*
X51401054Y-146488285D01*
X51514093Y-145920000D01*
X51401054Y-145351715D01*
X51079147Y-144869946D01*
X50749974Y-144650000D01*
X51079147Y-144430054D01*
X51401054Y-143948285D01*
X51514093Y-143380000D01*
X51401054Y-142811715D01*
X51079147Y-142329946D01*
X50597378Y-142008039D01*
X50029093Y-141895000D01*
X49970907Y-141895000D01*
X49402622Y-142008039D01*
X48920853Y-142329946D01*
X48598946Y-142811715D01*
X48485907Y-143380000D01*
X36720000Y-143380000D01*
X36720000Y-137150000D01*
X53882560Y-137150000D01*
X53882560Y-138850000D01*
X53926838Y-139085317D01*
X54065910Y-139301441D01*
X54278110Y-139446431D01*
X54530000Y-139497440D01*
X56230000Y-139497440D01*
X56465317Y-139453162D01*
X56681441Y-139314090D01*
X56826431Y-139101890D01*
X56840086Y-139034459D01*
X56869946Y-139079147D01*
X57351715Y-139401054D01*
X57920000Y-139514093D01*
X58488285Y-139401054D01*
X58970054Y-139079147D01*
X59190000Y-138749974D01*
X59409946Y-139079147D01*
X59891715Y-139401054D01*
X60460000Y-139514093D01*
X61028285Y-139401054D01*
X61510054Y-139079147D01*
X61730000Y-138749974D01*
X61949946Y-139079147D01*
X62431715Y-139401054D01*
X63000000Y-139514093D01*
X63568285Y-139401054D01*
X64050054Y-139079147D01*
X64270000Y-138749974D01*
X64489946Y-139079147D01*
X64971715Y-139401054D01*
X65540000Y-139514093D01*
X66108285Y-139401054D01*
X66590054Y-139079147D01*
X66810000Y-138749974D01*
X67029946Y-139079147D01*
X67511715Y-139401054D01*
X68080000Y-139514093D01*
X68648285Y-139401054D01*
X69130054Y-139079147D01*
X69350000Y-138749974D01*
X69569946Y-139079147D01*
X70051715Y-139401054D01*
X70620000Y-139514093D01*
X71188285Y-139401054D01*
X71670054Y-139079147D01*
X71991961Y-138597378D01*
X72105000Y-138029093D01*
X72105000Y-137970907D01*
X71991961Y-137402622D01*
X71670054Y-136920853D01*
X71264693Y-136650000D01*
X89382560Y-136650000D01*
X89382560Y-138350000D01*
X89426838Y-138585317D01*
X89565910Y-138801441D01*
X89778110Y-138946431D01*
X90030000Y-138997440D01*
X91730000Y-138997440D01*
X91965317Y-138953162D01*
X92181441Y-138814090D01*
X92326431Y-138601890D01*
X92340086Y-138534459D01*
X92369946Y-138579147D01*
X92851715Y-138901054D01*
X93420000Y-139014093D01*
X93988285Y-138901054D01*
X94470054Y-138579147D01*
X94690000Y-138249974D01*
X94909946Y-138579147D01*
X95391715Y-138901054D01*
X95960000Y-139014093D01*
X96528285Y-138901054D01*
X97010054Y-138579147D01*
X97230000Y-138249974D01*
X97449946Y-138579147D01*
X97931715Y-138901054D01*
X98500000Y-139014093D01*
X99068285Y-138901054D01*
X99550054Y-138579147D01*
X99770000Y-138249974D01*
X99989946Y-138579147D01*
X100471715Y-138901054D01*
X101040000Y-139014093D01*
X101608285Y-138901054D01*
X102090054Y-138579147D01*
X102310000Y-138249974D01*
X102529946Y-138579147D01*
X103011715Y-138901054D01*
X103580000Y-139014093D01*
X104148285Y-138901054D01*
X104630054Y-138579147D01*
X104850000Y-138249974D01*
X105069946Y-138579147D01*
X105551715Y-138901054D01*
X106120000Y-139014093D01*
X106688285Y-138901054D01*
X107170054Y-138579147D01*
X107491961Y-138097378D01*
X107605000Y-137529093D01*
X107605000Y-137470907D01*
X107491961Y-136902622D01*
X107323165Y-136650000D01*
X125382560Y-136650000D01*
X125382560Y-138350000D01*
X125426838Y-138585317D01*
X125565910Y-138801441D01*
X125778110Y-138946431D01*
X126030000Y-138997440D01*
X127730000Y-138997440D01*
X127965317Y-138953162D01*
X128181441Y-138814090D01*
X128326431Y-138601890D01*
X128340086Y-138534459D01*
X128369946Y-138579147D01*
X128851715Y-138901054D01*
X129420000Y-139014093D01*
X129988285Y-138901054D01*
X130470054Y-138579147D01*
X130690000Y-138249974D01*
X130909946Y-138579147D01*
X131391715Y-138901054D01*
X131960000Y-139014093D01*
X132528285Y-138901054D01*
X133010054Y-138579147D01*
X133230000Y-138249974D01*
X133449946Y-138579147D01*
X133931715Y-138901054D01*
X134500000Y-139014093D01*
X135068285Y-138901054D01*
X135550054Y-138579147D01*
X135770000Y-138249974D01*
X135989946Y-138579147D01*
X136471715Y-138901054D01*
X137040000Y-139014093D01*
X137608285Y-138901054D01*
X138090054Y-138579147D01*
X138310000Y-138249974D01*
X138529946Y-138579147D01*
X139011715Y-138901054D01*
X139580000Y-139014093D01*
X140148285Y-138901054D01*
X140630054Y-138579147D01*
X140850000Y-138249974D01*
X141069946Y-138579147D01*
X141551715Y-138901054D01*
X142120000Y-139014093D01*
X142688285Y-138901054D01*
X143170054Y-138579147D01*
X143491961Y-138097378D01*
X143605000Y-137529093D01*
X143605000Y-137470907D01*
X143491961Y-136902622D01*
X143170054Y-136420853D01*
X142688285Y-136098946D01*
X142120000Y-135985907D01*
X141551715Y-136098946D01*
X141069946Y-136420853D01*
X140850000Y-136750026D01*
X140630054Y-136420853D01*
X140148285Y-136098946D01*
X139580000Y-135985907D01*
X139011715Y-136098946D01*
X138529946Y-136420853D01*
X138310000Y-136750026D01*
X138090054Y-136420853D01*
X137608285Y-136098946D01*
X137040000Y-135985907D01*
X136471715Y-136098946D01*
X135989946Y-136420853D01*
X135770000Y-136750026D01*
X135550054Y-136420853D01*
X135068285Y-136098946D01*
X134500000Y-135985907D01*
X133931715Y-136098946D01*
X133449946Y-136420853D01*
X133230000Y-136750026D01*
X133010054Y-136420853D01*
X132528285Y-136098946D01*
X131960000Y-135985907D01*
X131391715Y-136098946D01*
X130909946Y-136420853D01*
X130690000Y-136750026D01*
X130470054Y-136420853D01*
X129988285Y-136098946D01*
X129420000Y-135985907D01*
X128851715Y-136098946D01*
X128369946Y-136420853D01*
X128342150Y-136462452D01*
X128333162Y-136414683D01*
X128194090Y-136198559D01*
X127981890Y-136053569D01*
X127730000Y-136002560D01*
X126030000Y-136002560D01*
X125794683Y-136046838D01*
X125578559Y-136185910D01*
X125433569Y-136398110D01*
X125382560Y-136650000D01*
X107323165Y-136650000D01*
X107170054Y-136420853D01*
X106688285Y-136098946D01*
X106120000Y-135985907D01*
X105551715Y-136098946D01*
X105069946Y-136420853D01*
X104850000Y-136750026D01*
X104630054Y-136420853D01*
X104148285Y-136098946D01*
X103580000Y-135985907D01*
X103011715Y-136098946D01*
X102529946Y-136420853D01*
X102310000Y-136750026D01*
X102090054Y-136420853D01*
X101608285Y-136098946D01*
X101040000Y-135985907D01*
X100471715Y-136098946D01*
X99989946Y-136420853D01*
X99770000Y-136750026D01*
X99550054Y-136420853D01*
X99068285Y-136098946D01*
X98500000Y-135985907D01*
X97931715Y-136098946D01*
X97449946Y-136420853D01*
X97230000Y-136750026D01*
X97010054Y-136420853D01*
X96528285Y-136098946D01*
X95960000Y-135985907D01*
X95391715Y-136098946D01*
X94909946Y-136420853D01*
X94690000Y-136750026D01*
X94470054Y-136420853D01*
X93988285Y-136098946D01*
X93420000Y-135985907D01*
X92851715Y-136098946D01*
X92369946Y-136420853D01*
X92342150Y-136462452D01*
X92333162Y-136414683D01*
X92194090Y-136198559D01*
X91981890Y-136053569D01*
X91730000Y-136002560D01*
X90030000Y-136002560D01*
X89794683Y-136046838D01*
X89578559Y-136185910D01*
X89433569Y-136398110D01*
X89382560Y-136650000D01*
X71264693Y-136650000D01*
X71188285Y-136598946D01*
X70620000Y-136485907D01*
X70051715Y-136598946D01*
X69569946Y-136920853D01*
X69350000Y-137250026D01*
X69130054Y-136920853D01*
X68648285Y-136598946D01*
X68080000Y-136485907D01*
X67511715Y-136598946D01*
X67029946Y-136920853D01*
X66810000Y-137250026D01*
X66590054Y-136920853D01*
X66108285Y-136598946D01*
X65540000Y-136485907D01*
X64971715Y-136598946D01*
X64489946Y-136920853D01*
X64270000Y-137250026D01*
X64050054Y-136920853D01*
X63568285Y-136598946D01*
X63000000Y-136485907D01*
X62431715Y-136598946D01*
X61949946Y-136920853D01*
X61730000Y-137250026D01*
X61510054Y-136920853D01*
X61028285Y-136598946D01*
X60460000Y-136485907D01*
X59891715Y-136598946D01*
X59409946Y-136920853D01*
X59190000Y-137250026D01*
X58970054Y-136920853D01*
X58488285Y-136598946D01*
X57920000Y-136485907D01*
X57351715Y-136598946D01*
X56869946Y-136920853D01*
X56842150Y-136962452D01*
X56833162Y-136914683D01*
X56694090Y-136698559D01*
X56481890Y-136553569D01*
X56230000Y-136502560D01*
X54530000Y-136502560D01*
X54294683Y-136546838D01*
X54078559Y-136685910D01*
X53933569Y-136898110D01*
X53882560Y-137150000D01*
X36720000Y-137150000D01*
X36720000Y-92855000D01*
X55720907Y-92855000D01*
X55833946Y-93423285D01*
X56155853Y-93905054D01*
X56485026Y-94125000D01*
X56155853Y-94344946D01*
X55833946Y-94826715D01*
X55720907Y-95395000D01*
X55833946Y-95963285D01*
X56155853Y-96445054D01*
X56485026Y-96665000D01*
X56155853Y-96884946D01*
X55833946Y-97366715D01*
X55720907Y-97935000D01*
X55833946Y-98503285D01*
X56155853Y-98985054D01*
X56485026Y-99205000D01*
X56155853Y-99424946D01*
X55833946Y-99906715D01*
X55720907Y-100475000D01*
X55833946Y-101043285D01*
X56155853Y-101525054D01*
X56637622Y-101846961D01*
X57205907Y-101960000D01*
X57264093Y-101960000D01*
X57832378Y-101846961D01*
X58314147Y-101525054D01*
X58505000Y-101239422D01*
X58695853Y-101525054D01*
X59177622Y-101846961D01*
X59745907Y-101960000D01*
X59804093Y-101960000D01*
X60372378Y-101846961D01*
X60854147Y-101525054D01*
X61176054Y-101043285D01*
X61289093Y-100475000D01*
X61176054Y-99906715D01*
X60854147Y-99424946D01*
X60524974Y-99205000D01*
X60854147Y-98985054D01*
X60961760Y-98824000D01*
X62316764Y-98824000D01*
X63261000Y-99768236D01*
X63261000Y-124110000D01*
X63328671Y-124450206D01*
X63440011Y-124616838D01*
X63521382Y-124738618D01*
X70781382Y-131998618D01*
X71069794Y-132191329D01*
X71410000Y-132259000D01*
X85550000Y-132259000D01*
X85890206Y-132191329D01*
X86178618Y-131998618D01*
X90439796Y-127737440D01*
X91530000Y-127737440D01*
X91765317Y-127693162D01*
X91981441Y-127554090D01*
X92126431Y-127341890D01*
X92140086Y-127274459D01*
X92169946Y-127319147D01*
X92651715Y-127641054D01*
X93220000Y-127754093D01*
X93788285Y-127641054D01*
X94270054Y-127319147D01*
X94310243Y-127259000D01*
X94669757Y-127259000D01*
X94709946Y-127319147D01*
X95191715Y-127641054D01*
X95760000Y-127754093D01*
X96328285Y-127641054D01*
X96810054Y-127319147D01*
X96836879Y-127279000D01*
X99558429Y-127279000D01*
X99693106Y-127604943D01*
X100152637Y-128065278D01*
X100753352Y-128314716D01*
X101403795Y-128315284D01*
X102004943Y-128066894D01*
X102239715Y-127832532D01*
X109107073Y-127832532D01*
X109205736Y-128099387D01*
X109815461Y-128325908D01*
X110465460Y-128301856D01*
X110954264Y-128099387D01*
X111052927Y-127832532D01*
X110080000Y-126859605D01*
X109107073Y-127832532D01*
X102239715Y-127832532D01*
X102465278Y-127607363D01*
X102714716Y-127006648D01*
X102715232Y-126415461D01*
X108434092Y-126415461D01*
X108458144Y-127065460D01*
X108660613Y-127554264D01*
X108927468Y-127652927D01*
X109900395Y-126680000D01*
X110259605Y-126680000D01*
X111232532Y-127652927D01*
X111499387Y-127554264D01*
X111725908Y-126944539D01*
X111701856Y-126294540D01*
X111499387Y-125805736D01*
X111232532Y-125707073D01*
X110259605Y-126680000D01*
X109900395Y-126680000D01*
X108927468Y-125707073D01*
X108660613Y-125805736D01*
X108434092Y-126415461D01*
X102715232Y-126415461D01*
X102715284Y-126356205D01*
X102466894Y-125755057D01*
X102239703Y-125527468D01*
X109107073Y-125527468D01*
X110080000Y-126500395D01*
X111052927Y-125527468D01*
X110954264Y-125260613D01*
X110844947Y-125220000D01*
X115202560Y-125220000D01*
X115202560Y-126920000D01*
X115246838Y-127155317D01*
X115385910Y-127371441D01*
X115598110Y-127516431D01*
X115850000Y-127567440D01*
X117550000Y-127567440D01*
X117785317Y-127523162D01*
X118001441Y-127384090D01*
X118146431Y-127171890D01*
X118160086Y-127104459D01*
X118189946Y-127149147D01*
X118671715Y-127471054D01*
X119240000Y-127584093D01*
X119808285Y-127471054D01*
X120290054Y-127149147D01*
X120510000Y-126819974D01*
X120729946Y-127149147D01*
X121211715Y-127471054D01*
X121780000Y-127584093D01*
X122348285Y-127471054D01*
X122830054Y-127149147D01*
X123151961Y-126667378D01*
X123265000Y-126099093D01*
X123265000Y-126040907D01*
X123151961Y-125472622D01*
X122830054Y-124990853D01*
X122348285Y-124668946D01*
X121780000Y-124555907D01*
X121211715Y-124668946D01*
X120729946Y-124990853D01*
X120510000Y-125320026D01*
X120290054Y-124990853D01*
X119808285Y-124668946D01*
X119240000Y-124555907D01*
X118671715Y-124668946D01*
X118189946Y-124990853D01*
X118162150Y-125032452D01*
X118153162Y-124984683D01*
X118014090Y-124768559D01*
X117801890Y-124623569D01*
X117550000Y-124572560D01*
X115850000Y-124572560D01*
X115614683Y-124616838D01*
X115398559Y-124755910D01*
X115253569Y-124968110D01*
X115202560Y-125220000D01*
X110844947Y-125220000D01*
X110344539Y-125034092D01*
X109694540Y-125058144D01*
X109205736Y-125260613D01*
X109107073Y-125527468D01*
X102239703Y-125527468D01*
X102007363Y-125294722D01*
X101406648Y-125045284D01*
X100756205Y-125044716D01*
X100155057Y-125293106D01*
X99946799Y-125501000D01*
X97037332Y-125501000D01*
X96810054Y-125160853D01*
X96328285Y-124838946D01*
X95760000Y-124725907D01*
X95191715Y-124838946D01*
X94709946Y-125160853D01*
X94496031Y-125481000D01*
X94483969Y-125481000D01*
X94270054Y-125160853D01*
X93788285Y-124838946D01*
X93220000Y-124725907D01*
X92651715Y-124838946D01*
X92169946Y-125160853D01*
X92142150Y-125202452D01*
X92133162Y-125154683D01*
X91994090Y-124938559D01*
X91781890Y-124793569D01*
X91530000Y-124742560D01*
X89830000Y-124742560D01*
X89594683Y-124786838D01*
X89378559Y-124925910D01*
X89233569Y-125138110D01*
X89182560Y-125390000D01*
X89182560Y-126480204D01*
X85181764Y-130481000D01*
X82626236Y-130481000D01*
X85968618Y-127138618D01*
X85977681Y-127125054D01*
X86161329Y-126850206D01*
X86229000Y-126510000D01*
X86229000Y-123678236D01*
X88928236Y-120979000D01*
X110959822Y-120979000D01*
X111286077Y-121305824D01*
X111813309Y-121524750D01*
X112384187Y-121525248D01*
X112911800Y-121307243D01*
X113240616Y-120979000D01*
X120849422Y-120979000D01*
X120946077Y-121075824D01*
X121473309Y-121294750D01*
X122044187Y-121295248D01*
X122571800Y-121077243D01*
X122975824Y-120673923D01*
X123194750Y-120146691D01*
X123195248Y-119575813D01*
X122977243Y-119048200D01*
X122573923Y-118644176D01*
X122046691Y-118425250D01*
X121475813Y-118424752D01*
X120948200Y-118642757D01*
X120544176Y-119046077D01*
X120479846Y-119201000D01*
X113240178Y-119201000D01*
X112913923Y-118874176D01*
X112386691Y-118655250D01*
X111815813Y-118654752D01*
X111288200Y-118872757D01*
X110959384Y-119201000D01*
X88560000Y-119201000D01*
X88219795Y-119268670D01*
X87931382Y-119461382D01*
X84711382Y-122681382D01*
X84518671Y-122969794D01*
X84451000Y-123310000D01*
X84451000Y-126141764D01*
X81421764Y-129171000D01*
X72198236Y-129171000D01*
X66229000Y-123201764D01*
X66229000Y-93610000D01*
X66161329Y-93269794D01*
X65968618Y-92981382D01*
X62673618Y-89686382D01*
X62385206Y-89493671D01*
X62045000Y-89426000D01*
X60961760Y-89426000D01*
X60854147Y-89264946D01*
X60372378Y-88943039D01*
X59804093Y-88830000D01*
X59745907Y-88830000D01*
X59177622Y-88943039D01*
X58695853Y-89264946D01*
X58695029Y-89266179D01*
X58688162Y-89229683D01*
X58549090Y-89013559D01*
X58336890Y-88868569D01*
X58085000Y-88817560D01*
X56385000Y-88817560D01*
X56149683Y-88861838D01*
X55933559Y-89000910D01*
X55788569Y-89213110D01*
X55737560Y-89465000D01*
X55737560Y-91165000D01*
X55781838Y-91400317D01*
X55920910Y-91616441D01*
X56133110Y-91761431D01*
X56200541Y-91775086D01*
X56155853Y-91804946D01*
X55833946Y-92286715D01*
X55720907Y-92855000D01*
X36720000Y-92855000D01*
X36720000Y-77750000D01*
X63741000Y-77750000D01*
X63741000Y-89960000D01*
X63808671Y-90300206D01*
X63869558Y-90391329D01*
X64001382Y-90588618D01*
X69636382Y-96223618D01*
X69924794Y-96416329D01*
X70265000Y-96484000D01*
X75508240Y-96484000D01*
X75615853Y-96645054D01*
X75945026Y-96865000D01*
X75615853Y-97084946D01*
X75293946Y-97566715D01*
X75180907Y-98135000D01*
X75293946Y-98703285D01*
X75615853Y-99185054D01*
X75945026Y-99405000D01*
X75615853Y-99624946D01*
X75293946Y-100106715D01*
X75180907Y-100675000D01*
X75293946Y-101243285D01*
X75615853Y-101725054D01*
X75945026Y-101945000D01*
X75615853Y-102164946D01*
X75293946Y-102646715D01*
X75180907Y-103215000D01*
X75293946Y-103783285D01*
X75615853Y-104265054D01*
X75945026Y-104485000D01*
X75615853Y-104704946D01*
X75293946Y-105186715D01*
X75180907Y-105755000D01*
X75293946Y-106323285D01*
X75615853Y-106805054D01*
X75945026Y-107025000D01*
X75615853Y-107244946D01*
X75293946Y-107726715D01*
X75180907Y-108295000D01*
X75293946Y-108863285D01*
X75615853Y-109345054D01*
X75945026Y-109565000D01*
X75741487Y-109701000D01*
X72163747Y-109701000D01*
X71915147Y-109099342D01*
X71174557Y-108357458D01*
X70433488Y-108049739D01*
X71170658Y-107745147D01*
X71912542Y-107004557D01*
X72314542Y-106036433D01*
X72315457Y-104988166D01*
X71915147Y-104019342D01*
X71174557Y-103277458D01*
X70206433Y-102875458D01*
X69158166Y-102874543D01*
X68189342Y-103274853D01*
X67447458Y-104015443D01*
X67045458Y-104983567D01*
X67044543Y-106031834D01*
X67444853Y-107000658D01*
X68185443Y-107742542D01*
X68926512Y-108050261D01*
X68189342Y-108354853D01*
X67447458Y-109095443D01*
X67045458Y-110063567D01*
X67044543Y-111111834D01*
X67444853Y-112080658D01*
X68185443Y-112822542D01*
X69153567Y-113224542D01*
X70201834Y-113225457D01*
X71170658Y-112825147D01*
X71912542Y-112084557D01*
X72163991Y-111479000D01*
X75344537Y-111479000D01*
X75615853Y-111885054D01*
X75945026Y-112105000D01*
X75615853Y-112324946D01*
X75293946Y-112806715D01*
X75180907Y-113375000D01*
X75293946Y-113943285D01*
X75615853Y-114425054D01*
X75945026Y-114645000D01*
X75615853Y-114864946D01*
X75293946Y-115346715D01*
X75180907Y-115915000D01*
X75293946Y-116483285D01*
X75615853Y-116965054D01*
X75945026Y-117185000D01*
X75615853Y-117404946D01*
X75293946Y-117886715D01*
X75180907Y-118455000D01*
X75293946Y-119023285D01*
X75615853Y-119505054D01*
X75945026Y-119725000D01*
X75615853Y-119944946D01*
X75293946Y-120426715D01*
X75180907Y-120995000D01*
X75293946Y-121563285D01*
X75615853Y-122045054D01*
X75945026Y-122265000D01*
X75615853Y-122484946D01*
X75293946Y-122966715D01*
X75180907Y-123535000D01*
X75293946Y-124103285D01*
X75615853Y-124585054D01*
X75945026Y-124805000D01*
X75615853Y-125024946D01*
X75293946Y-125506715D01*
X75180907Y-126075000D01*
X75293946Y-126643285D01*
X75615853Y-127125054D01*
X76097622Y-127446961D01*
X76665907Y-127560000D01*
X76724093Y-127560000D01*
X77292378Y-127446961D01*
X77774147Y-127125054D01*
X77965000Y-126839422D01*
X78155853Y-127125054D01*
X78637622Y-127446961D01*
X79205907Y-127560000D01*
X79264093Y-127560000D01*
X79832378Y-127446961D01*
X80314147Y-127125054D01*
X80636054Y-126643285D01*
X80749093Y-126075000D01*
X80636054Y-125506715D01*
X80314147Y-125024946D01*
X79984974Y-124805000D01*
X80314147Y-124585054D01*
X80636054Y-124103285D01*
X80749093Y-123535000D01*
X80636054Y-122966715D01*
X80314147Y-122484946D01*
X79984974Y-122265000D01*
X80314147Y-122045054D01*
X80636054Y-121563285D01*
X80749093Y-120995000D01*
X80636054Y-120426715D01*
X80314147Y-119944946D01*
X79984974Y-119725000D01*
X80314147Y-119505054D01*
X80636054Y-119023285D01*
X80749093Y-118455000D01*
X80636054Y-117886715D01*
X80314147Y-117404946D01*
X79984974Y-117185000D01*
X80314147Y-116965054D01*
X80636054Y-116483285D01*
X80749093Y-115915000D01*
X80636054Y-115346715D01*
X80314147Y-114864946D01*
X79984974Y-114645000D01*
X80314147Y-114425054D01*
X80636054Y-113943285D01*
X80674500Y-113750000D01*
X112722560Y-113750000D01*
X112722560Y-115350000D01*
X112766838Y-115585317D01*
X112905910Y-115801441D01*
X113118110Y-115946431D01*
X113370000Y-115997440D01*
X114970000Y-115997440D01*
X115205317Y-115953162D01*
X115421441Y-115814090D01*
X115566431Y-115601890D01*
X115597815Y-115446911D01*
X115695302Y-115592811D01*
X116160849Y-115903880D01*
X116710000Y-116013113D01*
X117259151Y-115903880D01*
X117724698Y-115592811D01*
X117980000Y-115210725D01*
X118235302Y-115592811D01*
X118700849Y-115903880D01*
X119250000Y-116013113D01*
X119799151Y-115903880D01*
X120264698Y-115592811D01*
X120520000Y-115210725D01*
X120775302Y-115592811D01*
X121240849Y-115903880D01*
X121790000Y-116013113D01*
X122339151Y-115903880D01*
X122804698Y-115592811D01*
X123060000Y-115210725D01*
X123315302Y-115592811D01*
X123780849Y-115903880D01*
X124330000Y-116013113D01*
X124879151Y-115903880D01*
X125344698Y-115592811D01*
X125600000Y-115210725D01*
X125855302Y-115592811D01*
X126320849Y-115903880D01*
X126870000Y-116013113D01*
X127419151Y-115903880D01*
X127884698Y-115592811D01*
X128154986Y-115188297D01*
X128257611Y-115405134D01*
X128672577Y-115781041D01*
X129060961Y-115941904D01*
X129283000Y-115819915D01*
X129283000Y-114677000D01*
X129537000Y-114677000D01*
X129537000Y-115819915D01*
X129759039Y-115941904D01*
X130147423Y-115781041D01*
X130562389Y-115405134D01*
X130801914Y-114899041D01*
X130680629Y-114677000D01*
X129537000Y-114677000D01*
X129283000Y-114677000D01*
X129263000Y-114677000D01*
X129263000Y-114423000D01*
X129283000Y-114423000D01*
X129283000Y-113280085D01*
X129537000Y-113280085D01*
X129537000Y-114423000D01*
X130680629Y-114423000D01*
X130801914Y-114200959D01*
X130562389Y-113694866D01*
X130147423Y-113318959D01*
X129759039Y-113158096D01*
X129537000Y-113280085D01*
X129283000Y-113280085D01*
X129060961Y-113158096D01*
X128672577Y-113318959D01*
X128257611Y-113694866D01*
X128154986Y-113911703D01*
X127884698Y-113507189D01*
X127419151Y-113196120D01*
X126870000Y-113086887D01*
X126320849Y-113196120D01*
X125855302Y-113507189D01*
X125600000Y-113889275D01*
X125344698Y-113507189D01*
X124879151Y-113196120D01*
X124330000Y-113086887D01*
X123780849Y-113196120D01*
X123315302Y-113507189D01*
X123060000Y-113889275D01*
X122804698Y-113507189D01*
X122339151Y-113196120D01*
X121790000Y-113086887D01*
X121240849Y-113196120D01*
X120775302Y-113507189D01*
X120520000Y-113889275D01*
X120264698Y-113507189D01*
X119799151Y-113196120D01*
X119250000Y-113086887D01*
X118700849Y-113196120D01*
X118235302Y-113507189D01*
X117980000Y-113889275D01*
X117724698Y-113507189D01*
X117259151Y-113196120D01*
X116710000Y-113086887D01*
X116160849Y-113196120D01*
X115695302Y-113507189D01*
X115598899Y-113651465D01*
X115573162Y-113514683D01*
X115434090Y-113298559D01*
X115221890Y-113153569D01*
X114970000Y-113102560D01*
X113370000Y-113102560D01*
X113134683Y-113146838D01*
X112918559Y-113285910D01*
X112773569Y-113498110D01*
X112722560Y-113750000D01*
X80674500Y-113750000D01*
X80749093Y-113375000D01*
X80636054Y-112806715D01*
X80314147Y-112324946D01*
X79984974Y-112105000D01*
X80314147Y-111885054D01*
X80636054Y-111403285D01*
X80749093Y-110835000D01*
X80636054Y-110266715D01*
X80314147Y-109784946D01*
X79984974Y-109565000D01*
X80314147Y-109345054D01*
X80636054Y-108863285D01*
X80749093Y-108295000D01*
X80636054Y-107726715D01*
X80314147Y-107244946D01*
X79984974Y-107025000D01*
X80169225Y-106901887D01*
X112735000Y-106901887D01*
X112735000Y-106958113D01*
X112844233Y-107507264D01*
X113155302Y-107972811D01*
X113620849Y-108283880D01*
X114170000Y-108393113D01*
X114719151Y-108283880D01*
X115184698Y-107972811D01*
X115440000Y-107590725D01*
X115695302Y-107972811D01*
X116160849Y-108283880D01*
X116710000Y-108393113D01*
X117259151Y-108283880D01*
X117724698Y-107972811D01*
X117980000Y-107590725D01*
X118235302Y-107972811D01*
X118700849Y-108283880D01*
X119250000Y-108393113D01*
X119799151Y-108283880D01*
X120264698Y-107972811D01*
X120520000Y-107590725D01*
X120775302Y-107972811D01*
X121240849Y-108283880D01*
X121790000Y-108393113D01*
X122339151Y-108283880D01*
X122804698Y-107972811D01*
X123060000Y-107590725D01*
X123315302Y-107972811D01*
X123780849Y-108283880D01*
X124330000Y-108393113D01*
X124879151Y-108283880D01*
X125344698Y-107972811D01*
X125600000Y-107590725D01*
X125855302Y-107972811D01*
X126320849Y-108283880D01*
X126870000Y-108393113D01*
X127419151Y-108283880D01*
X127884698Y-107972811D01*
X128140000Y-107590725D01*
X128395302Y-107972811D01*
X128860849Y-108283880D01*
X129410000Y-108393113D01*
X129959151Y-108283880D01*
X130424698Y-107972811D01*
X130735767Y-107507264D01*
X130845000Y-106958113D01*
X130845000Y-106901887D01*
X130735767Y-106352736D01*
X130424698Y-105887189D01*
X129959151Y-105576120D01*
X129410000Y-105466887D01*
X128860849Y-105576120D01*
X128395302Y-105887189D01*
X128140000Y-106269275D01*
X127884698Y-105887189D01*
X127419151Y-105576120D01*
X126870000Y-105466887D01*
X126320849Y-105576120D01*
X125855302Y-105887189D01*
X125600000Y-106269275D01*
X125344698Y-105887189D01*
X124879151Y-105576120D01*
X124330000Y-105466887D01*
X123780849Y-105576120D01*
X123315302Y-105887189D01*
X123060000Y-106269275D01*
X122804698Y-105887189D01*
X122339151Y-105576120D01*
X121790000Y-105466887D01*
X121240849Y-105576120D01*
X120775302Y-105887189D01*
X120520000Y-106269275D01*
X120264698Y-105887189D01*
X119799151Y-105576120D01*
X119250000Y-105466887D01*
X118700849Y-105576120D01*
X118235302Y-105887189D01*
X117980000Y-106269275D01*
X117724698Y-105887189D01*
X117259151Y-105576120D01*
X116710000Y-105466887D01*
X116160849Y-105576120D01*
X115695302Y-105887189D01*
X115440000Y-106269275D01*
X115184698Y-105887189D01*
X114719151Y-105576120D01*
X114170000Y-105466887D01*
X113620849Y-105576120D01*
X113155302Y-105887189D01*
X112844233Y-106352736D01*
X112735000Y-106901887D01*
X80169225Y-106901887D01*
X80314147Y-106805054D01*
X80636054Y-106323285D01*
X80749093Y-105755000D01*
X80636054Y-105186715D01*
X80314147Y-104704946D01*
X79984974Y-104485000D01*
X80314147Y-104265054D01*
X80636054Y-103783285D01*
X80749093Y-103215000D01*
X80636054Y-102646715D01*
X80314147Y-102164946D01*
X79984974Y-101945000D01*
X80314147Y-101725054D01*
X80636054Y-101243285D01*
X80749093Y-100675000D01*
X80636054Y-100106715D01*
X80314147Y-99624946D01*
X79984974Y-99405000D01*
X80314147Y-99185054D01*
X80387715Y-99074951D01*
X83586306Y-102273542D01*
X83345458Y-102853567D01*
X83344543Y-103901834D01*
X83744853Y-104870658D01*
X84485443Y-105612542D01*
X85453567Y-106014542D01*
X86501834Y-106015457D01*
X87470658Y-105615147D01*
X88212542Y-104874557D01*
X88614542Y-103906433D01*
X88615457Y-102858166D01*
X88215147Y-101889342D01*
X87474557Y-101147458D01*
X86733488Y-100839739D01*
X87470658Y-100535147D01*
X87574151Y-100431834D01*
X108004543Y-100431834D01*
X108404853Y-101400658D01*
X109145443Y-102142542D01*
X110113567Y-102544542D01*
X111161834Y-102545457D01*
X112130658Y-102145147D01*
X112872542Y-101404557D01*
X113274542Y-100436433D01*
X113275457Y-99388166D01*
X112875147Y-98419342D01*
X112134557Y-97677458D01*
X111166433Y-97275458D01*
X110118166Y-97274543D01*
X109149342Y-97674853D01*
X108407458Y-98415443D01*
X108005458Y-99383567D01*
X108004543Y-100431834D01*
X87574151Y-100431834D01*
X88212542Y-99794557D01*
X88614542Y-98826433D01*
X88615457Y-97778166D01*
X88215147Y-96809342D01*
X87474557Y-96067458D01*
X86733488Y-95759739D01*
X87470658Y-95455147D01*
X88212542Y-94714557D01*
X88614542Y-93746433D01*
X88615457Y-92698166D01*
X88215147Y-91729342D01*
X88190848Y-91705000D01*
X104097560Y-91705000D01*
X104097560Y-93305000D01*
X104141838Y-93540317D01*
X104280910Y-93756441D01*
X104493110Y-93901431D01*
X104745000Y-93952440D01*
X106345000Y-93952440D01*
X106580317Y-93908162D01*
X106796441Y-93769090D01*
X106941431Y-93556890D01*
X106972815Y-93401911D01*
X107070302Y-93547811D01*
X107535849Y-93858880D01*
X108085000Y-93968113D01*
X108634151Y-93858880D01*
X109099698Y-93547811D01*
X109355000Y-93165725D01*
X109610302Y-93547811D01*
X110075849Y-93858880D01*
X110625000Y-93968113D01*
X111174151Y-93858880D01*
X111639698Y-93547811D01*
X111895000Y-93165725D01*
X112150302Y-93547811D01*
X112615849Y-93858880D01*
X113165000Y-93968113D01*
X113714151Y-93858880D01*
X114179698Y-93547811D01*
X114435000Y-93165725D01*
X114690302Y-93547811D01*
X115155849Y-93858880D01*
X115705000Y-93968113D01*
X116254151Y-93858880D01*
X116719698Y-93547811D01*
X116989986Y-93143297D01*
X117092611Y-93360134D01*
X117507577Y-93736041D01*
X117895961Y-93896904D01*
X118118000Y-93774915D01*
X118118000Y-92632000D01*
X118372000Y-92632000D01*
X118372000Y-93774915D01*
X118594039Y-93896904D01*
X118982423Y-93736041D01*
X119397389Y-93360134D01*
X119515000Y-93111633D01*
X119632611Y-93360134D01*
X120047577Y-93736041D01*
X120435961Y-93896904D01*
X120658000Y-93774915D01*
X120658000Y-92632000D01*
X120912000Y-92632000D01*
X120912000Y-93774915D01*
X121134039Y-93896904D01*
X121522423Y-93736041D01*
X121937389Y-93360134D01*
X122055000Y-93111633D01*
X122172611Y-93360134D01*
X122587577Y-93736041D01*
X122975961Y-93896904D01*
X123198000Y-93774915D01*
X123198000Y-92632000D01*
X123452000Y-92632000D01*
X123452000Y-93774915D01*
X123674039Y-93896904D01*
X124062423Y-93736041D01*
X124477389Y-93360134D01*
X124716914Y-92854041D01*
X124595629Y-92632000D01*
X123452000Y-92632000D01*
X123198000Y-92632000D01*
X120912000Y-92632000D01*
X120658000Y-92632000D01*
X118372000Y-92632000D01*
X118118000Y-92632000D01*
X118098000Y-92632000D01*
X118098000Y-92378000D01*
X118118000Y-92378000D01*
X118118000Y-91235085D01*
X118372000Y-91235085D01*
X118372000Y-92378000D01*
X120658000Y-92378000D01*
X120658000Y-91235085D01*
X120912000Y-91235085D01*
X120912000Y-92378000D01*
X123198000Y-92378000D01*
X123198000Y-91235085D01*
X123452000Y-91235085D01*
X123452000Y-92378000D01*
X124595629Y-92378000D01*
X124716914Y-92155959D01*
X124477389Y-91649866D01*
X124062423Y-91273959D01*
X123674039Y-91113096D01*
X123452000Y-91235085D01*
X123198000Y-91235085D01*
X122975961Y-91113096D01*
X122587577Y-91273959D01*
X122172611Y-91649866D01*
X122055000Y-91898367D01*
X121937389Y-91649866D01*
X121522423Y-91273959D01*
X121134039Y-91113096D01*
X120912000Y-91235085D01*
X120658000Y-91235085D01*
X120435961Y-91113096D01*
X120047577Y-91273959D01*
X119632611Y-91649866D01*
X119515000Y-91898367D01*
X119397389Y-91649866D01*
X118982423Y-91273959D01*
X118594039Y-91113096D01*
X118372000Y-91235085D01*
X118118000Y-91235085D01*
X117895961Y-91113096D01*
X117507577Y-91273959D01*
X117092611Y-91649866D01*
X116989986Y-91866703D01*
X116719698Y-91462189D01*
X116254151Y-91151120D01*
X115705000Y-91041887D01*
X115155849Y-91151120D01*
X114690302Y-91462189D01*
X114435000Y-91844275D01*
X114179698Y-91462189D01*
X113714151Y-91151120D01*
X113165000Y-91041887D01*
X112615849Y-91151120D01*
X112150302Y-91462189D01*
X111895000Y-91844275D01*
X111639698Y-91462189D01*
X111174151Y-91151120D01*
X110625000Y-91041887D01*
X110075849Y-91151120D01*
X109610302Y-91462189D01*
X109355000Y-91844275D01*
X109099698Y-91462189D01*
X108634151Y-91151120D01*
X108085000Y-91041887D01*
X107535849Y-91151120D01*
X107070302Y-91462189D01*
X106973899Y-91606465D01*
X106948162Y-91469683D01*
X106809090Y-91253559D01*
X106596890Y-91108569D01*
X106345000Y-91057560D01*
X104745000Y-91057560D01*
X104509683Y-91101838D01*
X104293559Y-91240910D01*
X104148569Y-91453110D01*
X104097560Y-91705000D01*
X88190848Y-91705000D01*
X87474557Y-90987458D01*
X86733488Y-90679739D01*
X87470658Y-90375147D01*
X88212542Y-89634557D01*
X88614542Y-88666433D01*
X88615457Y-87618166D01*
X88215147Y-86649342D01*
X87474557Y-85907458D01*
X86733488Y-85599739D01*
X87470658Y-85295147D01*
X88212542Y-84554557D01*
X88614542Y-83586433D01*
X88615457Y-82538166D01*
X88215147Y-81569342D01*
X87474557Y-80827458D01*
X86506433Y-80425458D01*
X85458166Y-80424543D01*
X84489342Y-80824853D01*
X83747458Y-81565443D01*
X83345458Y-82533567D01*
X83344543Y-83581834D01*
X83594935Y-84187829D01*
X83236764Y-84546000D01*
X80421760Y-84546000D01*
X80314147Y-84384946D01*
X79973447Y-84157298D01*
X80116358Y-84090183D01*
X80506645Y-83661924D01*
X80676476Y-83251890D01*
X80555155Y-83022000D01*
X79362000Y-83022000D01*
X79362000Y-83042000D01*
X79108000Y-83042000D01*
X79108000Y-83022000D01*
X79088000Y-83022000D01*
X79088000Y-82768000D01*
X79108000Y-82768000D01*
X79108000Y-82748000D01*
X79362000Y-82748000D01*
X79362000Y-82768000D01*
X80555155Y-82768000D01*
X80676476Y-82538110D01*
X80506645Y-82128076D01*
X80116358Y-81699817D01*
X79973447Y-81632702D01*
X80314147Y-81405054D01*
X80636054Y-80923285D01*
X80749093Y-80355000D01*
X80636054Y-79786715D01*
X80314147Y-79304946D01*
X79984974Y-79085000D01*
X80314147Y-78865054D01*
X80421760Y-78704000D01*
X86556764Y-78704000D01*
X93361382Y-85508618D01*
X93649794Y-85701329D01*
X93990000Y-85769000D01*
X99999822Y-85769000D01*
X100326077Y-86095824D01*
X100853309Y-86314750D01*
X101424187Y-86315248D01*
X101951800Y-86097243D01*
X102355824Y-85693923D01*
X102574750Y-85166691D01*
X102575020Y-84856887D01*
X104110000Y-84856887D01*
X104110000Y-84913113D01*
X104219233Y-85462264D01*
X104530302Y-85927811D01*
X104995849Y-86238880D01*
X105545000Y-86348113D01*
X106094151Y-86238880D01*
X106559698Y-85927811D01*
X106815000Y-85545725D01*
X107070302Y-85927811D01*
X107535849Y-86238880D01*
X108085000Y-86348113D01*
X108634151Y-86238880D01*
X109099698Y-85927811D01*
X109355000Y-85545725D01*
X109610302Y-85927811D01*
X110075849Y-86238880D01*
X110625000Y-86348113D01*
X111174151Y-86238880D01*
X111639698Y-85927811D01*
X111895000Y-85545725D01*
X112150302Y-85927811D01*
X112615849Y-86238880D01*
X113165000Y-86348113D01*
X113714151Y-86238880D01*
X114179698Y-85927811D01*
X114435000Y-85545725D01*
X114690302Y-85927811D01*
X115155849Y-86238880D01*
X115705000Y-86348113D01*
X116254151Y-86238880D01*
X116719698Y-85927811D01*
X116975000Y-85545725D01*
X117230302Y-85927811D01*
X117695849Y-86238880D01*
X118245000Y-86348113D01*
X118794151Y-86238880D01*
X119259698Y-85927811D01*
X119515000Y-85545725D01*
X119770302Y-85927811D01*
X120235849Y-86238880D01*
X120785000Y-86348113D01*
X121334151Y-86238880D01*
X121799698Y-85927811D01*
X122069986Y-85523297D01*
X122172611Y-85740134D01*
X122587577Y-86116041D01*
X122975961Y-86276904D01*
X123198000Y-86154915D01*
X123198000Y-85012000D01*
X123452000Y-85012000D01*
X123452000Y-86154915D01*
X123674039Y-86276904D01*
X124062423Y-86116041D01*
X124477389Y-85740134D01*
X124716914Y-85234041D01*
X124595629Y-85012000D01*
X123452000Y-85012000D01*
X123198000Y-85012000D01*
X123178000Y-85012000D01*
X123178000Y-84758000D01*
X123198000Y-84758000D01*
X123198000Y-83615085D01*
X123452000Y-83615085D01*
X123452000Y-84758000D01*
X124595629Y-84758000D01*
X124716914Y-84535959D01*
X124477389Y-84029866D01*
X124062423Y-83653959D01*
X123674039Y-83493096D01*
X123452000Y-83615085D01*
X123198000Y-83615085D01*
X122975961Y-83493096D01*
X122587577Y-83653959D01*
X122172611Y-84029866D01*
X122069986Y-84246703D01*
X121799698Y-83842189D01*
X121334151Y-83531120D01*
X120785000Y-83421887D01*
X120235849Y-83531120D01*
X119770302Y-83842189D01*
X119515000Y-84224275D01*
X119259698Y-83842189D01*
X118794151Y-83531120D01*
X118245000Y-83421887D01*
X117695849Y-83531120D01*
X117230302Y-83842189D01*
X116975000Y-84224275D01*
X116719698Y-83842189D01*
X116254151Y-83531120D01*
X115705000Y-83421887D01*
X115155849Y-83531120D01*
X114690302Y-83842189D01*
X114435000Y-84224275D01*
X114179698Y-83842189D01*
X113714151Y-83531120D01*
X113165000Y-83421887D01*
X112615849Y-83531120D01*
X112150302Y-83842189D01*
X111895000Y-84224275D01*
X111639698Y-83842189D01*
X111174151Y-83531120D01*
X110625000Y-83421887D01*
X110075849Y-83531120D01*
X109610302Y-83842189D01*
X109355000Y-84224275D01*
X109099698Y-83842189D01*
X108634151Y-83531120D01*
X108085000Y-83421887D01*
X107535849Y-83531120D01*
X107070302Y-83842189D01*
X106815000Y-84224275D01*
X106559698Y-83842189D01*
X106094151Y-83531120D01*
X105545000Y-83421887D01*
X104995849Y-83531120D01*
X104530302Y-83842189D01*
X104219233Y-84307736D01*
X104110000Y-84856887D01*
X102575020Y-84856887D01*
X102575248Y-84595813D01*
X102357243Y-84068200D01*
X101953923Y-83664176D01*
X101426691Y-83445250D01*
X100855813Y-83444752D01*
X100328200Y-83662757D01*
X99999384Y-83991000D01*
X94358236Y-83991000D01*
X87553618Y-77186382D01*
X87265206Y-76993671D01*
X86925000Y-76926000D01*
X80421760Y-76926000D01*
X80323538Y-76779000D01*
X89661764Y-76779000D01*
X93955155Y-81072391D01*
X93954752Y-81534187D01*
X94172757Y-82061800D01*
X94576077Y-82465824D01*
X95103309Y-82684750D01*
X95674187Y-82685248D01*
X96201800Y-82467243D01*
X96605824Y-82063923D01*
X96824750Y-81536691D01*
X96825248Y-80965813D01*
X96607243Y-80438200D01*
X96203923Y-80034176D01*
X95676691Y-79815250D01*
X95212081Y-79814845D01*
X94219070Y-78821834D01*
X100884543Y-78821834D01*
X101284853Y-79790658D01*
X102025443Y-80532542D01*
X102993567Y-80934542D01*
X104041834Y-80935457D01*
X105010658Y-80535147D01*
X105752542Y-79794557D01*
X106060261Y-79053488D01*
X106364853Y-79790658D01*
X107105443Y-80532542D01*
X108073567Y-80934542D01*
X109121834Y-80935457D01*
X110090658Y-80535147D01*
X110832542Y-79794557D01*
X111140261Y-79053488D01*
X111444853Y-79790658D01*
X112185443Y-80532542D01*
X113153567Y-80934542D01*
X114201834Y-80935457D01*
X115170658Y-80535147D01*
X115912542Y-79794557D01*
X116314542Y-78826433D01*
X116315457Y-77778166D01*
X115915147Y-76809342D01*
X115174557Y-76067458D01*
X114206433Y-75665458D01*
X113158166Y-75664543D01*
X112189342Y-76064853D01*
X111447458Y-76805443D01*
X111139739Y-77546512D01*
X110835147Y-76809342D01*
X110094557Y-76067458D01*
X109126433Y-75665458D01*
X108078166Y-75664543D01*
X107109342Y-76064853D01*
X106367458Y-76805443D01*
X106059739Y-77546512D01*
X105755147Y-76809342D01*
X105014557Y-76067458D01*
X104046433Y-75665458D01*
X102998166Y-75664543D01*
X102029342Y-76064853D01*
X101287458Y-76805443D01*
X100885458Y-77773567D01*
X100884543Y-78821834D01*
X94219070Y-78821834D01*
X90658618Y-75261382D01*
X90370206Y-75068671D01*
X90170766Y-75029000D01*
X114249822Y-75029000D01*
X114576077Y-75355824D01*
X115103309Y-75574750D01*
X115674187Y-75575248D01*
X116201800Y-75357243D01*
X116605824Y-74953923D01*
X116824750Y-74426691D01*
X116825248Y-73855813D01*
X116607243Y-73328200D01*
X116203923Y-72924176D01*
X115676691Y-72705250D01*
X115105813Y-72704752D01*
X114578200Y-72922757D01*
X114249384Y-73251000D01*
X110626236Y-73251000D01*
X111238236Y-72639000D01*
X117371764Y-72639000D01*
X119375155Y-74642391D01*
X119374752Y-75104187D01*
X119592757Y-75631800D01*
X119996077Y-76035824D01*
X120523309Y-76254750D01*
X121094187Y-76255248D01*
X121621800Y-76037243D01*
X122025824Y-75633923D01*
X122244750Y-75106691D01*
X122245248Y-74535813D01*
X122073912Y-74121148D01*
X126301000Y-78348236D01*
X126301000Y-92539726D01*
X126291000Y-92590000D01*
X126291000Y-94691764D01*
X122771764Y-98211000D01*
X121000178Y-98211000D01*
X120673923Y-97884176D01*
X120146691Y-97665250D01*
X119575813Y-97664752D01*
X119048200Y-97882757D01*
X118644176Y-98286077D01*
X118425250Y-98813309D01*
X118424752Y-99384187D01*
X118642757Y-99911800D01*
X119046077Y-100315824D01*
X119573309Y-100534750D01*
X120144187Y-100535248D01*
X120671800Y-100317243D01*
X121000616Y-99989000D01*
X123140000Y-99989000D01*
X123480206Y-99921329D01*
X123768618Y-99728618D01*
X127808618Y-95688618D01*
X127824704Y-95664543D01*
X128001329Y-95400206D01*
X128069000Y-95060000D01*
X128069000Y-92630274D01*
X128079000Y-92580000D01*
X128079000Y-78346236D01*
X134561000Y-84828236D01*
X134561000Y-115761764D01*
X132761764Y-117561000D01*
X130070178Y-117561000D01*
X129743923Y-117234176D01*
X129216691Y-117015250D01*
X128645813Y-117014752D01*
X128118200Y-117232757D01*
X127714176Y-117636077D01*
X127495250Y-118163309D01*
X127494752Y-118734187D01*
X127712757Y-119261800D01*
X128116077Y-119665824D01*
X128643309Y-119884750D01*
X129214187Y-119885248D01*
X129741800Y-119667243D01*
X130070616Y-119339000D01*
X132773764Y-119339000D01*
X131121764Y-120991000D01*
X127560178Y-120991000D01*
X127233923Y-120664176D01*
X126706691Y-120445250D01*
X126135813Y-120444752D01*
X125608200Y-120662757D01*
X125204176Y-121066077D01*
X124985250Y-121593309D01*
X124984752Y-122164187D01*
X125202757Y-122691800D01*
X125606077Y-123095824D01*
X126133309Y-123314750D01*
X126704187Y-123315248D01*
X127231800Y-123097243D01*
X127560616Y-122769000D01*
X131490000Y-122769000D01*
X131830206Y-122701329D01*
X132118618Y-122508618D01*
X137538618Y-117088618D01*
X137731330Y-116800205D01*
X137799000Y-116460000D01*
X137799000Y-84060000D01*
X137793006Y-84029866D01*
X137731330Y-83719795D01*
X137538618Y-83431382D01*
X121488618Y-67381382D01*
X121200206Y-67188671D01*
X120860000Y-67121000D01*
X74380000Y-67121000D01*
X74039794Y-67188671D01*
X73751382Y-67381382D01*
X68431519Y-72701245D01*
X68401382Y-72721382D01*
X64001382Y-77121382D01*
X63808671Y-77409794D01*
X63741000Y-77750000D01*
X36720000Y-77750000D01*
X36720000Y-54710000D01*
X161300000Y-54710000D01*
X161300000Y-177290000D01*
G36*
X71532998Y-80151998D02*
X71600669Y-80492204D01*
X71629363Y-80535147D01*
X71793380Y-80780616D01*
X74536382Y-83523618D01*
X74824795Y-83716330D01*
X75165000Y-83784000D01*
X75508240Y-83784000D01*
X75615853Y-83945054D01*
X75945026Y-84165000D01*
X75615853Y-84384946D01*
X75508240Y-84546000D01*
X73425169Y-84546000D01*
X73093923Y-84214176D01*
X72566691Y-83995250D01*
X71995813Y-83994752D01*
X71468200Y-84212757D01*
X71064176Y-84616077D01*
X70845250Y-85143309D01*
X70844752Y-85714187D01*
X71062757Y-86241800D01*
X71466077Y-86645824D01*
X71993309Y-86864750D01*
X72564187Y-86865248D01*
X73091800Y-86647243D01*
X73415607Y-86324000D01*
X75508240Y-86324000D01*
X75615853Y-86485054D01*
X75956553Y-86712702D01*
X75813642Y-86779817D01*
X75423355Y-87208076D01*
X75253524Y-87618110D01*
X75374845Y-87848000D01*
X76568000Y-87848000D01*
X76568000Y-87828000D01*
X76822000Y-87828000D01*
X76822000Y-87848000D01*
X76842000Y-87848000D01*
X76842000Y-88102000D01*
X76822000Y-88102000D01*
X76822000Y-88122000D01*
X76568000Y-88122000D01*
X76568000Y-88102000D01*
X75374845Y-88102000D01*
X75253524Y-88331890D01*
X75423355Y-88741924D01*
X75813642Y-89170183D01*
X75956553Y-89237298D01*
X75615853Y-89464946D01*
X75508240Y-89626000D01*
X68753236Y-89626000D01*
X67829000Y-88701764D01*
X67829000Y-79398236D01*
X71532998Y-75694238D01*
X71532998Y-80151998D01*
X71532998Y-80151998D01*
G37*
X71532998Y-80151998D02*
X71600669Y-80492204D01*
X71629363Y-80535147D01*
X71793380Y-80780616D01*
X74536382Y-83523618D01*
X74824795Y-83716330D01*
X75165000Y-83784000D01*
X75508240Y-83784000D01*
X75615853Y-83945054D01*
X75945026Y-84165000D01*
X75615853Y-84384946D01*
X75508240Y-84546000D01*
X73425169Y-84546000D01*
X73093923Y-84214176D01*
X72566691Y-83995250D01*
X71995813Y-83994752D01*
X71468200Y-84212757D01*
X71064176Y-84616077D01*
X70845250Y-85143309D01*
X70844752Y-85714187D01*
X71062757Y-86241800D01*
X71466077Y-86645824D01*
X71993309Y-86864750D01*
X72564187Y-86865248D01*
X73091800Y-86647243D01*
X73415607Y-86324000D01*
X75508240Y-86324000D01*
X75615853Y-86485054D01*
X75956553Y-86712702D01*
X75813642Y-86779817D01*
X75423355Y-87208076D01*
X75253524Y-87618110D01*
X75374845Y-87848000D01*
X76568000Y-87848000D01*
X76568000Y-87828000D01*
X76822000Y-87828000D01*
X76822000Y-87848000D01*
X76842000Y-87848000D01*
X76842000Y-88102000D01*
X76822000Y-88102000D01*
X76822000Y-88122000D01*
X76568000Y-88122000D01*
X76568000Y-88102000D01*
X75374845Y-88102000D01*
X75253524Y-88331890D01*
X75423355Y-88741924D01*
X75813642Y-89170183D01*
X75956553Y-89237298D01*
X75615853Y-89464946D01*
X75508240Y-89626000D01*
X68753236Y-89626000D01*
X67829000Y-88701764D01*
X67829000Y-79398236D01*
X71532998Y-75694238D01*
X71532998Y-80151998D01*
M02*
